<?xml version="1.0" encoding="utf-8"?>
<!-- Generator: Adobe Illustrator 27.0.1, SVG Export Plug-In . SVG Version: 6.00 Build 0)  -->
<svg version="1.1" id="Layer_1" xmlns="http://www.w3.org/2000/svg" xmlns:xlink="http://www.w3.org/1999/xlink" x="0px" y="0px"
	 viewBox="0 0 500 500" style="enable-background:new 0 0 500 500;" xml:space="preserve">
<path d="M326.977,190.508c-18.476,0.58-37.75,1.214-56.23,0.533c-0.02,12.423,3.973,25.178,0.399,37.383
	c7.733,0.506,17.383-2.184,23.185,4.386c4.538,4.531,3.383,11.582,3.538,17.411c0.507,32.379,0.427,65.487,0.642,97.878
	c0.309,23.902,0.5,47.791,0.631,71.695c-0.255,17.368,4.358,36.638-20.914,34.755c-63.59-0.481-128.09,0.774-191.548-2.503
	c-17.334-1.22-10.941-21.286-10.789-32.823c0.428-5.81,0.776-11.566,1.63-17.28c0.379-4.044,4.764-7.484,9.026-6.684
	c-2.593,0.319-3.22,1.599-4.421,3.232c-1.454,2.392,0.275,4.729-0.096,7.327c0.628,11.457,1.61,22.011,1.275,33.378
	c0.293,5.388,8.436,2.285,11.995,2.999c55.86-1.518,112.165-2.426,168.106-2.041c4.394-0.026,15.815-0.001,20.187-0.019
	c0.431,0.006,1.157,0.079,1.227-0.504c-0.071-65.619-0.393-132.206-0.336-197.794c-0.008-0.007-0.01-0.016,0.001-0.025
	c0.002-0.009-0.011-0.012,0.004-0.022c-0.003-0.006-0.011-0.009,0.003-0.02c-8.304-0.845-30.075-0.347-38.335-0.625
	c-0.031,0.022-0.069-0.001-0.098,0.02c-0.252,0.029-0.549,0.304-0.585,0.577c-1.077,59.322,6.965,51.845-52.5,51.992
	c-1.021,0.008-1.491,1.09-1.373,1.977c-0.05,5.063-0.058,10.182-0.088,15.237c-0.013,3.915-0.104,14.037-0.117,17.828
	c0.747,7.655-2.113,15.356-10.189,17.415c-2.974,1.001-12.267,0.177-15.427,0.428c-6.606-0.238-13.877,0.281-20.329-0.557
	c-1.923,0.317-7.731-1.273-8.058,1.809c-0.318,9.935-0.291,20.866-0.76,30.907c0.998,12.598-2.796,21.993-17.227,19.271
	c-10.864-0.369-22.183,0.581-32.862-1.502c2.531-0.51,5.399-0.401,8.043-0.628c-2.742-0.293-0.699-0.32,0.324-0.966
	c-0.809-0.347-2.489-0.181-3.514-0.428c10.374-1.716,22.56-1.171,33.331-2.175c1.371-0.125,2.629-0.765,3.568-1.681
	c3.026-2.643,1.043-9.685,1.236-13.432c-0.39-7.864-0.788-15.738-1.091-23.615c-1.391-9.217,2.222-17.544,12.649-17.329
	c8.97-0.2,20.543-0.286,29.626-0.358c2.603-0.509,9.864,1.539,9.778-2.916c-0.073-11.648-0.216-23.4-0.25-35.038
	c-1.016-7.39,3.546-14.897,11.322-15.699c10.164-0.25,20.969-0.147,31.123-0.347c12.592,0.009,10.072,1.393,10.225-10.788
	c0,0-0.029-26.384-0.029-26.384c-0.961-7.363,3.616-15.141,11.33-16.13c4.742-0.476,11.24-0.018,16.006-0.188
	c-0.115-0.336,0.018-0.718-0.283-0.971c-0.222-0.147-0.274-0.297-0.28-0.452c-0.04-0.483-0.348-1.147-0.772-1.605
	c-0.564-2.195-0.669-4.476-0.607-6.75c-0.514-10.613-0.375-20.984,0.829-31.526c-2.327-12.119,0.724-25.312,3.677-37.111
	c0.445-1.406,0.695-2.998,1.62-4.052c0.541,0.18,0.678-0.396,1.06-0.538c0.502-0.141,0.5-0.139,0.724-0.613
	c3.306,10.351,3.084,21.562,5.288,32.157c11.807-0.102,25.974,0.09,37.79-0.257c-15.11-14.283-11.221-14.191,2.11-26.897
	c-6.466-0.119-13.365-0.62-19.717-1.368c-4.935-0.677-10.155-0.607-14.987-1.37c-3.171-0.256-6.494-0.081-9.573-1.354
	c0.333-0.359,1.179-0.259,1.682-0.409c-0.181-0.081-0.823-0.121-0.519-0.385c-0.02-0.103-0.04-0.206-0.06-0.314
	c-0.455-0.253-0.789-0.136-1.234-0.315c-0.22-0.169-0.046-0.193,0.054-0.232c16.6-3.926,33.879-5.248,50.897-5.433
	c2.599-0.04,6.49-0.179,9.057-0.298c4.784-0.325,7.495,5.995,4.082,9.253c-4.801,5.08-10.815,11.144-15.763,16.136
	c4.938,4.294,9.666,9.28,14.515,13.692C335.573,181.193,334.386,190.301,326.977,190.508z M243.45,325.442
	c-2.576,4.326-5.855,8.212-8.63,12.291c-3.743,6.225-8.081,12.456-12.259,18.361c-12.135,15.277-25.471,30.088-42.034,40.641
	c-9.296,5.941-19.977,9.714-29.277,15.298c-3.549,1.397-7.165,2.811-10.643,4.183c-0.763,1.226-2.272,1.165-3.035,2.21
	c-0.17,0.575-0.762,0.466-1.039,0.809c-0.137,0.516-0.489,0.705-0.825,0.999c10.686,7.662,28.263,0.309,39.265-4.246
	c21.694-9.416,38.421-27.086,52.301-45.736c10.034-14.312,20.119-29.404,23.196-46.915c0.46,6.005-0.381,12.876,2.466,18.132
	c0.048,1.457,0.619,2.79,0.929,4.165c0.04,0.46-0.091,1.062,0.335,1.363c1.038,0.488,0.635,1.227,1.45,1.639
	c0.518,0.123,0.272,0.381,0.547,0.56c0.47,0.105,0.573,0.287,0.781,0.469c0.61-0.431,1.507-0.768,2.434-1.072
	c2.132-1.256,2.819-3.627,4.084-5.579c2.238-5.931,1.498-12.738,1.356-19.01c-0.989-6.524,0.662-20.7-9.813-17.962
	c-2.705,0.871-5.125,2.284-7.73,3.333c-6.947,2.643-14.096,5.125-20.427,8.879c-2.226,2.083-4.377,4.285-6.163,6.755
	c-0.139,0.404,0.195,0.345,0.464,0.635c0.081,0.318-0.05,0.788,0.287,0.923c-0.207,0.327-0.468,0.343-0.507,0.84
	c1.135,1.318,2.057,0.687,3.4,0.415c0.095-0.012,0.186-0.023,0.327,0.174c0.605,0.595,1.211-0.795,1.961-0.612
	c6.061-0.11,11.681-2.305,17.632-3.975C243.943,324.054,243.765,324.783,243.45,325.442z M425.038,205.773
	c-0.593-3.156-4.003-6.146-7.047-6.855c-4.534-0.802-9.146-1.125-13.767-0.646c-2.079-69.786-62.444-128.583-131.867-130.746
	c-0.012-3.531-0.272-7.151-0.813-10.563c0.157-3.294-1.115-6.509-3.434-9.003c-0.842-0.757-0.976-2.002-2.164-2.304
	c-0.336,0.466-0.997-0.03-1.394,0.22c-0.247-0.237-0.182-0.413-0.628-0.555c-2.374,0.749-0.725,1.717-1.773,2.454
	c-0.756,0.207,0.339,1.021-0.062,1.513c-0.618,1.036-0.653,2.21-0.907,3.32c-0.228,0.242-0.732,0.422-0.498,0.716
	c-0.258,4.753-0.561,9.574-1.243,14.317c-70.546,2.992-128.678,61.113-130.531,131.868c-4.173,0.282-8.676,0.366-12.683,0.953
	c-3.899-0.114-6.912,2.029-9.803,4.42c-0.334,0.268-0.957,0.553-0.994,1.186c0.467,0.335-0.031,0.997,0.22,1.393
	c-0.237,0.248-0.413,0.182-0.555,0.628c0.752,2.376,1.714,0.724,2.455,1.773c0.206,0.756,1.021-0.339,1.513,0.062
	c1.035,0.618,2.21,0.653,3.32,0.907c0.243,0.228,0.421,0.732,0.716,0.498c5.411,0.257,10.869,0.713,16.268,1.505
	c2.484,23.446,11.408,47.717,26.668,65.461c-0.257-0.785-1.093-1.797-1.13-2.518c0.981,0.33,1.831,1.695,0.947-0.309
	c1.254,1.605,2.467,3.457,3.958,4.769c-3.035-8.428-9.179-15.752-11.668-24.373c-0.801-3.56-3.092-7.418-4.143-10.974
	c-3.211-10.402-4.562-21.372-5.227-32.208c5.562-0.762,12.027,0.978,16.714-2.097c1.107-0.007,2.073-0.536,3.09-0.798
	c0.353-0.012,0.824,0.096,1.012-0.293c0.387-1.029,0.93-0.605,1.241-1.398c0.099-0.507,0.279-0.261,0.425-0.529
	c0.088-0.466,0.225-0.564,0.364-0.766c-1.032-4.086-1.981-4.441-5.072-7.032c-5.34-2.158-11.386-1.833-17.063-1.409
	c2.611-62.623,57.261-116.157,120.003-117.154c0.414,4.88-0.852,10.466,1.944,14.503c0.006,1.107,0.536,2.073,0.797,3.09
	c0.013,0.353-0.096,0.824,0.293,1.012c1.029,0.387,0.605,0.929,1.398,1.241c0.507,0.099,0.261,0.279,0.529,0.425
	c0.466,0.088,0.564,0.225,0.766,0.363c4.086-1.031,4.441-1.981,7.032-5.072c2.01-4.822,1.769-10.276,1.563-15.427
	c61.59,2.714,114.484,56.761,116.172,118.341c-3.168-0.001-6.417,0.326-9.475,0.787c-3.294-0.157-6.509,1.115-9.002,3.434
	c-0.757,0.841-2.003,0.976-2.304,2.164c0.465,0.336-0.031,0.997,0.22,1.394c-0.236,0.247-0.413,0.182-0.555,0.628
	c0.748,2.373,1.719,0.725,2.454,1.773c0.208,0.756,1.021-0.339,1.513,0.062c1.035,0.619,2.21,0.653,3.32,0.908
	c0.242,0.227,0.422,0.732,0.716,0.498c4.329,0.236,8.736,0.504,13.06,1.077c-1.64,31.073-13.584,61.535-35.383,83.969
	c-2.928,3.079-6.315,5.884-9.536,8.64c-5.912,6.093-12.574,10.739-19.161,16.079c2.98-1.051,6.257-1.611,9.095-2.137
	c8.493-3.492,16.306-8.823,23.549-14.444c27.664-22.234,43.701-56.677,45.528-91.893c5.098-0.672,10.982,0.916,15.235-2.035
	c1.107-0.006,2.073-0.536,3.09-0.797c0.353-0.013,0.823,0.096,1.012-0.293c0.387-1.029,0.93-0.605,1.241-1.398
	c0.099-0.507,0.279-0.261,0.425-0.529c0.088-0.466,0.225-0.564,0.364-0.766C425.2,206.473,425.2,206.473,425.038,205.773z"/>
</svg>
