<?xml version="1.0" encoding="UTF-8"?>
<svg id="Capa_1" data-name="Capa 1" xmlns="http://www.w3.org/2000/svg" version="1.1" viewBox="0 0 5696 2136">
  <title>Icon set about risk management. Line icons on transparent background with editable stroke.</title>
<desc>Icon set about risk management. Line icons on transparent background with editable stroke.</desc>
<metadata><?xpacket begin="﻿" id="W5M0MpCehiHzreSzNTczkc9d"?>
<x:xmpmeta xmlns:x="adobe:ns:meta/" x:xmptk="Adobe XMP Core 9.1-c002 79.2c0288b, 2024/01/23-06:33:24        ">
   <rdf:RDF xmlns:rdf="http://www.w3.org/1999/02/22-rdf-syntax-ns#">
      <rdf:Description rdf:about=""
            xmlns:photoshop="http://ns.adobe.com/photoshop/1.0/"
            xmlns:dc="http://purl.org/dc/elements/1.1/"
            xmlns:xmp="http://ns.adobe.com/xap/1.0/"
            xmlns:xmpMM="http://ns.adobe.com/xap/1.0/mm/"
            xmlns:stEvt="http://ns.adobe.com/xap/1.0/sType/ResourceEvent#">
         <photoshop:DateCreated>2024-05-23T00:00:00Z</photoshop:DateCreated>
         <dc:description>
            <rdf:Alt>
               <rdf:li xml:lang="x-default">Icon set about risk management. Line icons on transparent background with editable stroke.</rdf:li>
            </rdf:Alt>
         </dc:description>
         <dc:subject>
            <rdf:Bag>
               <rdf:li>risk management</rdf:li>
               <rdf:li>icon</rdf:li>
               <rdf:li>line</rdf:li>
               <rdf:li>risk</rdf:li>
               <rdf:li>threats</rdf:li>
               <rdf:li>warning</rdf:li>
               <rdf:li>alert</rdf:li>
               <rdf:li>business</rdf:li>
               <rdf:li>economic</rdf:li>
               <rdf:li>financial</rdf:li>
               <rdf:li>competitors</rdf:li>
               <rdf:li>bankruptcy</rdf:li>
               <rdf:li>piggy bank</rdf:li>
               <rdf:li>operational</rdf:li>
               <rdf:li>reputational</rdf:li>
               <rdf:li>legal</rdf:li>
               <rdf:li>compliance</rdf:li>
               <rdf:li>security</rdf:li>
               <rdf:li>reduce</rdf:li>
               <rdf:li>mitigate</rdf:li>
               <rdf:li>accept</rdf:li>
               <rdf:li>transfer</rdf:li>
               <rdf:li>share</rdf:li>
               <rdf:li>avoid</rdf:li>
               <rdf:li>bomb</rdf:li>
               <rdf:li>deadline</rdf:li>
               <rdf:li>goals</rdf:li>
               <rdf:li>target</rdf:li>
               <rdf:li>environment</rdf:li>
               <rdf:li>crisis</rdf:li>
               <rdf:li>context</rdf:li>
               <rdf:li>organization</rdf:li>
               <rdf:li>evaluation</rdf:li>
               <rdf:li>review</rdf:li>
               <rdf:li>analysis</rdf:li>
               <rdf:li>strategy</rdf:li>
               <rdf:li>control</rdf:li>
               <rdf:li>planning</rdf:li>
               <rdf:li>monitoring</rdf:li>
               <rdf:li>tracking</rdf:li>
               <rdf:li>continuity</rdf:li>
               <rdf:li>quality</rdf:li>
               <rdf:li>shark</rdf:li>
               <rdf:li>assessment</rdf:li>
               <rdf:li>hazard</rdf:li>
               <rdf:li>insurance</rdf:li>
               <rdf:li>price</rdf:li>
               <rdf:li>outline</rdf:li>
               <rdf:li>editable stroke</rdf:li>
            </rdf:Bag>
         </dc:subject>
         <dc:title>
            <rdf:Alt>
               <rdf:li xml:lang="x-default">Icon set about risk management. Line icons on transparent background with editable stroke.</rdf:li>
            </rdf:Alt>
         </dc:title>
         <xmp:MetadataDate>2024-05-23T13:24:42+02:00</xmp:MetadataDate>
         <xmpMM:InstanceID>xmp.iid:b2689a34-8dae-4a31-a7ef-dd0d478a8ebb</xmpMM:InstanceID>
         <xmpMM:DocumentID>xmp.did:ada8897c-ec37-4014-9a53-7e26cd6d8f03</xmpMM:DocumentID>
         <xmpMM:OriginalDocumentID>xmp.did:ada8897c-ec37-4014-9a53-7e26cd6d8f03</xmpMM:OriginalDocumentID>
         <xmpMM:History>
            <rdf:Seq>
               <rdf:li>
                  <rdf:Description>
                     <stEvt:action>saved</stEvt:action>
                     <stEvt:instanceID>xmp.iid:ada8897c-ec37-4014-9a53-7e26cd6d8f03</stEvt:instanceID>
                     <stEvt:when>2024-05-23T13:13:31+02:00</stEvt:when>
                     <stEvt:softwareAgent>Adobe Bridge 2024</stEvt:softwareAgent>
                     <stEvt:changed>/metadata</stEvt:changed>
                  </rdf:Description>
               </rdf:li>
               <rdf:li>
                  <rdf:Description>
                     <stEvt:action>saved</stEvt:action>
                     <stEvt:instanceID>xmp.iid:b2689a34-8dae-4a31-a7ef-dd0d478a8ebb</stEvt:instanceID>
                     <stEvt:when>2024-05-23T13:24:42+02:00</stEvt:when>
                     <stEvt:softwareAgent>Adobe Bridge 2024</stEvt:softwareAgent>
                     <stEvt:changed>/metadata</stEvt:changed>
                  </rdf:Description>
               </rdf:li>
            </rdf:Seq>
         </xmpMM:History>
      </rdf:Description>
   </rdf:RDF>
</x:xmpmeta>
                                                                                                    
                                                                                                    
                                                                                                    
                                                                                                    
                                                                                                    
                                                                                                    
                                                                                                    
                                                                                                    
                                                                                                    
                                                                                                    
                                                                                                    
                                                                                                    
                                                                                                    
                                                                                                    
                                                                                                    
                                                                                                    
                                                                                                    
                                                                                                    
                                                                                                    
  
<?xpacket end="w"?></metadata>
<defs>
    <style>
      .cls-1 {
        fill: none;
        stroke: #000;
        stroke-linecap: round;
        stroke-linejoin: round;
        stroke-width: 16px;
      }

      .cls-2 {
        fill: #000;
        stroke-width: 0px;
      }
    </style>
  </defs>
  <g id="alert_warning_risk" data-name="alert warning risk">
    <circle class="cls-1" cx="356" cy="572" r="32"/>
    <path class="cls-1" d="M420,572h168c12.4,0,20.1-13.5,13.8-24.1l-232-400.5c-6.2-10.5-21.4-10.5-27.6,0l-232,400.5c-6.3,10.7,1.4,24.1,13.8,24.1h168"/>
    <path class="cls-1" d="M332.6,283.5h46.8c9.1,0,16.3,7.5,16,16.6l-6.9,192c-.3,8.6-7.4,15.4-16,15.4h-33.1c-8.6,0-15.7-6.8-16-15.4l-6.9-192c-.3-9.1,6.9-16.6,16-16.6Z"/>
  </g>
  <g id="risk_management_-_deadline_-_bomb" data-name="risk management - deadline - bomb">
    <path class="cls-1" d="M1027.5,603.4c93.9-7.4,169.7-84.1,176-178.1,2.8-41.6-7.7-80.6-27.6-113.2l36-36.1-64-64-36,36c-32.6-19.9-71.6-30.4-113.2-27.6-94,6.3-170.8,82.1-178.1,176-9.3,118.3,88.7,216.2,206.9,206.9Z"/>
    <path class="cls-1" d="M1180,244l33-33c4.5-4.5,10.6-7,17-7h22.1c13.3,0,24-10.7,24-24v-16"/>
    <line class="cls-1" x1="1276" y1="132" x2="1276" y2="108"/>
    <line class="cls-1" x1="1308" y1="156" x2="1316" y2="156"/>
    <line class="cls-1" x1="1244" y1="140" x2="1212" y2="108"/>
    <path class="cls-1" d="M1012,556c-79.5,0-144-64.5-144-144"/>
  </g>
  <g id="risk_business" data-name="risk business">
    <path class="cls-1" d="M1644,572h-64c-17.7,0-32-14.3-32-32v-213.6"/>
    <path class="cls-1" d="M2012,326.4v213.6c0,17.7-14.3,32-32,32h-64"/>
    <path class="cls-1" d="M1892,204l-16-72c-4-14-10.7-24-24-24h-144c-13.2,0-20,10-24,24l-16,72"/>
    <path class="cls-1" d="M1692,316v48c0,8.8-7.2,16-16,16h-8c-8.8,0-16-7.2-16-16v-48h40Z"/>
    <path class="cls-1" d="M1908,316v48c0,8.8-7.2,16-16,16h-8c-8.8,0-16-7.2-16-16v-48h40Z"/>
    <line class="cls-1" x1="1716" y1="140" x2="1844" y2="140"/>
    <line class="cls-1" x1="1836" y1="348" x2="1724" y2="348"/>
    <path class="cls-1" d="M1940,348h24c35.3,0,64-28.7,64-64v-48c0-17.7-14.3-32-32-32h-432c-17.7,0-32,14.3-32,32v48c0,35.3,28.7,64,64,64h24"/>
    <g>
      <path class="cls-1" d="M1867.7,604h-175.4c-12.1,0-20-12.7-14.6-23.6l87.7-175.4c6-12,23.1-12,29.1,0l87.7,175.4c5.4,10.8-2.5,23.6-14.6,23.6Z"/>
      <line class="cls-1" x1="1780" y1="468" x2="1780" y2="532"/>
      <circle class="cls-2" cx="1780" cy="564" r="8"/>
    </g>
  </g>
  <g id="goals_target_risk" data-name="goals target risk">
    <line class="cls-1" x1="2492" y1="356" x2="2650" y2="198"/>
    <path class="cls-1" d="M2692,108l-48,48s-12,24,6,42l48-48-6-42Z"/>
    <path class="cls-1" d="M2698,150l-48,48c18,18,42,6,42,6l48-48-42-6Z"/>
    <path class="cls-1" d="M2515.9,506.1c-7.8,1.2-15.8,1.9-23.9,1.9h0c-83.9,0-152-68.1-152-152s68.1-152,152-152"/>
    <path class="cls-1" d="M2621,275.6c13.2,21.1,21.4,45.7,22.8,72.1"/>
    <path class="cls-1" d="M2571,226.1c-23-14-50.1-22.1-79-22.1"/>
    <path class="cls-1" d="M2717.2,460c14.6-31.6,22.8-66.9,22.8-104,0-43.8-11.3-84.9-31.2-120.6"/>
    <path class="cls-1" d="M2611.9,138.8c-35.5-19.6-76.4-30.8-119.9-30.8h0c-137,0-248,111-248,248s106.5,243.4,239.6,247.9"/>
    <path class="cls-1" d="M2500.1,300.6c-2.6-.4-5.3-.6-8.1-.6h0c-30.9,0-56,25.1-56,56s25.1,56,56,56h0c30.9,0,56-25.1,56-56,0-2.8-.2-5.6-.6-8.3"/>
    <g>
      <path class="cls-1" d="M2722.4,604h-188.9c-13,0-21.5-13.7-15.7-25.4l94.4-188.9c6.5-12.9,24.9-12.9,31.4,0l94.4,188.9c5.8,11.7-2.7,25.4-15.7,25.4Z"/>
      <line class="cls-1" x1="2628" y1="460" x2="2628" y2="524"/>
      <circle class="cls-2" cx="2628" cy="556" r="8"/>
    </g>
  </g>
  <g id="security_risk" data-name="security risk">
    <path class="cls-1" d="M3212.1,550c-12.5,7.5-25.8,14.9-40.1,22-194.1-97.3-216-232-216-324.8v-67.2s132.4-12.1,216-72c83.6,59.9,216,72,216,72v67.2c0,32.1-2.6,69.3-14.1,108.2"/>
    <path class="cls-1" d="M3323.6,202c-43.3-9.1-102.2-25.9-151.6-55.8-63.4,38.3-142.2,55.1-184,61.8v39.2c0,89,21.3,201.6,184,288.8,23.7-12.7,45.2-26.5,64.3-41.2"/>
    <path class="cls-1" d="M3342.8,347.7c11.6-38.7,13.2-74.7,13.2-100.5v-39.2"/>
    <g>
      <path class="cls-1" d="M3434.4,604h-188.9c-13,0-21.5-13.7-15.7-25.4l94.4-188.9c6.5-12.9,24.9-12.9,31.4,0l94.4,188.9c5.8,11.7-2.7,25.4-15.7,25.4Z"/>
      <line class="cls-1" x1="3340" y1="460" x2="3340" y2="524"/>
      <circle class="cls-2" cx="3340" cy="556" r="8"/>
    </g>
  </g>
  <g id="environment_crisis_risk" data-name="environment crisis risk">
    <path class="cls-1" d="M3772,188l27.9,14.3c6.7,5.4,8,15.2,2.8,22.1l-33.9,45.2c-3,4-7.8,6.4-12.8,6.4h-7.4c-10.6,0-20.8,4.2-28.3,11.7l-1,1c-6.2,6.2-6.2,16.4,0,22.6l20.7,20.7,37.6,12.5c6.8,2.3,12.6,6.7,16.5,12.6l9.9,14.9,18.3,5.2c8.6,2.1,17,12.8,12.5,22.6l-18.3,39.2c-7.7,15.4-6.6,33.7,3,48l8.6,13-18.2-3.6c-19.6-3.9-37.1-15.6-47.2-32.8-8.9-15.2-15.6-32.8-20.6-47.2l-10-28.3-13.4-7.8c-5.5-3.2-18.7-14.8-18.6-24.2"/>
    <path class="cls-1" d="M3915.9,554.7c-7.8.8-15.8,1.3-23.9,1.3-123.7,0-224-100.3-224-224s100.3-224,224-224,224,100.3,224,224-2.5,38.2-7.1,56.1"/>
    <path class="cls-1" d="M4060,348.1c-.3-5.4.4-10.6-2.6-15.5l-12.8-21.4c-2.3-5.3,1.6-11.2,7.4-11.2h24"/>
    <path class="cls-1" d="M3996,180h-44.5c-6.9,0-13,4.4-15.2,10.9l-9.7,29.1c-1.4,4.3,1,9,5.4,10.2l36,10.3c7.4,2.1,13.1,8,15,15.5h0c2.5,10.1-5.1,19.9-15.5,19.9h-47.4c-7.1,0-12.4,5.9-15.4,11.6l-11.3,21c-2.1,4.7-1.8,10,.7,14.5l22.9,37.5c4.4,7.1,12.1,11.5,20.5,11.5h5.4c3.1,0,6,1.8,7.3,4.6l21.9,43.4"/>
    <path class="cls-1" d="M3852,548s0-40,48-40,24,16,24,16"/>
    <path class="cls-1" d="M4146.4,604h-188.9c-13,0-21.5-13.7-15.7-25.4l94.4-188.9c6.5-12.9,24.9-12.9,31.4,0l94.4,188.9c5.8,11.7-2.7,25.4-15.7,25.4Z"/>
    <line class="cls-1" x1="4052" y1="460" x2="4052" y2="524"/>
    <circle class="cls-2" cx="4052" cy="556" r="8"/>
  </g>
  <g id="compliance_risk" data-name="compliance risk">
    <g>
      <path class="cls-1" d="M4524,428v128c0,8.8,7.2,16,16,16h80"/>
      <path class="cls-1" d="M4876,508V188l-80-80h-256c-8.8,0-16,7.2-16,16v64"/>
      <path class="cls-1" d="M4788,148v24c0,8.8,7.2,16,16,16h72"/>
      <line class="cls-1" x1="4716" y1="316" x2="4748" y2="316"/>
      <line class="cls-1" x1="4636" y1="316" x2="4668" y2="316"/>
      <line class="cls-1" x1="4796" y1="316" x2="4828" y2="316"/>
      <line class="cls-1" x1="4556" y1="316" x2="4588" y2="316"/>
      <g>
        <circle class="cls-1" cx="4428" cy="396" r="16"/>
        <path class="cls-1" d="M4476,332l128-128h0c-6.5-6.5-15.1-7.9-23.6-8-8.8-.1-21,4.6-27.8,11.4l-100.6,100.6"/>
        <path class="cls-1" d="M4476,396c0,12.3-4.7,24.6-14.1,33.9-18.7,18.7-49.1,18.7-67.9,0s-18.7-49.1,0-67.9l33.9-30.1,24-24,24,24h0c-16,24,0,48,0,64Z"/>
        <circle class="cls-1" cx="4428" cy="220" r="16"/>
        <path class="cls-1" d="M4500.5,308.5l103.5,103.5h0c-6.5,6.5-15.1,7.9-23.6,8-8.8.1-21-4.6-27.8-11.4l-76.6-76.6"/>
        <path class="cls-1" d="M4476,284h0c-16-24,0-48,0-64,0-12.3-4.7-24.6-14.1-33.9-18.7-18.7-49.1-18.7-67.9,0s-18.7,49.1,0,67.9l33.9,30.1,24,24"/>
      </g>
    </g>
    <g>
      <path class="cls-1" d="M4858.4,604h-188.9c-13,0-21.5-13.7-15.7-25.4l94.4-188.9c6.5-12.9,24.9-12.9,31.4,0l94.4,188.9c5.8,11.7-2.7,25.4-15.7,25.4Z"/>
      <line class="cls-1" x1="4764" y1="460" x2="4764" y2="524"/>
      <circle class="cls-2" cx="4764" cy="556" r="8"/>
    </g>
  </g>
  <g id="quality_risk" data-name="quality risk">
    <path class="cls-1" d="M5260,228l83-88.9c41.4-41.4,108.5-41.4,150,0,41.4,41.4,41.4,108.5,0,150l-56.4,51.9c-41.4,41.4-108.5,41.4-150,0"/>
    <path class="cls-1" d="M5311.7,232.5l65.3-66.1c24.5-24.5,64.2-24.5,88.7,0,24.5,24.5,24.5,64.2,0,88.7l-68.7,68.7c-24.5,24.5-56.4,19-80.9-5.5"/>
    <path class="cls-1" d="M5316,318.2c-17.3-17.3-42.1-22.3-64-15v-42.3c31.6-4.2,64.7,5.9,88.9,30.1,5.3,5.3,9.9,10.9,13.8,16.9"/>
    <path class="cls-1" d="M5331.8,367.8c-1.2,14.3-7.2,28.3-18.2,39.3l-68.7,68.7-5.9,5.9c-24.5,24.5-64.2,24.5-88.7,0-24.5-24.5-24.5-64.2,0-88.7l69.6-68.9-37.8-24.1-59.1,59.1c-41.4,41.4-41.4,108.5,0,150,41.4,41.4,106.1,40.9,147.5-.5l70.4-67.4c19.6-21.2,29.5-43.9,30.9-69"/>
    <g>
      <path class="cls-1" d="M5570.4,604h-188.9c-13,0-21.5-13.7-15.7-25.4l94.4-188.9c6.5-12.9,24.9-12.9,31.4,0l94.4,188.9c5.8,11.7-2.7,25.4-15.7,25.4Z"/>
      <line class="cls-1" x1="5476" y1="460" x2="5476" y2="524"/>
      <circle class="cls-2" cx="5476" cy="556" r="8"/>
    </g>
    <line class="cls-1" x1="5204.9" y1="252.4" x2="5140" y2="188"/>
    <line class="cls-1" x1="5220" y1="220" x2="5220" y2="188"/>
    <line class="cls-1" x1="5172" y1="268" x2="5140" y2="268"/>
  </g>
  <g id="context_organization" data-name="context organization">
    <circle class="cls-1" cx="268" cy="851.5" r="32"/>
    <circle class="cls-1" cx="268" cy="1283.5" r="32"/>
    <circle class="cls-1" cx="444" cy="1283.5" r="32"/>
    <circle class="cls-1" cx="140" cy="1155.5" r="32"/>
    <circle class="cls-1" cx="140" cy="979.5" r="32"/>
    <line class="cls-1" x1="140" y1="1123.5" x2="140" y2="1043.5"/>
    <line class="cls-1" x1="244" y1="1259.5" x2="188" y2="1203.5"/>
    <line class="cls-1" x1="412" y1="1283.5" x2="332" y2="1283.5"/>
    <line class="cls-1" x1="300" y1="851.5" x2="380" y2="851.5"/>
    <line class="cls-1" x1="164" y1="955.5" x2="220" y2="899.5"/>
    <circle class="cls-1" cx="444" cy="851.5" r="32"/>
    <circle class="cls-1" cx="572" cy="979.5" r="32"/>
    <circle class="cls-1" cx="572" cy="1155.5" r="32"/>
    <line class="cls-1" x1="572" y1="1011.5" x2="572" y2="1091.5"/>
    <line class="cls-1" x1="468" y1="875.5" x2="524" y2="931.5"/>
    <line class="cls-1" x1="548" y1="1179.5" x2="492" y2="1235.5"/>
    <g>
      <path class="cls-1" d="M492,1067.5c0,75.1-60.9,136-136,136s-136-60.9-136-136,60.9-136,136-136,136,60.9,136,136Z"/>
      <g>
        <path class="cls-1" d="M324,1027.5v-16c0-8.8,7.2-16,16-16h32c8.8,0,16,7.2,16,16v16"/>
        <rect class="cls-1" x="284" y="1027.5" width="144" height="48" rx="16" ry="16"/>
        <path class="cls-1" d="M420,1107.5v16c0,8.8-7.2,16-16,16h-96c-8.8,0-16-7.2-16-16v-16"/>
        <line class="cls-1" x1="324" y1="1075.5" x2="324" y2="1091.5"/>
        <line class="cls-1" x1="388" y1="1075.5" x2="388" y2="1091.5"/>
      </g>
    </g>
  </g>
  <g id="manager_evaluation" data-name="manager evaluation">
    <g>
      <line class="cls-1" x1="1044" y1="1067.5" x2="1140" y2="1067.5"/>
      <polyline class="cls-1" points="1140 891.5 1092 891.5 1092 1243.5 1140 1243.5"/>
    </g>
    <circle class="cls-1" cx="1244" cy="891.5" r="72"/>
    <g>
      <path class="cls-1" d="M1243.9,1306.4c4,0,8-.4,11.8-1.2l5.2,10.3c11.1-2.7,21.2-8,29.6-15.3l-5.2-10.4c5-4.7,9.3-10.2,12.5-16.4l11.1,2.4c4.4-9.5,7-20.1,7-31.3s0-1.2,0-1.7l-11.2-2.4c-.5-7.1-2.1-13.9-4.7-20.2l8.8-7.3c-4.9-10.3-12.1-19.3-20.9-26.2l-8.9,7.3c-5.5-4-11.8-7-18.4-8.9v-11.6c-5.3-1.3-10.9-2-16.6-2h0c-5.7,0-11.3.7-16.6,2v11.6c-6.7,1.9-12.9,5-18.4,8.9l-8.9-7.3c-8.8,6.9-16,15.9-20.9,26.2l8.8,7.3c-2.6,6.3-4.2,13.1-4.7,20.2l-11.2,2.4c0,.6,0,1.1,0,1.7,0,11.2,2.6,21.8,7,31.3l11.1-2.4c3.2,6.2,7.5,11.7,12.5,16.4l-5.2,10.4c8.4,7.3,18.5,12.6,29.6,15.3l5.2-10.3c3.8.8,7.8,1.2,11.8,1.2h0Z"/>
      <path class="cls-1" d="M1268,1243.5c0,13.2-10.8,24-24,24s-24-10.8-24-24,10.8-24,24-24,24,10.8,24,24Z"/>
    </g>
    <g>
      <path class="cls-1" d="M1244,1075.5l39.2,7.6c18.9,3.2,32.8,19.5,32.8,38.7v17.6h-144v-17.6c0-19.2,13.9-35.6,32.8-38.7l39.2-7.6"/>
      <path class="cls-1" d="M1276,1043.5c0,17.7-14.3,32-32,32s-32-14.3-32-32v-16c0-17.7,14.3-32,32-32s32,14.3,32,32v16Z"/>
    </g>
    <polyline class="cls-1" points="1244 851.5 1244 891.5 1268 891.5"/>
    <g>
      <path class="cls-1" d="M940,995.5c0,22.1-17.9,40-40,40s-40-17.9-40-40v-16c0-22.1,17.9-40,40-40s40,17.9,40,40v16Z"/>
      <line class="cls-1" x1="860" y1="1163.5" x2="860" y2="1179.5"/>
      <line class="cls-1" x1="956" y1="1163.5" x2="956" y2="1179.5"/>
      <path class="cls-1" d="M895.8,1163.5h-48c-9.1,0-16.8-6.7-18-15.8l-9.5-71.4c-2.4-17.9,10.5-34.3,28.5-36.1l46.9-4.7"/>
      <polyline class="cls-1" points="860.3 1083.5 868.3 1131.5 892 1131.5"/>
      <path class="cls-1" d="M971.7,1131.5h-8c-17.7,0-32,14.3-32,32h0s54.3,0,54.3,0c11.8,0,19.6-12.4,14.4-23.1l-4.4-8.9h-24.3Z"/>
      <polyline class="cls-1" points="932.3 1163.5 892 1163.5 916 1067.5 1012 1067.5 1004 1099.3"/>
    </g>
  </g>
  <g id="search_risk_threats_audit_review_analysis" data-name="search risk threats audit review analysis">
    <path class="cls-1" d="M1926.3,1123.4l83,83c25,25,25,65.4,0,90.4h0c-25,25-65.4,25-90.4,0l-83-83"/>
    <path class="cls-1" d="M1739.8,819.5c-114.7,0-207.8,93-207.8,207.8,0,114.7,93,207.8,207.8,207.8s207.8-93.1,207.8-207.8c0-114.8-93.1-207.8-207.8-207.8Z"/>
    <path class="cls-1" d="M1724.2,852c5.1-.4,10.3-.7,15.5-.7"/>
    <path class="cls-1" d="M1563.8,1027.3c0-80.8,54.4-148.8,128.6-169.5"/>
    <g>
      <path class="cls-1" d="M1834.2,1139.3h-188.9c-13,0-21.5-13.7-15.7-25.4l94.4-188.9c6.5-12.9,24.9-12.9,31.4,0l94.4,188.9c5.8,11.7-2.7,25.4-15.7,25.4Z"/>
      <line class="cls-1" x1="1739.8" y1="995.3" x2="1739.8" y2="1059.3"/>
      <circle class="cls-2" cx="1739.8" cy="1091.3" r="8"/>
    </g>
  </g>
  <g id="investment_strategy" data-name="investment strategy">
    <line class="cls-1" x1="2740" y1="1315.5" x2="2548" y2="1315.5"/>
    <path class="cls-1" d="M2644,1091.5h40s0,33.6,0,33.6l34.5,40c3.6,4.1,5.5,9.4,5.5,14.8h0c0,15.5-15.2,26.5-29.9,21.6l-31.1-10.4c-6.5-2.2-10.9-8.3-10.9-15.2v-12.5"/>
    <path class="cls-1" d="M2684,1123.5h-32c-26.5,0-48,21.5-48,48v16"/>
    <line class="cls-1" x1="2604" y1="1171.5" x2="2564" y2="1171.5"/>
    <line class="cls-1" x1="2644" y1="1123.5" x2="2644" y2="1091.5"/>
    <line class="cls-1" x1="2612" y1="1136.3" x2="2590.2" y2="1114.5"/>
    <g>
      <path class="cls-1" d="M2628,1059.5v-160l-80-80h-288c-8.8,0-16,7.2-16,16v464c0,8.8,7.2,16,16,16h256"/>
      <path class="cls-1" d="M2540,859.5v24c0,8.8,7.2,16,16,16h72"/>
    </g>
    <path class="cls-1" d="M2644,1091.5c-44.2,0-80,35.8-80,80v4.9c0,26,15.8,49.4,40,59.1h0c0,31.1-21.5,45.5-24,48h128c-2.5-2.5-24-16.9-24-48v-32"/>
    <rect class="cls-1" x="2324" y="947.5" width="176" height="64" rx="16" ry="16"/>
    <rect class="cls-1" x="2372" y="1059.5" width="128" height="64" rx="16" ry="16"/>
    <rect class="cls-1" x="2372" y="1171.5" width="128" height="64" rx="16" ry="16"/>
    <polyline class="cls-1" points="2532 979.5 2548 979.5 2548 1091.5 2500 1091.5"/>
    <polyline class="cls-1" points="2340 1091.5 2324 1091.5 2324 1203.5 2372 1203.5"/>
  </g>
  <g id="control_monitoring_review_tracking" data-name="control monitoring review tracking">
    <rect class="cls-1" x="3228" y="819.5" width="112" height="496"/>
    <polyline class="cls-1" points="3228 979.5 3116 979.5 3116 1075.5"/>
    <polyline class="cls-1" points="3340 899.5 3452 899.5 3452 1315.5 3340 1315.5"/>
    <g>
      <path class="cls-1" d="M3162.4,1316.5h-188.9c-13,0-21.5-13.7-15.7-25.4l94.4-188.9c6.5-12.9,24.9-12.9,31.4,0l94.4,188.9c5.8,11.7-2.7,25.4-15.7,25.4Z"/>
      <line class="cls-1" x1="3068" y1="1172.5" x2="3068" y2="1236.5"/>
      <circle class="cls-2" cx="3068" cy="1268.5" r="8"/>
    </g>
  </g>
  <g id="continuity_risk" data-name="continuity risk">
    <path class="cls-1" d="M3924,1051.5c0,13.2-10.8,24-24,24s-24-10.8-24-24,10.8-24,24-24,24,10.8,24,24Z"/>
    <line class="cls-1" x1="3876" y1="1051.5" x2="3796" y2="1051.5"/>
    <line class="cls-1" x1="3900" y1="883.5" x2="3900" y2="1027.5"/>
    <path class="cls-1" d="M3907.8,1283.4c-2.6,0-5.2.1-7.8.1-128.1,0-232-103.9-232-232s103.9-232,232-232,232,103.9,232,232-4,49.3-11.4,72"/>
    <g>
      <path class="cls-1" d="M4146.4,1315.5h-188.9c-13,0-21.5-13.7-15.7-25.4l94.4-188.9c6.5-12.9,24.9-12.9,31.4,0l94.4,188.9c5.8,11.7-2.7,25.4-15.7,25.4Z"/>
      <line class="cls-1" x1="4052" y1="1171.5" x2="4052" y2="1235.5"/>
      <circle class="cls-2" cx="4052" cy="1267.5" r="8"/>
    </g>
  </g>
  <g id="reduce_mitigate_risk" data-name="reduce mitigate risk">
    <g id="alert">
      <path class="cls-1" d="M4827.7,1171.5h-175.4c-12.1,0-20-12.7-14.6-23.6l87.7-175.4c6-12,23.1-12,29.1,0l87.7,175.4c5.4,10.8-2.5,23.6-14.6,23.6Z"/>
      <line class="cls-1" x1="4740" y1="1035.5" x2="4740" y2="1099.5"/>
      <circle class="cls-2" cx="4740" cy="1131.5" r="8"/>
    </g>
    <path class="cls-1" d="M4580,883.4h136c13.3,0,24,10.7,24,24h0c0,13.2-10.7,24-24,24h-88c-40,48-144,48-144,48h-24c-44.2.1-80-35.7-80-79.9s35.8-80,80-80l252.4,15.3c7.7.5,15.3,2,22.5,4.7l127.3,46.3c12,5.6,17.2,19.9,11.6,31.9h0c-5.6,12-19.9,17.2-31.9,11.6l-121-45.9"/>
    <path class="cls-1" d="M4580,1251.6h136c13.3,0,24-10.7,24-24h0c0-13.2-10.7-24-24-24h-88c-40-48-144-48-144-48h-24c-44.2-.1-80,35.7-80,79.9s35.8,80,80,80l252.4-15.3c7.7-.5,15.3-2,22.5-4.7l127.3-46.3c12-5.6,17.2-19.9,11.6-31.9h0c-5.6-12-19.9-17.2-31.9-11.6l-121,45.9"/>
    <g>
      <line class="cls-1" x1="4556" y1="971.5" x2="4556" y2="1051.5"/>
      <polyline class="cls-1" points="4524 1019.5 4556 1051.5 4588 1019.5"/>
      <line class="cls-1" x1="4556" y1="1163.5" x2="4556" y2="1083.5"/>
      <polyline class="cls-1" points="4524 1115.5 4556 1083.5 4588 1115.5"/>
    </g>
  </g>
  <g id="accept_risk" data-name="accept risk">
    <g id="thumbs_up_-_agreement_-_like" data-name="thumbs up - agreement - like">
      <path class="cls-1" d="M5332,1171.5h-147.8c-50.9,0-92.2-41.3-92.2-92.2v-30c0-31,18.8-59,47.5-70.7h0c47.9-19.6,80.5-66.3,80.5-118.1v-23.8c0-9.5,7.7-17.3,17.3-17.3h0c23.3,0,41.8,20.5,38.7,43.6-2,14.7-8,31.8-8,49v44.4c0,12.7,10.3,23,23,23h41s16,0,16,0c13.3,0,24,10.7,24,24s-10.7,24-24,24"/>
      <path class="cls-1" d="M5332,1075.5h24c13.3,0,24-10.7,24-24s-10.7-24-24-24h-24"/>
      <path class="cls-1" d="M5348,1075.5c13.3,0,24,10.7,24,24s-10.7,24-24,24h-16"/>
      <path class="cls-1" d="M5332,1123.5c13.3,0,24,10.7,24,24s-10.7,24-24,24"/>
    </g>
    <g>
      <path class="cls-1" d="M5405.6,1009.4c9.2-18.5,35.6-18.5,44.8,0l134.9,269.9c8.3,16.7-3.8,36.3-22.4,36.3h-269.8c-18.6,0-30.8-19.6-22.4-36.3l38.4-76.8"/>
      <line class="cls-1" x1="5428" y1="1091.5" x2="5428" y2="1219.5"/>
      <circle class="cls-2" cx="5428" cy="1251.5" r="8"/>
    </g>
  </g>
  <g id="economic_risk" data-name="economic risk">
    <g>
      <path class="cls-1" d="M347.2,2024.5c-16.6,2.4-35,3.5-55.3,3.5h0c-133.8,0-184-51.3-184-153.9s88.5-220,135.9-254.1h96"/>
      <path class="cls-1" d="M339.9,1620h36.1c12.7,0,24.9-5.1,33.9-14.1l1.9-1.9"/>
      <polyline class="cls-1" points="243.9 1620 211.9 1532 291.9 1548 363.9 1548 347.9 1588"/>
      <g>
        <path class="cls-1" d="M307.9,1772s-11.4-16-32-16-32.1,12.6-32,24c.1,13.1,12.2,20.6,32,24,20.1,3.5,40,9.1,40,32s-17.3,32-40,32-40-16-40-40"/>
        <line class="cls-1" x1="275.9" y1="1740" x2="275.9" y2="1756"/>
        <line class="cls-1" x1="275.9" y1="1868" x2="275.9" y2="1884"/>
      </g>
      <path class="cls-1" d="M452.5,1788.5c-29.6-68.6-80.3-145.5-112.3-168.5"/>
    </g>
    <g>
      <path class="cls-1" d="M586.4,2028h-188.9c-13,0-21.5-13.7-15.7-25.4l94.4-188.9c6.5-12.9,24.9-12.9,31.4,0l94.4,188.9c5.8,11.7-2.7,25.4-15.7,25.4Z"/>
      <line class="cls-1" x1="492" y1="1884" x2="492" y2="1948"/>
      <circle class="cls-2" cx="492" cy="1980" r="8"/>
    </g>
  </g>
  <g id="shark_-_competitors_risk" data-name="shark - competitors risk">
    <path class="cls-1" d="M1279.9,1852c-29.9-252.6-211.9-320-211.9-320,0,0-216,80-216,392"/>
    <g>
      <path class="cls-1" d="M890.9,1940c-10.3,18-21.7,24-35.4,24s-26.3-6-35.4-24"/>
      <path class="cls-1" d="M961.7,1940c-10.3,18-21.7,24-35.4,24s-26.3-6-35.4-24"/>
      <path class="cls-1" d="M1032.6,1940c-10.3,18-21.7,24-35.4,24s-26.3-6-35.4-24"/>
      <path class="cls-1" d="M1068,1964c-14.9,0-26.3-6-35.4-24"/>
    </g>
    <path class="cls-1" d="M1192.1,1772.2c-22-40.1-60-80.2-124.1-80.2-128,0-152,160-152,160,0,0,56-72,152-72,35.2,0,64.3,11.7,88,24"/>
    <polyline class="cls-1" points="1044 1700 1068 1740 1092 1700"/>
    <polyline class="cls-1" points="988 1724 1012 1756 1044 1700"/>
    <polyline class="cls-1" points="1148 1724 1124 1756 1092 1700"/>
    <g>
      <path class="cls-1" d="M1298.4,2028h-188.9c-13,0-21.5-13.7-15.7-25.4l94.4-188.9c6.5-12.9,24.9-12.9,31.4,0l94.4,188.9c5.8,11.7-2.7,25.4-15.7,25.4Z"/>
      <line class="cls-1" x1="1204" y1="1884" x2="1204" y2="1948"/>
      <circle class="cls-2" cx="1204" cy="1980" r="8"/>
    </g>
  </g>
  <g id="piggy_bank_bankruptcy_financial_crisis" data-name="piggy bank bankruptcy financial crisis">
    <path class="cls-1" d="M2004,1612c0,13.3-10.7,24-24,24s-24-10.7-24-24,10.7-24,24-24,24,10.8,24,24Z"/>
    <path class="cls-1" d="M1980,1636c40,0,48-24,48-24"/>
    <path class="cls-1" d="M1948,1684s56-8,56-72"/>
    <path class="cls-1" d="M1944.5,1771.8c2.3-12.5,3.5-25.9,3.5-40.4,0-48.3-13.3-85.2-35.8-112-11.5-13.8-26.7-24.1-43.3-31-.6-.3-1-.4-1-.4l-48,40,40,72-96,112,40-96-80-72,40-80c-19.3,0-38.5,4.2-56,8-16-32-46.5-40-80-40v72c-21.7,20.1-37.4,49.9-44.1,85.1l-51.9-7.4,16,98.3h37.7c10.2,43,34,74.5,66.3,93.9l8,58.1h64l8-32.7c10.4,1.2,21.1,1.9,32,1.9s21.6-.7,32-1.9l8,32.7"/>
    <g>
      <path class="cls-1" d="M2010.4,2028h-188.9c-13,0-21.5-13.7-15.7-25.4l94.4-188.9c6.5-12.9,24.9-12.9,31.4,0l94.4,188.9c5.8,11.7-2.7,25.4-15.7,25.4Z"/>
      <line class="cls-1" x1="1916" y1="1884" x2="1916" y2="1948"/>
      <circle class="cls-2" cx="1916" cy="1980" r="8"/>
    </g>
  </g>
  <g id="Operational_risk" data-name="Operational risk">
    <path class="cls-1" d="M2686.8,1804c3.4-15.5,5.2-31.5,5.2-48s-1.8-32.5-5.2-48h-32.8c-4.5-17.6-11.5-34.2-20.6-49.5l23.2-23.2c-17.5-27.2-40.7-50.4-67.9-67.9l-23.2,23.2c-15.3-9-31.9-16-49.5-20.6v-32.8c-15.5-3.4-31.5-5.2-48-5.2-16.5,0-32.5,1.8-48,5.2v32.8c-17.6,4.5-34.2,11.5-49.5,20.6l-23.2-23.2c-27.2,17.5-50.4,40.7-67.9,67.9l23.2,23.2c-9,15.3-16,31.9-20.6,49.5h-32.8c-3.4,15.5-5.2,31.5-5.2,48s1.8,32.5,5.2,48h32.8c4.5,17.6,11.5,34.2,20.6,49.5l-23.2,23.2c17.5,27.2,40.7,50.4,67.9,67.9l23.2-23.2c15.3,9,31.9,16,49.5,20.6v32.8c15.5,3.4,31.5,5.2,48,5.2,8.1,0,16.1-.4,24-1.3"/>
    <circle class="cls-1" cx="2468" cy="1756" r="48"/>
    <g>
      <path class="cls-1" d="M2722.4,2028h-188.9c-13,0-21.5-13.7-15.7-25.4l94.4-188.9c6.5-12.9,24.9-12.9,31.4,0l94.4,188.9c5.8,11.7-2.7,25.4-15.7,25.4Z"/>
      <line class="cls-1" x1="2628" y1="1884" x2="2628" y2="1948"/>
      <circle class="cls-2" cx="2628" cy="1980" r="8"/>
    </g>
  </g>
  <g id="Reputational_risk" data-name="Reputational risk">
    <g>
      <path class="cls-1" d="M3068,1668c0,75.1,60.9,136,136,136s136-60.9,136-136-60.9-136-136-136-136,60.9-136,136Z"/>
      <path class="cls-1" d="M3132,1668.6c0,39.7,32.3,72,72,72s72-32.3,72-72"/>
      <line class="cls-1" x1="3244" y1="1604" x2="3244" y2="1620"/>
      <line class="cls-1" x1="3164" y1="1604" x2="3164" y2="1620"/>
    </g>
    <g>
      <path class="cls-1" d="M3068,1758.1c-63.7,11.3-112,67-112,133.9,0,75.1,60.9,136,136,136s136-60.9,136-136c0-20-4.3-38.9-12-56"/>
      <path class="cls-1" d="M3164,1948c0-19.2-32.3-48-72-48s-72,28.8-72,48"/>
      <line class="cls-1" x1="3140" y1="1836" x2="3124" y2="1836"/>
      <line class="cls-1" x1="3060" y1="1836" x2="3044" y2="1836"/>
    </g>
    <g>
      <path class="cls-1" d="M3434.4,2028h-188.9c-13,0-21.5-13.7-15.7-25.4l94.4-188.9c6.5-12.9,24.9-12.9,31.4,0l94.4,188.9c5.8,11.7-2.7,25.4-15.7,25.4Z"/>
      <line class="cls-1" x1="3340" y1="1884" x2="3340" y2="1948"/>
      <circle class="cls-2" cx="3340" cy="1980" r="8"/>
    </g>
  </g>
  <g id="legal_risk" data-name="legal risk">
    <g id="legal_document" data-name="legal document">
      <g>
        <line class="cls-1" x1="3860" y1="1660" x2="3860" y2="1684"/>
        <path class="cls-1" d="M3812,1788c0,22.1-13.5,32-40,32s-40-9.9-40-32h48"/>
        <polyline class="cls-1" points="3732 1788 3772 1692 3812 1788"/>
        <path class="cls-1" d="M3988,1788c0,22.1-13.5,32-40,32s-40-9.9-40-32h48"/>
        <polyline class="cls-1" points="3908 1788 3948 1692 3988 1788"/>
        <line class="cls-1" x1="3796" y1="1884" x2="3940" y2="1884"/>
        <path class="cls-1" d="M3748,1692h64c16,0,32-24,48-8"/>
        <path class="cls-1" d="M3972,1692h-64c-16,0-32-24-48-8"/>
        <line class="cls-1" x1="3860" y1="1716" x2="3860" y2="1852"/>
      </g>
    </g>
    <path class="cls-1" d="M4052,1771.9v-223.9c0-8.8-7.2-16-16-16h-352c-8.8,0-16,7.2-16,16v391.9s88,88,88,88h152"/>
    <path class="cls-1" d="M3668,1940h72c8.8,0,16,7.2,16,16v24"/>
    <g>
      <path class="cls-1" d="M4146.4,2028h-188.9c-13,0-21.5-13.7-15.7-25.4l94.4-188.9c6.5-12.9,24.9-12.9,31.4,0l94.4,188.9c5.8,11.7-2.7,25.4-15.7,25.4Z"/>
      <line class="cls-1" x1="4052" y1="1884" x2="4052" y2="1948"/>
      <circle class="cls-2" cx="4052" cy="1980" r="8"/>
    </g>
  </g>
  <g id="transfer_share_risk" data-name="transfer share risk">
    <path class="cls-1" d="M4420,1916v-16c0-8.8,7.2-16,16-16h32c8.8,0,16,7.2,16,16v16"/>
    <rect class="cls-1" x="4380" y="1916" width="144" height="48" rx="16" ry="16"/>
    <path class="cls-1" d="M4516,1996v16c0,8.8-7.2,16-16,16h-96c-8.8,0-16-7.2-16-16v-16"/>
    <line class="cls-1" x1="4420" y1="1964" x2="4420" y2="1980"/>
    <line class="cls-1" x1="4484" y1="1964" x2="4484" y2="1980"/>
    <path class="cls-1" d="M4596,1916v-16c0-8.8,7.2-16,16-16h32c8.8,0,16,7.2,16,16v16"/>
    <rect class="cls-1" x="4556" y="1916" width="144" height="48" rx="16" ry="16"/>
    <path class="cls-1" d="M4692,1996v16c0,8.8-7.2,16-16,16h-96c-8.8,0-16-7.2-16-16v-16"/>
    <line class="cls-1" x1="4596" y1="1964" x2="4596" y2="1980"/>
    <line class="cls-1" x1="4660" y1="1964" x2="4660" y2="1980"/>
    <path class="cls-1" d="M4772,1916v-16c0-8.8,7.2-16,16-16h32c8.8,0,16,7.2,16,16v16"/>
    <rect class="cls-1" x="4732" y="1916" width="144" height="48" rx="16" ry="16"/>
    <path class="cls-1" d="M4868,1996v16c0,8.8-7.2,16-16,16h-96c-8.8,0-16-7.2-16-16v-16"/>
    <line class="cls-1" x1="4772" y1="1964" x2="4772" y2="1980"/>
    <line class="cls-1" x1="4836" y1="1964" x2="4836" y2="1980"/>
    <line class="cls-1" x1="4628" y1="1788" x2="4628" y2="1852"/>
    <polyline class="cls-1" points="4452 1852 4452 1820 4804 1820 4804 1852"/>
    <g>
      <path class="cls-1" d="M4722.4,1756h-188.9c-13,0-21.5-13.7-15.7-25.4l94.4-188.9c6.5-12.9,24.9-12.9,31.4,0l94.4,188.9c5.8,11.7-2.7,25.4-15.7,25.4Z"/>
      <line class="cls-1" x1="4628" y1="1612" x2="4628" y2="1676"/>
      <circle class="cls-2" cx="4628" cy="1708" r="8"/>
    </g>
  </g>
  <g id="avoid_risk" data-name="avoid risk">
    <path class="cls-1" d="M5450.9,2028h-269.8c-18.6,0-30.8-19.6-22.4-36.3l134.9-269.9c9.2-18.5,35.6-18.5,44.8,0l134.9,269.9c8.3,16.7-3.8,36.3-22.4,36.3Z"/>
    <line class="cls-1" x1="5316" y1="1804" x2="5316" y2="1932"/>
    <circle class="cls-2" cx="5316" cy="1964" r="8"/>
    <path class="cls-1" d="M5092,1716h40c0-101.6,82.4-184,184-184s184,82.4,184,184h32v-32l56,56-56,56v-32h-80v-48c0-75.1-60.9-136-136-136s-136,60.9-136,136v48h-88"/>
  </g>
</svg>