<?xml version="1.0" encoding="utf-8"?>
<!-- Generator: Adobe Illustrator 21.0.0, SVG Export Plug-In . SVG Version: 6.00 Build 0)  -->
<svg version="1.1" id="Capa_1" xmlns="http://www.w3.org/2000/svg" xmlns:xlink="http://www.w3.org/1999/xlink" x="0px" y="0px"
	 viewBox="0 0 8120 1624" style="enable-background:new 0 0 8120 1624;" xml:space="preserve">
<style type="text/css">
	.st0{fill:none;stroke:#303030;stroke-width:16;stroke-linecap:round;stroke-linejoin:round;stroke-miterlimit:10;}
	.st1{fill:none;stroke:#303030;stroke-width:16;stroke-linejoin:round;stroke-miterlimit:10;}
</style>
<g id="mailing_x2F_messaging_x2F_email_3_">
	<polyline class="st0" points="7522,1234 7522,1026 7906,1026 7906,1234 	"/>
	<g>
		<path class="st0" d="M7466,1266l227.1,109.9c13.2,6.4,28.6,6.4,41.8,0L7962,1266"/>
		<path class="st0" d="M7522,1080l-55.7,34h-0.3v320c0,17.7,14.3,32,32,32h432c17.7,0,32-14.3,32-32v-320h-0.3l-55.7-34"/>
		<path class="st0" d="M7609,1026l80-48.9c15.4-9.4,34.7-9.4,50.1,0l80,48.9"/>
	</g>
	<g>
		<path class="st0" d="M7746,1138v73.6c0.5,30.2,72.1,48.6,72.3-33.6c0-1.3,0-2.6,0-3.9c-1-42.6-33.7-80.3-77.8-89.7
			c-45.4-9.7-94.6,10.5-116.7,51.9c-23.9,44.8-16.5,106.5,25.9,137.5c24,17.5,54.6,24.5,84.4,24.2"/>
		<path class="st0" d="M7746,1146.3c-14.3-4.6-33.5-5.5-47.3,0.4c-25.7,10.9-35.8,40-28.8,62.8c3.6,11.6,13.3,22.2,26.5,25.9
			c26.6,7.5,41.7-5.9,49.3-22.6"/>
	</g>
</g>
<g id="share">
	<g>
		<path class="st0" d="M7002.4,1374.5l113.4-51.4c12-5.6,26.3-0.4,31.9,11.6l0,0c5.6,12,0.4,26.3-11.6,31.9l-175.8,88
			c-6.4,3.2-13.6,4.2-20.6,2.8L6750,1418h-32"/>
		<path class="st0" d="M6878,1378h112c13.2,0,24-10.7,24-24l0,0c0-13.2-10.8-24-24-24h-88c-48-56-152-24-152-24h-32"/>
		<polyline class="st0" points="6654,1282 6718,1282 6718,1442 6654,1442 		"/>
	</g>
	<g>
		<path class="st0" d="M6824,1086.5c6.7-2.9,14.2-4.5,22-4.5c30.9,0,56,25.1,56,56s-25.1,56-56,56s-56-25.1-56-56
			c0-7.5,1.5-14.7,4.2-21.2"/>
		<circle class="st0" cx="7030" cy="1034" r="56"/>
		<circle class="st0" cx="7030" cy="1242" r="56"/>
		<line class="st0" x1="6894.7" y1="1165.5" x2="6981.3" y2="1214.5"/>
		<line class="st0" x1="6894.7" y1="1110.5" x2="6981.3" y2="1061.5"/>
	</g>
</g>
<g id="streaming">
	<g>
		<g>
			<polyline class="st0" points="6338,1322 6282,1322 6282,1418 			"/>
			<line class="st0" x1="6314" y1="1418" x2="6338" y2="1418"/>
			<line class="st0" x1="6282" y1="1370" x2="6314" y2="1370"/>
		</g>
		<polyline class="st0" points="6066,1322 6066,1418 6114,1418 		"/>
		<line class="st0" x1="6146" y1="1322" x2="6146" y2="1418"/>
		<polyline class="st0" points="6178,1322 6214,1418 6250,1322 		"/>
	</g>
	<g>
		<polygon class="st0" points="5970,1166 5970,1318 6098,1242 		"/>
		<path class="st0" d="M6018,1418c-97.2,0-176-78.8-176-176s78.8-176,176-176s176,78.8,176,176"/>
		<path class="st0" d="M6018,1114c70.7,0,128,57.3,128,128"/>
		<path class="st0" d="M6018,1018c123.7,0,224,100.3,224,224"/>
	</g>
</g>
<g id="media">
	<g>
		<g>
			<path class="st0" d="M5230,1282h64l120-88v256l-120-80h-64c-8.8,0-16-7.2-16-16v-56C5214,1289.2,5221.2,1282,5230,1282z"/>
			<line class="st0" x1="5294" y1="1330" x2="5294" y2="1370"/>
		</g>
		<g>
			<path class="st0" d="M5491.1,1411.1c21.5-20.4,34.9-49.2,34.9-81.1c0-34-15.2-64.4-39.1-84.9"/>
			<path class="st0" d="M5451.5,1371.5c11.3-10.2,18.5-25,18.5-41.5c0-18.5-9-34.9-22.9-45.1"/>
		</g>
	</g>
	<g id="_x3C_Grupo_x3E__403_">
		<g>
			<path class="st0" d="M5318,1058c0,8.8-7.2,16-16,16h-64c-8.8,0-16-7.2-16-16v-56c0-8.8,7.2-16,16-16h64c8.8,0,16,7.2,16,16"/>
			<path class="st0" d="M5126,1002c0-8.8,7.2-16,16-16h64c8.8,0,16,7.2,16,16v56c0,8.8-7.2,16-16,16h-64c-8.8,0-16-7.2-16-16"/>
			<path class="st0" d="M5318,1058c0,8.8,7.2,16,16,16h64c8.8,0,16-7.2,16-16v-56c0-8.8-7.2-16-16-16h-64c-8.8,0-16,7.2-16,16V1058z
				"/>
			<path class="st0" d="M5110,986h-64c-8.8,0-16,7.2-16,16v56c0,8.8,7.2,16,16,16h64c8.8,0,16-7.2,16-16v-56
				C5126,993.2,5118.8,986,5110,986z"/>
		</g>
		<polygon class="st0" points="5270,1178 5190,1130 5190,1226 		"/>
		<g>
			<path class="st0" d="M5150,1282h-8c-8.8,0-16,7.2-16,16"/>
			<path class="st0" d="M5126,1354c0,8.8,7.2,16,16,16h8"/>
			<path class="st0" d="M5126,1354c0,8.8-7.2,16-16,16h-64c-8.8,0-16-7.2-16-16v-56c0-8.8,7.2-16,16-16h64c8.8,0,16,7.2,16,16V1354z
				"/>
		</g>
		<line class="st0" x1="5414" y1="1050" x2="5414" y2="1130"/>
		<line class="st0" x1="5030" y1="1122" x2="5030" y2="1306"/>
	</g>
</g>
<g id="social_x2F_group">
	<g>
		<g id="_x3C_Grupo_x3E__176_">
			<path class="st0" d="M4362,1402c0,0-16,8-40,8s-40-8-40-8l-40,16c-10.1,4.7-19.7,17.1-24,24"/>
			<path class="st0" d="M4346,1370c22.3-14.9,20.2-24.4,22.9-46c1.4-11.7,1.9-24.2-3.8-34.9c-5.2-9.8-14.6-16.6-25-20.1
				c-5.7-1.9-11.9-3-18.1-3c-6.3,0-12.5,1-18.1,3c-10.3,3.5-19.8,10.3-25,20.1c-5.6,10.7-5.2,23.3-3.8,34.9
				c2.6,21.6,0.6,31.2,22.9,46"/>
		</g>
		<g id="_x3C_Grupo_x3E__175_">
			<path class="st0" d="M4570,1466c-4.3-6.9-13.9-19.3-24-24l-40-16c0,0-16,8-40,8s-40-8-40-8l-40,16c-10.1,4.7-19.7,17.1-24,24"/>
			<path class="st0" d="M4490,1394c22.3-14.9,20.2-24.4,22.9-46c1.4-11.7,1.9-24.2-3.8-34.9c-5.2-9.8-14.6-16.6-25-20.1
				c-5.7-1.9-11.9-3-18.1-3c-6.3,0-12.5,1-18.1,3c-10.3,3.5-19.8,10.3-25,20.1c-5.6,10.7-5.2,23.3-3.8,34.9
				c2.6,21.6,0.6,31.2,22.9,46"/>
		</g>
		<g id="_x3C_Grupo_x3E__174_">
			<path class="st0" d="M4714,1442c-4.3-6.9-13.9-19.3-24-24l-40-16c0,0-16,8-40,8s-40-8-40-8"/>
			<path class="st0" d="M4634,1370c22.3-14.9,20.2-24.4,22.9-46c1.4-11.7,1.9-24.2-3.8-34.9c-5.2-9.8-14.6-16.6-25-20.1
				c-5.7-1.9-11.9-3-18.1-3c-6.3,0-12.5,1-18.1,3c-10.3,3.5-19.8,10.3-25,20.1c-5.6,10.7-5.2,23.3-3.8,34.9
				c2.6,21.6,0.6,31.2,22.9,46"/>
		</g>
	</g>
	<path class="st0" d="M4682,1170h-48l-24,56l-48-56h-56l-40,56l-40-56h-56l-48,56l-24-56h-48c-8.8,0-16-7.2-16-16V986
		c0-8.8,7.2-16,16-16h432c8.8,0,16,7.2,16,16v168C4698,1162.8,4690.8,1170,4682,1170z"/>
	<g>
		<circle class="st0" cx="4466" cy="1074" r="8"/>
		<circle class="st0" cx="4562" cy="1074" r="8"/>
		<circle class="st0" cx="4370" cy="1074" r="8"/>
	</g>
</g>
<g id="content_development_x2F_branding">
	<g>
		<polyline class="st0" points="3534,1338 3534,1290 3758,1290 3758,1466 3534,1466 		"/>
		<polyline class="st0" points="3526,1418 3598,1354 3670,1426 		"/>
		<polyline class="st0" points="3654,1410 3686,1378 3758,1450 		"/>
		<circle class="st0" cx="3710" cy="1338" r="8"/>
	</g>
	<g>
		<path class="st0" d="M3806,1450c42.6,0,79.2,0,88,0c4.4,0,8-3.6,8-8v-264l-96-88h-144c-4.4,0-8,3.6-8,8c0,0,0,60.6,0,144"/>
		<path class="st0" d="M3902,1178h-80c-4.4,0-8-3.6-8-8v-16"/>
		<line class="st0" x1="3726" y1="1234" x2="3830" y2="1234"/>
		<line class="st0" x1="3806" y1="1290" x2="3830" y2="1290"/>
	</g>
	<g id="_x3C_Grupo_x3E__160_">
		<path class="st0" d="M3528.2,1242c-1.5-7.8-2.2-15.8-2.2-24c0-53.7,33.1-99.7,80-118.7"/>
		<path class="st0" d="M3852,1087.9c6.2-6.2,6.2-16.4,0-22.6l-45.3-45.3c-6.2-6.2-16.4-6.2-22.6,0l-8,8c-4.6,4.6-11.5,5.9-17.4,3.5
			l-46.8-19.4c-6-2.5-9.9-8.3-9.9-14.8V986c0-8.8-7.2-16-16-16h-64c-8.8,0-16,7.2-16,16v11.3c0,6.5-3.9,12.3-9.9,14.8l-46.8,19.4
			c-6,2.5-12.9,1.1-17.4-3.5l-8-8c-6.2-6.2-16.4-6.2-22.6,0l-45.3,45.3c-6.2,6.2-6.2,16.4,0,22.6l8,8c4.6,4.6,5.9,11.5,3.5,17.4
			l-19.4,46.8c-2.5,6-8.3,9.9-14.8,9.9H3422c-8.8,0-16,7.2-16,16v64c0,8.8,7.2,16,16,16h11.3c6.5,0,12.3,3.9,14.8,9.9l19.4,46.8
			c2.5,6,1.1,12.9-3.5,17.4l-8,8c-6.2,6.2-6.2,16.4,0,22.6l45.3,45.3c6.2,6.2,18.5,8.3,24.7,2"/>
	</g>
</g>
<g id="contents">
	<g>
		<path class="st0" d="M2826,1310l69-20.6l183.4-148.3c13.5-10.8,15.5-30.6,4.4-44l0,0c-10.9-13.1-30.4-14.9-43.6-4L2863,1241.4
			L2826,1310z"/>
		<line class="st0" x1="3052.3" y1="1162.2" x2="3035" y2="1140.5"/>
	</g>
	<g>
		<line class="st0" x1="2733.5" y1="1344.2" x2="2629.6" y2="1362.2"/>
		<path class="st0" d="M2632.5,1427.6l-38.5,6.4v-32c0-22,18-40,40-40l0,0c22,0,40,18,40,40v24c0,22,18,40,40,40l0,0
			c22,0,40-18,40-40v-12.2c0-23.4-6.4-46.3-18.5-66.3L2623,1161.8c-18.9-31.3-29-67.1-29-103.7v-8.1c0-22,18-40,40-40l0,0
			c22,0,40,18,40,40v16l240-40v-16c0-22-18-40-40-40l0,0l-240,40"/>
		<g>
			<line class="st0" x1="2698" y1="1154" x2="2818" y2="1130"/>
			<line class="st0" x1="2730" y1="1202" x2="2842" y2="1178"/>
			<line class="st0" x1="2762" y1="1250" x2="2802" y2="1242"/>
		</g>
		<path class="st0" d="M2978,1282.4l5.5,9c12.1,20,18.5,43,18.5,66.3v0c0,21.3-14.4,39.9-35.1,45.2l-244.1,62"/>
		<path class="st0" d="M2845.3,1037.5c4.3,24.1,12.9,47.3,25.7,68.3l29.2,48.2"/>
	</g>
</g>
<g id="apps_development">
	<g>
		<path class="st0" d="M2094,1418v16c0,17.7-14.3,32-32,32h-248c-17.7,0-32-14.3-32-32v-432c0-17.7,14.3-32,32-32h248
			c17.7,0,32,14.3,32,32v184"/>
		<line class="st0" x1="1918" y1="1418" x2="1974" y2="1418"/>
		<g>
			<path class="st0" d="M1846,1098v-48c0-8.8,7.2-16,16-16h48"/>
			<path class="st0" d="M1846,1210v-48c0-8.8,7.2-16,16-16h48"/>
			<path class="st0" d="M1846,1322v-48c0-8.8,7.2-16,16-16h48"/>
			<path class="st0" d="M1966,1098v-48c0-8.8,7.2-16,16-16h48"/>
			<path class="st0" d="M1966,1210v-48c0-8.8,7.2-16,16-16h48"/>
			<path class="st0" d="M1966,1322v-48c0-8.8,7.2-16,16-16h48"/>
		</g>
	</g>
	<g>
		<path class="st0" d="M1846,1370h280c4.4,0,8-3.6,8-8v-11.4c0-3.2,1.9-6.2,4.9-7.4l42.5-17.6c3-1.2,6.4-0.6,8.7,1.7l8.1,8.1
			c3.1,3.1,8.2,3.1,11.3,0l33.9-33.9c3.1-3.1,3.1-8.2,0-11.3l-8.1-8.1c-2.3-2.3-3-5.7-1.7-8.7l17.6-42.5c1.2-3,4.2-4.9,7.4-4.9h11.4
			c4.4,0,8-3.6,8-8v-48c0-4.4-3.6-8-8-8h-11.4c-3.2,0-6.2-1.9-7.4-4.9l-17.6-42.5c-1.2-3-0.6-6.4,1.7-8.7l8.1-8.1
			c3.1-3.1,3.1-8.2,0-11.3l-33.9-33.9c-3.1-3.1-8.2-3.1-11.3,0l-8.1,8.1c-2.3,2.3-5.7,3-8.7,1.7l-42.5-17.6c-3-1.2-4.9-4.2-4.9-7.4
			V1026c0-4.4-3.6-8-8-8h-32"/>
		<path class="st0" d="M2110,1274c44.2,0,80-35.8,80-80s-35.8-80-80-80h-16"/>
	</g>
</g>
<g id="chats_x2F_communication">
	<path class="st0" d="M1050,1266h304c17.7,0,32-14.3,32-32v-232c0-17.7-14.3-32-32-32h-352c-17.7,0-32,14.3-32,32v368l112-104"/>
	<g>
		<path class="st0" d="M1434,1146h8c13.3,0,24,10.7,24,24v296l-88-80h-240c-13.3,0-24-10.7-24-24v-48"/>
		<line class="st0" x1="1402" y1="1386" x2="1378" y2="1386"/>
	</g>
	<g>
		<circle class="st0" cx="1178" cy="1122" r="8"/>
		<circle class="st0" cx="1274" cy="1122" r="8"/>
		<circle class="st0" cx="1082" cy="1122" r="8"/>
	</g>
</g>
<g id="favorite">
	<g>
		<path class="st0" d="M506.4,1382.5l113.4-51.4c12-5.6,26.3-0.4,31.9,11.6l0,0c5.6,12,0.4,26.3-11.6,31.9l-175.8,88
			c-6.4,3.2-13.6,4.2-20.6,2.8L254,1426h-32"/>
		<path class="st0" d="M382,1386h112c13.2,0,24-10.7,24-24l0,0c0-13.2-10.8-24-24-24h-88c-48-56-152-24-152-24h-32"/>
		<polyline class="st0" points="158,1290 222,1290 222,1450 158,1450 		"/>
	</g>
	<polygon class="st0" points="486,970 531.6,1066.9 637.8,1080.3 559.8,1153.6 579.8,1258.7 486,1207.2 392.2,1258.7 412.2,1153.6 
		334.2,1080.3 440.4,1066.9 	"/>
</g>
<g id="blogging_1_">
	<path class="st0" d="M7706,478h-127.6l-90.7,90.8c-5,5-13.7,1.5-13.7-5.7V190c0-17.7,14.3-32,32-32h384c17.7,0,32,14.3,32,32v256
		c0,17.7-14.3,32-32,32"/>
	<g>
		<circle class="st0" cx="7698" cy="318" r="8"/>
		<circle class="st0" cx="7794" cy="318" r="8"/>
		<circle class="st0" cx="7602" cy="318" r="8"/>
	</g>
	<g>
		<path class="st0" d="M7730,390l20.6,69l148.3,183.4c10.8,13.5,30.6,15.5,44,4.4l0,0c13.1-10.9,14.9-30.4,4-43.6L7798.6,427
			L7730,390z"/>
		<line class="st0" x1="7876.9" y1="615.2" x2="7898" y2="598"/>
	</g>
</g>
<g id="social_network">
	<g>
		<path class="st0" d="M6865.7,334.1c32.1,0,52.5-5.1,60.8-10.1c5.1-3.1,11.9-1.5,15.1,3.5c5,7.8,15.9,18.2,41.5,17.3"/>
		<path class="st0" d="M6806,502l56-16v-32c-10-9.1-24-16-32-48c-3.2-12.8-6.5-34.9-8-48c-1.7-15.1-1.4-29.3,0-40
			c4.1-31.6,42.6-56,80-56c37.4,0,75.9,24.4,80,56c1.4,10.7,1.7,24.9,0,40c-1.5,13.1-4.8,35.2-8,48c-8,32-22,38.9-32,48v32l56,16"/>
	</g>
	<g>
		<g>
			<line class="st0" x1="6974" y1="521.2" x2="7000.9" y2="564.2"/>
			<line class="st0" x1="6803.1" y1="564.2" x2="6830" y2="521.2"/>
			<line class="st0" x1="7038" y1="406" x2="7070" y2="406"/>
			<line class="st0" x1="6766" y1="406" x2="6734" y2="406"/>
		</g>
		<g>
			<line class="st0" x1="6724" y1="340.6" x2="6752" y2="279.4"/>
			<line class="st0" x1="7052" y1="279.4" x2="7080" y2="340.6"/>
		</g>
	</g>
	<g>
		<circle class="st0" cx="6782" cy="214" r="40"/>
		<circle class="st0" cx="7022" cy="214" r="40"/>
		<circle class="st0" cx="7110" cy="406" r="40"/>
		<circle class="st0" cx="6694" cy="406" r="40"/>
		<circle class="st0" cx="7022" cy="598" r="40"/>
		<circle class="st0" cx="6782" cy="598" r="40"/>
	</g>
	<path class="st0" d="M6779.7,346.4c-8.8,18-13.7,38.2-13.7,59.6c0,75.1,60.9,136,136,136s136-60.9,136-136c0-21.5-5-41.9-13.9-60"
		/>
</g>
<g id="click_like">
	<g>
		<path class="st0" d="M6220,654l-5-7.6l-53-15.9c-2.3-0.7-4.6-1.6-6.8-2.7c-21.2-11.1-39.5-28.7-52.6-48.5l-40.1-60.5
			c-6.9-10.4-11.5-19.6-0.7-26.7l0,0c10.8-7.2,39.2-0.6,46.1,9.8l31.3,47.2l-112.5-169.8c-6.9-10.4-3.7-24.8,7.1-31.9l0,0
			c10.8-7.2,25.3-4.5,32.2,5.9l70.8,106.9l-10.7-16.1c-6.9-10.4-3.7-24.8,7.1-31.9l0,0c10.8-7.2,25.3-4.5,32.2,5.9l15.9,24l-5.9-8.9
			c-6.9-10.4-3.7-24.8,7.1-31.9l0,0c10.8-7.2,25.3-4.5,32.2,5.9l16.3,24.6l-6.3-9.5c-6.9-10.4-3.7-24.8,7.1-31.9l0,0
			c10.8-7.2,25.3-4.5,32.2,5.9l35.1,53c17.9,27,28.6,56.5,34.8,88.4c0.7,3.4,0.8,6.8,0.5,10.2l-1.6,20.6l5,7.6"/>
	</g>
	<path id="_x3C_Trazado_x3E__22_" class="st0" d="M6157.3,358c21.5-31.5,36.7-66.7,36.7-103.5c0-53.3-43.2-96.5-96.5-96.5
		c-39.7,0-67.8,20.8-79.5,50.1c-11.7-29.3-39.7-50.1-79.5-50.1c-53.3,0-96.5,43.2-96.5,96.5c0,95.9,103.8,181.8,152,216.5"/>
</g>
<g id="network">
	<circle class="st0" cx="5278" cy="406" r="248"/>
	<g>
		<circle class="st0" cx="5214" cy="310" r="56"/>
		<path class="st0" d="M5190,451.4c7.3-3.5,15.4-5.4,24-5.4c30.9,0,56,25.1,56,56s-25.1,56-56,56s-56-25.1-56-56"/>
		<circle class="st0" cx="5390" cy="406" r="56"/>
	</g>
	<g>
		<g>
			<path class="st0" d="M5204.5,365.1c-1.2,24.5-0.4,51.5,2.9,81.3"/>
			<path class="st0" d="M5228.9,555.9c4.3,16.1,9.4,32.8,15.1,50.1"/>
			<path class="st0" d="M5226.8,255.5c21.3-54,52.4-83.5,69.9-96.7"/>
		</g>
		<g>
			<path class="st0" d="M5162.5,288.1c-38.3-11.6-69.8-18.7-88.9-22.5"/>
			<path class="st0" d="M5436,437.8c22.4,20.7,50.9,43.6,68.5,69"/>
			<path class="st0" d="M5311.6,350c10.9,6.6,22.1,13.7,34.6,21.2"/>
		</g>
		<g>
			<path class="st0" d="M5340.4,431.9c-22.4,14.1-49,32-74.4,49.4"/>
			<path class="st0" d="M5443.3,388.9c23.3-7.4,55.4-13.4,80.2-17.8"/>
			<path class="st0" d="M5181,547.2c-21.9,19.1-40.8,37.3-56.6,53.5"/>
		</g>
	</g>
</g>
<g id="marketing_1_">
	<g>
		<path class="st0" d="M4466,654c-137,0-248-111-248-248s111-248,248-248c126.1,0,230.3,94.1,246,216"/>
		<g>
			<path class="st0" d="M4321.9,544.5c23.9-3.9,47.9-6.5,72.1-8.2"/>
			<path class="st0" d="M4321.9,267.5c47.5,7.7,96,10.5,144.1,10.5c48.1,0,96.5-2.8,144.1-10.5"/>
			<line class="st0" x1="4466" y1="206" x2="4466" y2="438"/>
			<line class="st0" x1="4266" y1="406" x2="4506" y2="406"/>
			<path class="st0" d="M4392.5,220.1c-40.3,50.1-62.5,115-62.5,185.9c0,71,22.2,135.8,62.5,185.9"/>
			<path class="st0" d="M4539.5,220.1c27.8,34.6,47,76.2,56.2,121.9"/>
		</g>
	</g>
	<g id="_x3C_Grupo_x3E__2_">
		<path class="st0" d="M4706.8,478.6c16.4,61,3.9,117.1-28.1,125.3c-31.9,8.2-71.2-34.6-87.6-95.6c-16.4-61-3.9-117.1,28.1-125.3
			C4651.1,374.8,4690.3,417.6,4706.8,478.6z"/>
		<path class="st0" d="M4653.8,601c-73.6-38.6-121-11-145.6-9.3c-34.1,2.4-63.6-23-66.1-56.7s23.2-62.8,57.3-65.4
			c35.8-2.7,79.6-40,99.5-72"/>
		<path class="st0" d="M4488,590.3l28.2,52.9c4.4,7.2,12.5,11.3,21,10.7l40.3-2.8c8.4-0.6,13.3-9.8,8.9-16.9l-3.7-6.8"/>
		<path class="st0" d="M4514.2,466.8c0,0-7,27.7,3.4,57.5"/>
		<path class="st0" d="M4629.4,454c15.1,4.6,28.8,19.3,34.5,39.3c5.2,18,2.6,35.8-5.5,47.8"/>
	</g>
</g>
<g id="community">
	<path class="st0" d="M3781.4,392.7c15.5-23.8,24.6-52.2,24.6-82.7c0-83.9-68.1-152-152-152s-152,68.1-152,152
		c0,84,68.1,152,152,152c30.5,0,58.9-9.1,82.7-24.6L3806,462L3781.4,392.7z"/>
	<g>
		<path class="st0" d="M3704.6,502.2C3687,566.6,3628,614,3558,614c-30.5,0-58.9-9.1-82.7-24.6L3406,614l24.6-69.3
			c-15.5-23.8-24.6-52.2-24.6-82.7c0-44.8,19.4-85,50.2-112.9"/>
		<path class="st0" d="M3502.4,320.6c16.4-6,37.2-10.6,55.6-10.6c79.2,0,144.3,58.3,151.3,141.5"/>
	</g>
	<g>
		<path class="st0" d="M3750,350c-25.6,0-51.5,6.7-72.7,17.9"/>
		<path class="st0" d="M3664.5,627.7c24.4,16.6,53.8,26.3,85.5,26.3c30.5,0,58.9-9.1,82.7-24.6L3902,654l-24.6-69.3
			c15.5-23.8,24.6-52.2,24.6-82.7c0-66.4-43.2-123.7-103.6-144.4"/>
		<path class="st0" d="M3639.8,397.3c-25.9,27.3-41.8,64.2-41.8,104.7c0,33.9,11.8,67.7,32.3,93.7"/>
	</g>
</g>
<g id="connect">
	<g>
		<path class="st0" d="M3090,406c0,137-111,248-248,248c-137,0-248-111-248-248H3090z"/>
		<path class="st0" d="M2882,446l7.6,19c1.2,3,4.2,5,7.4,5h16.6c3.4,0,6.5,2.2,7.6,5.4l29.5,86.1c1.7,5,7.6,7,12,4.1l20.5-13.6
			c1.8-1.2,3.1-3.2,3.5-5.3l7.1-42.7c0.2-1.3,0.7-2.5,1.5-3.5l27.6-36.8c2-2.6,2.1-6.1,0.5-8.9l-5.2-8.7"/>
		<path class="st0" d="M2762,446l42.1,21c3.4,1.7,5.2,5.7,4.1,9.4l-8.5,29.9c-0.6,2.2-2.1,4-4.1,5l-13.1,6.5
			c-2.7,1.4-4.4,4.1-4.4,7.2V550c0,0.7,0.1,1.3,0.2,1.9l6.8,27.1c1.5,6.1-4.2,11.5-10.2,9.6c-16.1-5.3-41.5-16.8-48.4-37.6
			c-10.3-31-20.7-41.3-20.7-41.3l-39.2-49c-1.4-1.7-2-3.9-1.7-6.1l1.2-8.6"/>
	</g>
	<g>
		<circle class="st0" cx="2842" cy="246" r="8"/>
		<line class="st0" x1="2842" y1="254" x2="2762" y2="406"/>
		<line class="st0" x1="2842" y1="254" x2="2922" y2="406"/>
		<line class="st0" x1="2842" y1="254" x2="2842" y2="406"/>
		<g>
			<path class="st0" d="M2786.9,213.6c-5.6,9.5-8.9,20.6-8.9,32.4c0,11.9,3.3,23,9,32.5"/>
			<path class="st0" d="M2738.7,185.2c-10.5,17.8-16.7,38.6-16.7,60.8c0,22.3,6.2,43.1,16.8,61"/>
			<path class="st0" d="M2689.6,158c-15,25.9-23.6,55.9-23.6,88c0,32.7,8.9,63.3,24.5,89.5"/>
		</g>
		<g>
			<path class="st0" d="M2897.1,213.6c5.6,9.5,8.9,20.6,8.9,32.4c0,11.9-3.3,23-9,32.5"/>
			<path class="st0" d="M2945.3,185.2c10.5,17.8,16.7,38.6,16.7,60.8c0,22.3-6.2,43.1-16.8,61"/>
			<path class="st0" d="M2994.4,158c15,25.9,23.6,55.9,23.6,88c0,32.7-8.9,63.3-24.5,89.5"/>
		</g>
	</g>
</g>
<g id="trending_topic">
	<g>
		<polyline class="st0" points="1782,478 1862,478 1862,654 1814,654 		"/>
		<path class="st0" d="M1862,494h16c8.6-4.1,48-24,48-24c7-15.8,26.4-56.8,31-73.4c2.9-10.4,1.9-25.4,0.8-35
			c-0.8-7.1,2.7-13.8,8.7-17.5c9.9-6.1,18.5-5,26.6,3.7c7.1,7.7,11.1,17.9,12.9,28.2c4.3,24.5,1.1,62.9-8.1,85.9h96
			c13.2,0,24,10.8,24,24v0c0,13.2-10.8,24-24,24h-32h24c13.2,0,24,10.8,24,24l0,0c0,13.2-10.8,24-24,24h-24h16c13.2,0,24,10.8,24,24
			l0,0c0,13.2-10.8,24-24,24h-24h20c11,0,20,9,20,20l0,0c0,11-9,20-20,20h-132l-48-16h-32"/>
	</g>
	<g>
		<path class="st0" d="M2006,294V174c0-8.8,7.2-16,16-16h240c8.8,0,16,7.2,16,16v168c0,8.8-7.2,16-16,16h-128l-72,64v-64l-16,0"/>
		<g>
			<line class="st0" x1="2102" y1="238" x2="2190" y2="238"/>
			<line class="st0" x1="2094" y1="286" x2="2182" y2="286"/>
			<line class="st0" x1="2126" y1="214" x2="2102" y2="310"/>
			<line class="st0" x1="2182" y1="214" x2="2158" y2="310"/>
		</g>
	</g>
</g>
<g id="online_x2F_website">
	<g>
		<path class="st0" d="M1381.7,334l-5.4-3.3c-5-3.1-10.8-4.7-16.8-4.7l-3.8,0c-12,0-21.7,8.9-21.7,20v0c0,11,9.7,20,21.6,20l8.7,0
			c12,0,21.7,9,21.6,20v0c0,11-9.7,20-21.7,20l-5.5,0c-7.7,0-15.2-2.1-21.6-6.1l-3.2-2"/>
		<polyline class="st0" points="1210,326 1234,406 1258,326 1282,406 1306,326 		"/>
		<g>
			<polyline class="st0" points="1178,326 1138,326 1138,406 1178,406 			"/>
			<line class="st0" x1="1138" y1="366" x2="1170" y2="366"/>
		</g>
		<polyline class="st0" points="1050,406 1050,326 1106,406 1106,326 		"/>
	</g>
	<polygon class="st0" points="1291.9,463.7 1329.7,635.6 1368,586.2 1432.1,654 1466,622 1401.9,554.1 1453.2,526.5 	"/>
	<g>
		<path class="st0" d="M1250,558H986c-8.8,0-16-7.2-16-16V174c0-8.8,7.2-16,16-16h464c8.8,0,16,7.2,16,16v304"/>
		<line class="st0" x1="970" y1="238" x2="1466" y2="238"/>
		<g>
			<line class="st1" x1="1010" y1="198" x2="1026" y2="198"/>
			<line class="st1" x1="1050" y1="198" x2="1066" y2="198"/>
			<line class="st1" x1="1090" y1="198" x2="1106" y2="198"/>
		</g>
	</g>
</g>
<g id="social_media">
	<g>
		<path class="st0" d="M498.8,567.5L574,502c12-9,22.4-13.8,31.3-16c6.3-1.6,11.9-1.8,16.7-1.3c2.6,0.3,5,0.7,7.2,1.3
			c3.4,0.9,6.3,2.1,8.8,3.3c13.6,6.5,16,20.7,16,20.7L511.9,630.8c-11.6,9.8-26.3,15.2-41.4,15.2H238l-16,8"/>
		<path class="st0" d="M366,582h108c15.5,0,28-12.5,28-28l0,0c0-15.5-12.5-28-28-28h-91.1c-5.8,0-11.5-1.6-16.5-4.6l-5.8-3.5
			c-17.4-10.5-37.4-16-57.7-16h0c-21.5,0-42.6,6.2-60.6,17.8L158,574"/>
	</g>
	<g>
		<line class="st0" x1="606" y1="486" x2="454" y2="486"/>
		<path class="st0" d="M214,486h-24c-17.7,0-32-14.3-32-32v-8h496v8c0,14.9-10.2,27.4-24,31"/>
	</g>
	<g>
		<g>
			<line class="st0" x1="206" y1="278" x2="206" y2="310"/>
			<line class="st0" x1="206" y1="230" x2="206" y2="238"/>
			<line class="st0" x1="206" y1="350" x2="206" y2="414"/>
			<line class="st0" x1="470" y1="206" x2="470" y2="254"/>
			<line class="st0" x1="470" y1="158" x2="470" y2="166"/>
			<line class="st0" x1="622" y1="366" x2="622" y2="414"/>
			<line class="st0" x1="622" y1="318" x2="622" y2="326"/>
		</g>
		<g>
			<path class="st0" d="M326,406h128.6c13.9,0,26.2-9,30.5-22.2l14.1-44.2c4.2-14.8-6.5-29.6-21.5-29.6l-39.8,0.1
				c-8.9,0-16-7.1-16-16v-43.3c0-20.3-16.5-36.8-36.8-36.8h0c-6.2,0-11.2,5-11.2,11.2V286l-22.4,24H310"/>
			<line class="st0" x1="350" y1="406" x2="350" y2="310"/>
		</g>
		<g>
			<path class="st0" d="M576.6,293l44.4-43.5c12-11.7,12-30.9,0-42.6l0,0c-13-12.8-34.5-11.5-45.9,2.6l-1.1,1.3l0,0l-1.2-1.3
				c-11.4-14.1-32.9-15.4-45.9-2.6l0,0c-12,11.8-12,30.9,0,42.6l44.4,43.5C572.8,294.3,575.2,294.3,576.6,293z"/>
		</g>
		<g>
			<path class="st0" d="M280.2,237.1l38.1-36.2c10.3-9.8,10.3-25.8,0-35.5l0,0c-11.2-10.6-29.5-9.6-39.3,2.2l-0.9,1.1l0,0l-1-1.1
				c-9.8-11.8-28.2-12.8-39.3-2.2l0,0c-10.3,9.8-10.3,25.7,0,35.5l38,36.2C277,238.3,279,238.3,280.2,237.1z"/>
		</g>
	</g>
</g>
</svg>
