<?xml version="1.0" encoding="utf-8"?>
<!-- Generator: Adobe Illustrator 16.0.0, SVG Export Plug-In . SVG Version: 6.00 Build 0)  -->
<!DOCTYPE svg PUBLIC "-//W3C//DTD SVG 1.1//EN" "http://www.w3.org/Graphics/SVG/1.1/DTD/svg11.dtd">
<svg version="1.1" id="lineal" xmlns="http://www.w3.org/2000/svg" xmlns:xlink="http://www.w3.org/1999/xlink" x="0px" y="0px"
	 width="128px" height="128px" viewBox="0 0 128 128" enable-background="new 0 0 128 128" xml:space="preserve">
<g>
	<path d="M51.642,89.015h24.717c0.552,0,1-0.447,1-1c0-7.034-5.469-12.803-12.377-13.309c3.806-0.485,6.76-3.736,6.76-7.672
		c0-4.268-3.473-7.74-7.742-7.74c-4.268,0-7.741,3.473-7.741,7.74c0,3.936,2.954,7.187,6.759,7.672
		c-6.907,0.506-12.376,6.274-12.376,13.309C50.642,88.567,51.089,89.015,51.642,89.015z M58.259,67.034
		c0-3.165,2.575-5.74,5.741-5.74c3.166,0,5.742,2.575,5.742,5.74c0,3.166-2.576,5.741-5.742,5.741
		C60.834,72.775,58.259,70.2,58.259,67.034z M64,76.656c5.927,0,10.808,4.562,11.315,10.358h-22.63
		C53.193,81.218,58.074,76.656,64,76.656z"/>
	<path d="M111.49,97.51c-0.19-0.238-0.478-0.377-0.783-0.377h-5.645v-48.92c0-3.176-2.583-5.76-5.758-5.76H74.865l3.033-3.438
		h16.156c0.552,0,1-0.447,1-1V22.133c0-0.553-0.448-1-1-1H65.949c-0.552,0-1,0.447-1,1v15.883c0,0.553,0.448,1,1,1h4.363v3.438
		h-7.262v-6.166c0-0.553-0.448-1-1-1H33.941c-0.552,0-1,0.447-1,1v6.166h-4.248c-3.176,0-5.76,2.584-5.76,5.76v48.92h-5.641
		c-0.305,0-0.593,0.139-0.782,0.377c-0.19,0.238-0.261,0.551-0.192,0.848c0.08,0.348,2.028,8.51,7.914,8.51h39.764h39.77
		c5.886,0,7.836-8.162,7.916-8.51C111.75,98.061,111.679,97.749,111.49,97.51z M66.949,37.016V23.133h26.105v13.883H77.447
		c-0.287,0-0.56,0.123-0.75,0.339l-4.385,4.97v-4.309c0-0.553-0.448-1-1-1H66.949z M33.941,53.162h16.158l5.833,6.614
		c0.193,0.22,0.469,0.339,0.75,0.339c0.119,0,0.238-0.021,0.354-0.064c0.389-0.147,0.646-0.52,0.646-0.936v-5.953h4.369
		c0.552,0,1-0.447,1-1v-3.459h36.041v45.791H28.908V48.703h4.033v3.459C32.941,52.715,33.389,53.162,33.941,53.162z M34.941,37.287
		h26.109v13.875h-4.369c-0.552,0-1,0.447-1,1v4.307l-4.381-4.968c-0.19-0.216-0.463-0.339-0.75-0.339H34.941V37.287z M24.934,48.213
		c0-2.073,1.687-3.76,3.76-3.76h4.248v2.25h-5.033c-0.552,0-1,0.447-1,1v47.791c0,0.553,0.448,1,1,1h72.184c0.552,0,1-0.447,1-1
		V47.703c0-0.553-0.448-1-1-1H63.051v-2.25h7.262v0.516c0,0.416,0.257,0.788,0.646,0.936c0.115,0.043,0.235,0.064,0.354,0.064
		c0.281,0,0.556-0.119,0.75-0.339l1.038-1.177h26.204c2.072,0,3.758,1.687,3.758,3.76v48.92H75.408
		c-0.315,0-0.612,0.148-0.801,0.401l-0.89,1.188h-9.722H54.28l-0.89-1.188c-0.189-0.253-0.486-0.401-0.801-0.401H24.934V48.213z
		 M103.766,104.867h-39.77H24.232c-3.165,0-4.895-3.736-5.593-5.734h33.449l0.89,1.188c0.189,0.253,0.486,0.401,0.801,0.401h10.217
		h10.223c0.315,0,0.612-0.148,0.801-0.401l0.89-1.188h33.454C108.667,101.13,106.942,104.867,103.766,104.867z"/>
	<path d="M70.934,28.064h13.031c0.552,0,1-0.447,1-1s-0.448-1-1-1H70.934c-0.552,0-1,0.447-1,1S70.381,28.064,70.934,28.064z"/>
	<path d="M90.072,32.871c0-0.553-0.448-1-1-1H70.934c-0.552,0-1,0.447-1,1s0.448,1,1,1h18.139
		C89.625,33.871,90.072,33.424,90.072,32.871z"/>
	<path d="M38.924,42.371h13.033c0.552,0,1-0.447,1-1s-0.448-1-1-1H38.924c-0.552,0-1,0.447-1,1S38.372,42.371,38.924,42.371z"/>
	<path d="M38.924,48.176h18.143c0.552,0,1-0.447,1-1s-0.448-1-1-1H38.924c-0.552,0-1,0.447-1,1S38.372,48.176,38.924,48.176z"/>
</g>
</svg>
