<?xml version="1.0" encoding="utf-8"?>
<!-- Generator: Adobe Illustrator 26.0.0, SVG Export Plug-In . SVG Version: 6.00 Build 0)  -->
<svg version="1.1" id="Layer_1" xmlns="http://www.w3.org/2000/svg" xmlns:xlink="http://www.w3.org/1999/xlink" x="0px" y="0px"
	 viewBox="0 0 2500 849" style="enable-background:new 0 0 2500 849;" xml:space="preserve">
<style type="text/css">
	.st0{fill:#010101;}
	.st1{fill:#F9BFC4;}
</style>
<g>
	<g>
		<rect x="649.55" y="48.48" class="st0" width="18.17" height="784.53"/>
	</g>
	<g>
		<path class="st0" d="M920.73,277.1l-0.27-112.67l-55.26,92.82h-19.58l-54.99-90.41V277.1h-40.77V89.32h35.94l70.29,116.69
			l69.2-116.69h35.68l0.54,187.78H920.73z"/>
		<path class="st0" d="M994.2,183.21c0-55.79,43.45-97.1,102.74-97.1c59.02,0,102.74,41.04,102.74,97.1
			c0,56.07-43.72,97.11-102.74,97.11C1037.66,280.32,994.2,239.01,994.2,183.21z M1155.7,183.21c0-35.67-25.22-60.09-58.75-60.09
			c-33.53,0-58.75,24.41-58.75,60.09c0,35.68,25.22,60.1,58.75,60.1C1130.48,243.3,1155.7,218.89,1155.7,183.21z"/>
		<path class="st0" d="M1403.29,277.1l-0.27-112.67l-55.26,92.82h-19.58l-54.99-90.41V277.1h-40.77V89.32h35.94l70.29,116.69
			l69.2-116.69h35.68l0.54,187.78H1403.29z"/>
		<path class="st0" d="M1473.82,258.59l14.76-32.72c15.82,11.54,39.43,19.58,61.96,19.58c25.76,0,36.22-8.58,36.22-20.12
			c0-35.14-109.18-11-109.18-80.74c0-31.93,25.75-58.48,79.14-58.48c23.61,0,47.75,5.63,65.19,16.63l-13.41,32.99
			c-17.44-9.92-35.41-14.76-52.04-14.76c-25.76,0-35.68,9.67-35.68,21.46c0,34.61,109.18,10.73,109.18,79.68
			c0,31.39-26.02,58.21-79.67,58.21C1520.49,280.32,1490.45,271.47,1473.82,258.59z"/>
		<path class="st1" d="M922.06,334.24v187.78h-35.67L792.76,408v114.01h-42.92V334.24h35.94l93.36,114v-114H922.06z"/>
		<path class="st0" d="M749.85,579.16h85.31c61.43,0,103.55,37.02,103.55,93.88c0,56.88-42.12,93.89-103.55,93.89h-85.31V579.16z
			 M833,731.26c37.29,0,61.7-22.26,61.7-58.21c0-35.94-24.41-58.21-61.7-58.21h-39.7v116.42H833z"/>
		<path class="st0" d="M969.8,684.32V579.16h43.45v103.55c0,35.67,15.56,50.43,41.85,50.43c26.56,0,41.85-14.76,41.85-50.43V579.16
			h42.92v105.15c0,55.26-31.65,85.84-85.04,85.84C1001.46,770.16,969.8,739.58,969.8,684.32z"/>
		<path class="st0" d="M1353.98,766.94l-0.27-112.67l-55.26,92.82h-19.58l-54.99-90.41v110.26h-40.77V579.16h35.94l70.29,116.69
			l69.2-116.69h35.68l0.54,187.78H1353.98z"/>
		<path class="st0" d="M1611.49,715.71c0,32.45-25.75,51.24-75.11,51.24h-97.1V579.16h91.74c46.94,0,71.09,19.58,71.09,48.82
			c0,18.78-9.66,33.27-24.95,41.31C1598.08,676,1611.49,692.1,1611.49,715.71z M1482.46,611.89v44.26h43.19
			c21.19,0,32.73-7.51,32.73-22.26c0-14.76-11.54-22-32.73-22H1482.46z M1567.77,711.14c0-15.82-12.07-23.34-34.61-23.34h-50.7
			v46.41h50.7C1555.7,734.22,1567.77,727.25,1567.77,711.14z"/>
		<path class="st0" d="M1816.7,715.71c0,32.45-25.75,51.24-75.11,51.24h-97.1V579.16h91.74c46.94,0,71.09,19.58,71.09,48.82
			c0,18.78-9.66,33.27-24.95,41.31C1803.29,676,1816.7,692.1,1816.7,715.71z M1687.67,611.89v44.26h43.19
			c21.19,0,32.73-7.51,32.73-22.26c0-14.76-11.54-22-32.73-22H1687.67z M1772.98,711.14c0-15.82-12.07-23.34-34.61-23.34h-50.7
			v46.41h50.7C1760.91,734.22,1772.98,727.25,1772.98,711.14z"/>
		<path class="st0" d="M1995.08,732.07v34.88h-145.39V579.16h141.9v34.88h-98.72v40.77h87.19v33.8h-87.19v43.45H1995.08z"/>
		<path class="st0" d="M2029.68,579.16h43.45v152.37h94.15v35.41h-137.61V579.16z"/>
		<path class="st0" d="M2191.69,579.16h43.45v152.37h94.15v35.41h-137.61V579.16z"/>
		<path class="st0" d="M2337.88,748.43l14.76-32.72c15.82,11.54,39.43,19.58,61.96,19.58c25.76,0,36.22-8.58,36.22-20.12
			c0-35.14-109.18-11-109.18-80.74c0-31.93,25.75-58.48,79.14-58.48c23.61,0,47.75,5.63,65.19,16.63l-13.41,32.99
			c-17.44-9.92-35.41-14.76-52.04-14.76c-25.76,0-35.68,9.67-35.68,21.46c0,34.61,109.18,10.73,109.18,79.68
			c0,31.39-26.02,58.21-79.67,58.21C2384.55,770.16,2354.51,761.31,2337.88,748.43z"/>
	</g>
</g>
<g>
	<path class="st1" d="M31.97,121.81c-15.05,7.25-24.2,17.49-23.25,33.91c0.97,16.89,1.44,33.94-0.1,50.77
		c-1.92,20.92,9.37,33.39,29.41,41.31c36.28,14.34,75.22,18.01,114.19,21.38c2.2,0.19,6.12,0.93,6.14-1.56
		c0.07-7.37,0.15-14.99-1.93-22.02c-1.25-4.22-8.17-3.21-12.66-3.58c-21.48-1.78-42.81-4.39-63.44-10.05
		c-8.73-2.39-22.1-3.24-21.8-13.04c0.29-9.53,13.67-10.52,22.46-12.71c34.78-8.68,70.66-11.08,106.54-13.15
		c57.21-3.29,114.39-2.46,171.45,2.2c28.58,2.34,57.24,4.85,84.39,14c5.77,1.94,13.56,3.36,13.04,10.45
		c-0.45,6.03-7.45,7.63-12.98,9.5c-22.19,7.49-45.51,10.32-68.93,12.41c-17.34,1.55-17.39,1.18-18.42,16.15
		c-0.1,1.41,0.03,2.85-0.28,4.22c-1.42,6.29,1.72,7.98,8.42,7.26c20.21-2.16,40.45-3.96,60.43-7.61
		c22.34-4.08,44.34-8.81,63.69-20.09c11.46-6.68,17.58-15.68,17.23-28.32c-0.54-19.74-0.65-39.52,0.02-59.26
		c0.44-13.13-6.03-22.14-17.79-29.09c-14.47-8.56-30.72-13.24-47.44-16.74c-59.98-12.57-121.18-13.35-179.22-14.62
		c-53.13,0.61-103.11,1.89-152.65,8.58C82.03,105.68,55.79,110.33,31.97,121.81z"/>
	<path class="st1" d="M356.29,582.17c0.65,8.03,3.53,10.83,13.28,11.61c23.8,1.89,47.69,4.39,70.37,11.79
		c6.85,2.24,16.67,3.3,16.3,11.43c-0.32,7.13-9.47,8.61-16.12,10.62c-31.27,9.45-63.95,12-96.56,14.07
		c-66.36,4.22-132.75,4.03-198.97-2.08c-26.15-2.41-52.43-4.95-76.95-14.34c-4.3-1.65-9.47-3.25-9.8-8.28
		c-0.38-5.82,5.53-7.14,10.02-9.17c3.17-1.43,6.53-2.65,9.94-3.57c19.93-5.37,40.55-7.52,61.07-10.22
		c19.24-2.53,20.04-3.65,19.71-21.32c-0.01-0.35-0.02-0.71,0.04-1.06c0.82-4.91-1.45-5.84-6.8-5.15
		c-16.99,2.16-34.2,3.14-51.07,5.83c-26.26,4.19-52.58,8.69-75.31,22.38c-11.06,6.66-16.77,15.52-16.58,27.56
		c0.31,20.1,0.39,40.22,0,60.32c-0.24,12.54,5.94,21.45,17.36,28.23c15.86,9.42,33.76,14.26,52.11,17.8
		c59.34,11.43,119.61,13.27,185.15,13.09c46.18,0.41,97.3-1.49,147.96-8.83c25.59-3.7,50.99-8.33,73.68-20.35
		c13.23-7.01,21.11-16.41,20.43-31.01c-0.79-16.9-1.56-33.97,0.21-50.76c2.48-23.51-11.02-35.95-33.47-44.23
		c-32.09-11.83-65.97-16.06-100.17-18.86C354.62,566.22,355.03,566.51,356.29,582.17z"/>
	<path class="st1" d="M310.63,216.4c-29.04-6.9-58.63-5.49-88.16-3.33c-9.55,0.7-18.97,2.52-27.67,6.28
		c-7.77,3.36-12.09,8.33-11.46,16.73c2.09,27.43,4.08,54.87,5.24,82.34c3.89,91.34,2.75,182.64-4.46,273.84
		c-1.33,16.79,1.94,22.08,20.76,26.35c28.68,6.52,57.86,5.41,86.99,3.04c9.52-0.77,18.93-2.53,27.7-6.26
		c8.52-3.63,12.29-9.29,11.47-17.83c-5.7-59.78-7.26-119.7-7.26-190.98c-0.4-47.25,1.88-105.74,6.47-164.16
		C331.55,225.88,328.59,220.66,310.63,216.4z"/>
	<path class="st1" d="M89.2,756.57c-2.96-0.48-7.78-3.78-9.76,1.82c-6.85,19.37,1.56,36.02,23.11,44.26
		c26.76,10.24,55.44,12.82,84.08,14.89c47.14,3.39,94.35,3.38,141.48-0.03c28.23-2.05,56.43-4.73,82.98-14.5
		c16.2-5.96,27.22-14.91,23.97-30.35c0-3.9-0.39-6.08,0.07-8.12c2.09-9.4-3.62-9.46-11.47-8.02c-8.58,1.58-17.26,2.77-25.95,3.85
		c-59.65,7.42-119.68,7.1-179.69,6.38C174.81,766.23,131.79,763.52,89.2,756.57z"/>
	<path class="st1" d="M172.19,19.53c-25.76,2.25-51.59,5.16-75.08,16.09c-8.37,3.9-16.29,8.69-17.29,17.59
		c-1.01,8.99-0.22,18.14-0.22,27.82c31.12-5.94,61.69-9.03,92.35-10.39c85.98-3.8,171.89-4.45,257.06,9.49
		c2.57,0.42,4.94,1.61,6.14-2.38c6.24-20.77-1.6-36.19-24.14-44.94c-21.44-8.32-44.48-11.25-67.5-13.21
		C286.44,14.73,229.26,14.54,172.19,19.53z"/>
</g>
</svg>
