<?xml version="1.0" encoding="UTF-8"?>
<svg id="Layer_1" xmlns="http://www.w3.org/2000/svg" version="1.1" viewBox="0 0 720 156">
  <!-- Generator: Adobe Illustrator 29.4.0, SVG Export Plug-In . SVG Version: 2.1.0 Build 29)  -->
  <defs>
    <style>
      .st0 {
        fill: #fefbde;
      }
    </style>
  </defs>
  <path class="st0" d="M84.39,67.72c0,16.62-13.45,24.93-40.36,24.93.64,13.46,1.78,21.77,3.43,24.94h-30.46c1.14-2.02,2.03-6.43,2.67-13.23.63-6.78.94-12.15.94-16.09v-15.22c0-3.93-.32-9.33-.94-16.18-.64-6.85-1.53-11.29-2.67-13.32h27.79c26.39,0,39.6,8.06,39.6,24.17ZM43.84,90.56h1.72c4.82-.25,8.66-2.72,11.52-7.43,2.85-4.68,4.22-10.08,4.09-16.17,0-5.59-1.34-10.5-4-14.75-2.67-4.25-6.41-6.37-11.23-6.37-.89,0-1.53.06-1.91.19l-.19,42.25v2.29Z"/>
  <path class="st0" d="M147.39,117.59h-14.85c-6.35,0-9.96-3.3-10.84-9.9-1.65,2.8-4.1,5.33-7.33,7.62-3.23,2.28-6.94,3.55-11.13,3.8-12.19,0-18.28-4.7-18.28-14.09,0-4.82,1.65-9.14,4.95-12.94,3.31-3.82,7.3-6.63,12-8.48,4.7-1.83,8.63-3.2,11.8-4.09,3.17-.88,5.71-1.39,7.62-1.52,1.26-11.04-1.59-16.57-8.57-16.57h-1.13c-3.56.38-6.38,2.42-8.47,6.09-2.1,3.68-3.21,7.61-3.34,11.8,0,.64-.25.7-.76.19-.64-1.02-1.93-2.79-3.9-5.33-1.97-2.53-3.07-4-3.33-4.38-.38-.38-.38-.88,0-1.52,2.28-3.43,5.59-6.06,9.9-7.91,4.31-1.83,8.31-2.76,11.99-2.76,3.43,0,6.67.35,9.71,1.05,3.05.7,6.22,1.93,9.52,3.71,3.3,1.78,5.94,4.66,7.91,8.66,1.96,4,2.95,8.85,2.95,14.56v19.42c0,3.55,1.21,7.74,3.61,12.56ZM111.03,111.3c.25.13.7.19,1.34.19,3.04,0,6.08-2.02,9.14-6.08-.13-.38-.19-.95-.19-1.72v-23.99c-3.18.89-6.48,3.04-9.9,6.48-3.43,3.42-5.33,7.99-5.71,13.7-.51,6.73,1.27,10.54,5.33,11.41Z"/>
  <path class="st0" d="M214.39,36.12v69.09c0,3.93,1.2,8.06,3.61,12.37h-14.85c-4.82,0-8.18-1.83-10.09-5.52-2.54,4.19-5.65,6.48-9.33,6.86-.64.13-1.53.19-2.66.19-6.6,0-12.51-2.48-17.71-7.43-5.2-4.95-8.25-12.62-9.14-23.03-.75-8.88.99-16.01,5.24-21.41,4.25-5.39,9.49-8.09,15.71-8.09h1.72c7.36.75,12.18,4.63,14.46,11.61l-.19-13.89c0-4.31-1.2-8.69-3.61-13.13l26.85-7.62ZM185.27,116.06c1.64,0,3.07-1.61,4.28-4.85,1.2-3.23,1.8-7.45,1.8-12.65v.19s0-19.04,0-19.04c-.75-7.48-2.72-11.22-5.89-11.22-2.42-.13-4.66,1.36-6.76,4.47-2.09,3.11-3.2,7.45-3.33,13.04-.13,6.73.6,12.91,2.18,18.56,1.59,5.65,3.65,9.3,6.19,10.95.64.37,1.14.56,1.53.56Z"/>
  <path class="st0" d="M285.01,36.12v69.09c0,3.93,1.2,8.06,3.61,12.37h-14.85c-4.82,0-8.18-1.83-10.09-5.52-2.54,4.19-5.65,6.48-9.33,6.86-.64.13-1.53.19-2.66.19-6.6,0-12.51-2.48-17.71-7.43-5.2-4.95-8.25-12.62-9.14-23.03-.75-8.88.99-16.01,5.24-21.41,4.25-5.39,9.49-8.09,15.71-8.09h1.72c7.36.75,12.18,4.63,14.46,11.61l-.19-13.89c0-4.31-1.2-8.69-3.61-13.13l26.85-7.62ZM255.89,116.06c1.64,0,3.07-1.61,4.28-4.85,1.2-3.23,1.8-7.45,1.8-12.65v.19s0-19.04,0-19.04c-.75-7.48-2.72-11.22-5.89-11.22-2.42-.13-4.66,1.36-6.76,4.47-2.09,3.11-3.2,7.45-3.33,13.04-.13,6.73.6,12.91,2.18,18.56,1.59,5.65,3.65,9.3,6.19,10.95.64.37,1.14.56,1.53.56Z"/>
  <path class="st0" d="M326.7,117.4h-30.46c2.41-4.44,3.61-8.82,3.61-13.13v-47.4c0-4.31-1.21-8.69-3.61-13.13l26.66-7.62.18,68.14c0,4.31,1.21,8.69,3.62,13.13Z"/>
  <path class="st0" d="M390.64,97.6l.38-.19c.38,0,.57.19.57.57-.64,5.71-3.46,10.6-8.47,14.66-5.01,4.06-10.82,6.22-17.41,6.48-9.27,0-16.85-2.61-22.75-7.81-5.89-5.19-9.1-12.37-9.61-21.5-.38-8.12,1.84-15.39,6.67-21.79,4.82-6.41,12.31-9.87,22.45-10.38.25,0,.67-.03,1.24-.1s.99-.1,1.24-.1c6.72,0,12.31,1.8,16.75,5.43,4.44,3.61,6.29,7.83,5.52,12.65-.51,3.04-1.91,5.74-4.19,8.09-2.29,2.35-5.08,4.19-8.37,5.52-3.31,1.34-6.41,2.35-9.33,3.04-2.93.7-5.71,1.18-8.38,1.43,4.05,6.6,10.02,9.9,17.9,9.9,6.59,0,11.86-1.96,15.79-5.9ZM352.58,76.28c-.25,5.84.83,10.92,3.24,15.23,2.78-.89,5.41-2.73,7.89-5.52,2.47-2.79,4.03-6.22,4.66-10.28.51-2.91.13-6.13-1.14-9.61-1.27-3.49-3.23-5.3-5.9-5.43-2.66-.13-4.75,1.53-6.27,4.95-1.53,3.42-2.35,6.98-2.48,10.66Z"/>
  <path class="st0" d="M432.52,43.55h34.84s13.89,40.15,13.89,40.15l11.99-40.15h26.66c-1.14,2.03-2.03,6.47-2.67,13.32-.64,6.86-.95,12.25-.95,16.18v15.22c0,3.94.32,9.31.95,16.09.64,6.79,1.53,11.2,2.67,13.23h-30.46c1.02-2.15,1.88-6.67,2.58-13.51.69-6.86,1.04-12.11,1.04-15.8v-32.36s-17.7,61.67-17.7,61.67h-7.8s-20.56-61.87-20.56-61.87c-.64,5.71-.95,10.09-.95,13.13v14.66c0,5.33,1.37,11.39,4.09,18.18,2.73,6.79,6.19,12.09,10.38,15.9h-27.79c3.42-3.68,6-8.66,7.72-14.94,1.71-6.27,2.44-11.7,2.18-16.27v-17.52c.25-4.68-.57-9.63-2.47-14.84-1.91-5.2-4.45-8.69-7.62-10.47Z"/>
  <path class="st0" d="M588.98,117.59h-14.85c-6.35,0-9.96-3.3-10.84-9.9-1.65,2.8-4.1,5.33-7.33,7.62-3.23,2.28-6.94,3.55-11.13,3.8-12.19,0-18.28-4.7-18.28-14.09,0-4.82,1.65-9.14,4.95-12.94,3.31-3.82,7.3-6.63,12-8.48,4.7-1.83,8.63-3.2,11.8-4.09,3.17-.88,5.71-1.39,7.62-1.52,1.26-11.04-1.59-16.57-8.57-16.57h-1.13c-3.56.38-6.38,2.42-8.47,6.09-2.1,3.68-3.21,7.61-3.34,11.8,0,.64-.25.7-.76.19-.64-1.02-1.93-2.79-3.9-5.33-1.97-2.53-3.07-4-3.33-4.38-.38-.38-.38-.88,0-1.52,2.28-3.43,5.59-6.06,9.9-7.91,4.31-1.83,8.31-2.76,11.99-2.76,3.43,0,6.67.35,9.71,1.05,3.05.7,6.22,1.93,9.52,3.71,3.3,1.78,5.94,4.66,7.91,8.66,1.96,4,2.95,8.85,2.95,14.56v19.42c0,3.55,1.21,7.74,3.61,12.56ZM552.62,111.3c.25.13.7.19,1.34.19,3.04,0,6.08-2.02,9.14-6.08-.13-.38-.19-.95-.19-1.72v-23.99c-3.18.89-6.48,3.04-9.9,6.48-3.43,3.42-5.33,7.99-5.71,13.7-.51,6.73,1.27,10.54,5.33,11.41Z"/>
  <path class="st0" d="M590.89,60.29c0-.76.38-1.13,1.14-1.13h.38c4.7,0,9.49-1.91,14.37-5.71s8.6-7.61,11.14-11.42l4-5.71.76-.38v23.22s13.51,0,13.51,0c.76,0,1.14.37,1.14,1.13v.76c0,.76-.38,1.14-1.14,1.14h-13.51s0,29.32,0,29.32c.12,10.03,3.04,15.1,8.75,15.22,3.04,0,5.45-1.52,7.23-4.57.25-.24.45-.38.57-.38.51,0,.76.26.76.76-.13,4.31-1.65,8.22-4.57,11.71-2.93,3.49-6.92,5.43-12,5.81-15.98,0-23.97-8.45-23.97-25.32l.19-32.55h-7.62c-.76,0-1.14-.38-1.14-1.14v-.76Z"/>
  <path class="st0" d="M702.05,97.6l.38-.19c.38,0,.57.19.57.57-.64,5.71-3.46,10.6-8.47,14.66-5.01,4.06-10.82,6.22-17.41,6.48-9.27,0-16.85-2.61-22.76-7.81-5.89-5.19-9.1-12.37-9.61-21.5-.38-8.12,1.84-15.39,6.67-21.79,4.82-6.41,12.31-9.87,22.46-10.38.25,0,.67-.03,1.24-.1s.99-.1,1.24-.1c6.72,0,12.3,1.8,16.75,5.43,4.44,3.61,6.29,7.83,5.52,12.65-.51,3.04-1.91,5.74-4.19,8.09-2.29,2.35-5.08,4.19-8.37,5.52-3.31,1.34-6.41,2.35-9.33,3.04-2.93.7-5.71,1.18-8.38,1.43,4.06,6.6,10.03,9.9,17.9,9.9,6.59,0,11.86-1.96,15.79-5.9ZM663.98,76.28c-.25,5.84.83,10.92,3.24,15.23,2.79-.89,5.42-2.73,7.9-5.52,2.47-2.79,4.03-6.22,4.66-10.28.51-2.91.13-6.13-1.14-9.61-1.27-3.49-3.23-5.3-5.9-5.43-2.66-.13-4.76,1.53-6.27,4.95-1.53,3.42-2.35,6.98-2.48,10.66Z"/>
</svg>