<?xml version="1.0" encoding="utf-8"?>
<!-- Generator: Adobe Illustrator 28.3.0, SVG Export Plug-In . SVG Version: 6.00 Build 0)  -->
<svg version="1.1" id="Layer_1" xmlns="http://www.w3.org/2000/svg" xmlns:xlink="http://www.w3.org/1999/xlink" x="0px" y="0px"
	 viewBox="0 0 4000 1493" style="enable-background:new 0 0 4000 1493;" xml:space="preserve">
<style type="text/css">
	.st0{fill:#141414;}
	.st1{fill:none;stroke:#141414;stroke-width:1.0904;stroke-miterlimit:10;}
	.st2{fill:#FFFFFF;}
</style>
<g>
	<path class="st0" d="M994.94,603.49l-44.28-56.1c-4.57-5.8-10.8-9.86-17.54-11.43c-7.58-1.77-15.2-0.21-20.91,4.3l-26.47,20.89
		c-19.42-15.62-40.8-28.47-63.68-38.25c-23.3-9.96-47.8-16.56-72.97-19.69v-18.38h19.73c6.33,0,11.46-5.13,11.46-11.46v-49.19
		c0-7.28-3.49-14.23-9.58-19.08c-5.41-4.31-12.46-6.69-19.84-6.69h-71.47c-7.38,0-14.43,2.37-19.84,6.69
		c-6.09,4.85-9.58,11.8-9.58,19.08v49.19c0,6.33,5.13,11.46,11.46,11.46h19.73v18.38c-24.37,3.03-48.14,9.33-70.79,18.77
		c-22.3,9.3-43.23,21.52-62.33,36.38l-22.94-18.1c-5.71-4.51-13.33-6.08-20.91-4.3c-6.74,1.58-12.97,5.64-17.54,11.43l-44.28,56.1
		c-4.57,5.79-7.07,12.8-7.04,19.72c0.04,7.78,3.33,14.83,9.04,19.34l22.81,18c-7.29,15.97-13.01,32.62-17.07,49.7H272.08
		c-6.33,0-11.46,5.13-11.46,11.46s5.13,11.46,11.46,11.46H459.3H521h62.91c6.33,0,11.46-5.13,11.46-11.46s-5.13-11.46-11.46-11.46
		h-47.38c25.25-71.4,91.21-121.2,167.12-125.78v151.41c-16.12,4.92-27.89,19.93-27.89,37.64c0,21.69,17.65,39.34,39.34,39.34
		s39.34-17.65,39.34-39.34c0-17.71-11.76-32.72-27.89-37.64V584.47c99.12,5.94,177.94,88.47,177.94,189.05
		c0,104.44-84.96,189.4-189.4,189.4c-16.48,0-32.78-2.14-48.51-6.29h31.69c6.33,0,11.46-5.13,11.46-11.46
		c0-6.33-5.13-11.46-11.46-11.46h-87.53h-92.21H386.45c-6.33,0-11.46,5.13-11.46,11.46c0,6.33,5.13,11.46,11.46,11.46h126.97
		c11.57,12.74,24.37,24.41,38.11,34.75c15.26,11.47,31.75,21.36,49.01,29.37c36.02,16.72,74.56,25.19,114.57,25.19
		c36.77,0,72.45-7.2,106.04-21.41c32.44-13.72,61.57-33.36,86.59-58.38c25.01-25.01,44.66-54.15,58.38-86.59
		c14.21-33.59,21.41-69.27,21.41-106.04c0-20.59-2.31-41.12-6.86-61.01c-3.75-16.37-9.04-32.42-15.77-47.83l28.04-22.13c0,0,0,0,0,0
		c5.71-4.51,9-11.56,9.04-19.34C1002.01,616.29,999.51,609.29,994.94,603.49z M672.87,424.19c0-0.55,2.17-2.86,6.51-2.86h71.47
		c4.34,0,6.51,2.31,6.51,2.86v37.73h-19.73h-45.03h-19.73V424.19z M726.17,484.83v16.5c-0.43-0.02-0.86-0.03-1.29-0.05
		c-0.4-0.01-0.8-0.03-1.2-0.04c-0.57-0.02-1.14-0.03-1.72-0.05c-0.38-0.01-0.76-0.02-1.15-0.03c-0.63-0.01-1.26-0.02-1.9-0.03
		c-0.32,0-0.64-0.01-0.96-0.01c-0.95-0.01-1.9-0.02-2.85-0.02s-1.9,0.01-2.85,0.02c-0.32,0-0.64,0.01-0.96,0.01
		c-0.63,0.01-1.26,0.02-1.9,0.03c-0.38,0.01-0.76,0.02-1.14,0.03c-0.57,0.01-1.15,0.03-1.72,0.05c-0.4,0.01-0.8,0.03-1.2,0.04
		c-0.43,0.02-0.86,0.03-1.29,0.05v-16.5H726.17z M460.33,617.69l44.28-56.1c1.35-1.71,3.09-2.92,4.78-3.32
		c0.37-0.09,0.68-0.12,0.92-0.12c0.33,0,0.52,0.06,0.57,0.1l19.31,15.24c0,0,0,0,0,0c-1.15,1.06-2.29,2.14-3.42,3.22
		c-0.28,0.27-0.56,0.54-0.84,0.81c-1.12,1.08-2.23,2.16-3.32,3.26c-0.01,0.01-0.02,0.02-0.03,0.03c-1.11,1.1-2.2,2.22-3.28,3.35
		c-0.27,0.28-0.55,0.57-0.82,0.85c-1.07,1.12-2.14,2.25-3.2,3.38c-0.01,0.01-0.02,0.02-0.03,0.03c-1.06,1.15-2.11,2.3-3.15,3.47
		c-0.26,0.29-0.53,0.59-0.79,0.88c-1.03,1.16-2.06,2.33-3.07,3.51c-0.01,0.01-0.01,0.01-0.02,0.02c-1.02,1.19-2.02,2.38-3.02,3.59
		c-0.25,0.3-0.5,0.6-0.75,0.91c-0.99,1.21-1.98,2.42-2.95,3.65c-0.66,0.83-1.31,1.67-1.96,2.51c-0.19,0.25-0.38,0.5-0.57,0.75
		c-0.48,0.62-0.95,1.25-1.43,1.87c-0.19,0.25-0.38,0.51-0.57,0.76c-0.62,0.83-1.24,1.66-1.85,2.5c-0.01,0.02-0.03,0.04-0.04,0.06
		c-0.63,0.86-1.25,1.72-1.86,2.58c-0.18,0.26-0.36,0.51-0.55,0.77c-0.45,0.64-0.9,1.28-1.35,1.92c-0.18,0.26-0.37,0.53-0.55,0.79
		c-0.57,0.83-1.14,1.66-1.7,2.49c-0.03,0.05-0.07,0.1-0.1,0.14c-0.59,0.88-1.18,1.76-1.76,2.65c-0.17,0.26-0.34,0.53-0.51,0.79
		c-0.43,0.66-0.85,1.31-1.27,1.97c-0.17,0.27-0.35,0.55-0.52,0.82c-0.53,0.83-1.05,1.66-1.56,2.49c-0.04,0.07-0.09,0.14-0.13,0.21
		c-0.56,0.9-1.11,1.8-1.65,2.71c-0.16,0.27-0.32,0.54-0.48,0.81c-0.4,0.67-0.8,1.34-1.19,2.01c-0.17,0.28-0.33,0.57-0.5,0.85
		c-0.48,0.82-0.95,1.65-1.42,2.48c-0.06,0.1-0.11,0.19-0.17,0.29c-0.01,0.02-0.02,0.03-0.03,0.05l-19.22-15.17
		C458.12,624.23,457.65,621.09,460.33,617.69z M731.54,773.53c0,9.06-7.37,16.43-16.43,16.43c-9.06,0-16.43-7.37-16.43-16.43
		c0-9.06,7.37-16.43,16.43-16.43C724.17,757.1,731.54,764.47,731.54,773.53z M715.11,1023.03c-63.14,0-123.58-23.92-169.48-66.4
		h61.96c32.49,19.12,69.59,29.2,107.52,29.2c28.66,0,56.46-5.62,82.65-16.69c25.28-10.69,47.99-26,67.48-45.5
		c19.49-19.49,34.8-42.2,45.5-67.48c11.07-26.18,16.69-53.99,16.69-82.65c0-28.66-5.61-56.46-16.69-82.65
		c-10.69-25.28-26-47.99-45.5-67.48c-19.49-19.49-42.2-34.8-67.48-45.5c-26.18-11.07-53.99-16.69-82.65-16.69
		c-24.04,0-47.64,3.99-70.14,11.86c-21.75,7.61-42.02,18.68-60.27,32.9c-18.06,14.07-33.65,30.86-46.34,49.89
		c-11.26,16.88-19.97,35.14-25.97,54.39H473.7c4.32-16.53,10.35-32.6,17.99-47.92c2.42-4.86,4.99-9.62,7.7-14.28
		c14.64-25.17,33.43-47.4,56.03-66.24c39.39-32.85,87.16-52.51,138.15-56.87c7.1-0.61,14.35-0.92,21.54-0.92
		c1.88,0,3.77,0.02,5.66,0.07c5.31,0.12,10.63,0.4,15.88,0.85c52.51,4.49,101.41,25.11,141.4,59.63c0.04,0.03,0.08,0.06,0.11,0.1
		c0.42,0.36,0.83,0.72,1.24,1.09c0.4,0.35,0.8,0.69,1.19,1.04c0.42,0.37,0.83,0.75,1.25,1.12c0.39,0.35,0.79,0.7,1.18,1.06
		c0.41,0.38,0.82,0.76,1.23,1.13c0.39,0.36,0.78,0.71,1.16,1.07c0.41,0.38,0.82,0.77,1.22,1.16c0.38,0.36,0.76,0.71,1.14,1.07
		c0.41,0.39,0.81,0.78,1.21,1.17c0.37,0.36,0.75,0.72,1.12,1.08c0.4,0.4,0.8,0.8,1.21,1.2c0.36,0.36,0.73,0.72,1.09,1.08
		c0.4,0.4,0.8,0.81,1.2,1.22c0.36,0.36,0.71,0.73,1.07,1.09c0.39,0.41,0.78,0.82,1.17,1.23c0.35,0.37,0.71,0.74,1.06,1.11
		c0.39,0.42,0.78,0.84,1.17,1.25c0.34,0.37,0.69,0.74,1.03,1.11c0.39,0.43,0.78,0.86,1.17,1.28c0.33,0.37,0.67,0.73,1,1.1
		c0.39,0.44,0.77,0.88,1.16,1.31c0.32,0.37,0.65,0.73,0.97,1.1c0.39,0.45,0.78,0.9,1.17,1.35c0.31,0.36,0.62,0.72,0.93,1.09
		c0.39,0.46,0.77,0.92,1.16,1.38c0.3,0.36,0.61,0.72,0.91,1.09c0.38,0.46,0.76,0.93,1.14,1.4c0.3,0.36,0.59,0.72,0.89,1.09
		c0.38,0.47,0.75,0.95,1.13,1.42c0.29,0.37,0.58,0.73,0.87,1.1c0.38,0.48,0.75,0.97,1.13,1.45c0.28,0.36,0.56,0.72,0.84,1.09
		c0.38,0.49,0.74,0.99,1.12,1.48c0.27,0.36,0.55,0.72,0.82,1.09c0.37,0.5,0.74,1.01,1.11,1.51c0.26,0.36,0.53,0.72,0.79,1.08
		c0.38,0.53,0.76,1.06,1.14,1.59c0.24,0.34,0.49,0.68,0.73,1.02c0.38,0.54,0.76,1.09,1.13,1.63c0.23,0.34,0.47,0.67,0.7,1.01
		c0.37,0.55,0.74,1.1,1.11,1.65c0.23,0.34,0.46,0.68,0.69,1.02c0.38,0.57,0.75,1.14,1.12,1.71c0.21,0.33,0.43,0.65,0.64,0.98
		c0.38,0.59,0.75,1.18,1.13,1.77c0.2,0.32,0.4,0.63,0.6,0.94c0.36,0.58,0.72,1.16,1.08,1.74c0.21,0.33,0.41,0.66,0.62,1
		c0.36,0.59,0.71,1.18,1.06,1.77c0.2,0.33,0.4,0.66,0.6,0.99c0.37,0.62,0.73,1.25,1.09,1.87c0.18,0.3,0.36,0.61,0.53,0.91
		c0.36,0.63,0.72,1.26,1.07,1.89c0.17,0.31,0.35,0.61,0.52,0.92c0.36,0.65,0.72,1.3,1.08,1.96c0.16,0.29,0.32,0.58,0.48,0.88
		c0.35,0.64,0.69,1.29,1.03,1.93c0.16,0.31,0.33,0.62,0.49,0.93c0.36,0.69,0.71,1.37,1.07,2.06c0.14,0.27,0.28,0.54,0.42,0.81
		c0.4,0.8,0.8,1.6,1.2,2.4c0.08,0.17,0.17,0.34,0.25,0.51c0.48,0.97,0.95,1.95,1.42,2.93c0,0,0,0,0,0
		c16.06,33.64,24.21,69.75,24.21,107.34C964.62,911.1,852.69,1023.03,715.11,1023.03z M978.74,624.57l-24.13,19.05
		c-0.49-0.9-0.99-1.8-1.49-2.7c-0.15-0.27-0.3-0.54-0.46-0.81c-0.38-0.68-0.77-1.35-1.15-2.03c-0.16-0.29-0.33-0.57-0.49-0.86
		c-0.48-0.82-0.96-1.65-1.44-2.47c-0.06-0.09-0.11-0.19-0.17-0.28c-0.54-0.9-1.08-1.81-1.63-2.7c-0.16-0.27-0.33-0.54-0.49-0.8
		c-0.41-0.66-0.82-1.32-1.23-1.98c-0.17-0.28-0.35-0.55-0.52-0.83c-0.52-0.83-1.05-1.66-1.59-2.48c-0.04-0.07-0.09-0.13-0.13-0.2
		c-0.57-0.89-1.16-1.77-1.74-2.65c-0.17-0.26-0.35-0.52-0.52-0.78c-0.44-0.65-0.88-1.3-1.32-1.95c-0.18-0.26-0.36-0.53-0.54-0.79
		c-0.58-0.85-1.17-1.69-1.76-2.53c-0.02-0.03-0.04-0.05-0.06-0.08c-0.61-0.87-1.23-1.73-1.85-2.59c-0.18-0.25-0.36-0.5-0.54-0.74
		c-0.47-0.64-0.94-1.29-1.41-1.93c-0.18-0.25-0.36-0.49-0.55-0.74c-0.64-0.85-1.28-1.7-1.92-2.55c-0.64-0.84-1.29-1.68-1.95-2.51
		c-0.19-0.24-0.38-0.48-0.57-0.72c-0.49-0.62-0.97-1.23-1.46-1.84c-0.2-0.25-0.4-0.49-0.6-0.74c-0.63-0.78-1.26-1.55-1.89-2.32
		c-0.04-0.05-0.08-0.09-0.12-0.14c-0.67-0.81-1.35-1.62-2.03-2.42c-0.2-0.24-0.41-0.48-0.61-0.71c-0.5-0.59-1.01-1.17-1.51-1.76
		c-0.22-0.25-0.43-0.5-0.65-0.75c-0.61-0.7-1.22-1.39-1.84-2.08c-0.09-0.1-0.18-0.2-0.27-0.3c-0.7-0.78-1.4-1.56-2.11-2.33
		c-0.21-0.23-0.43-0.46-0.64-0.69c-0.52-0.56-1.04-1.12-1.57-1.68c-0.23-0.25-0.47-0.5-0.7-0.75c-0.61-0.64-1.22-1.28-1.84-1.92
		c-0.12-0.13-0.24-0.25-0.36-0.38c-0.73-0.75-1.46-1.5-2.2-2.24c-0.22-0.22-0.44-0.44-0.65-0.65c-0.54-0.55-1.09-1.09-1.64-1.63
		c-0.24-0.24-0.49-0.48-0.73-0.72c-0.62-0.6-1.23-1.2-1.85-1.8c-0.14-0.14-0.29-0.28-0.43-0.42c-0.03-0.03-0.07-0.06-0.1-0.1
		l23.15-18.27c0.09-0.07,0.6-0.19,1.5,0.02c1.68,0.39,3.43,1.6,4.78,3.32l44.28,56.1C979.64,621.09,979.17,624.22,978.74,624.57z"/>
	<path class="st0" d="M546.76,781.44c0-6.33-5.13-11.46-11.46-11.46H223.47c-6.33,0-11.46,5.13-11.46,11.46s5.13,11.46,11.46,11.46
		H535.3C541.63,792.9,546.76,787.77,546.76,781.44z"/>
	<path class="st0" d="M277.96,841.17c0,6.33,5.13,11.46,11.46,11.46h311.83c6.33,0,11.46-5.13,11.46-11.46s-5.13-11.46-11.46-11.46
		H289.41C283.09,829.71,277.96,834.84,277.96,841.17z"/>
	<path class="st0" d="M574.46,900.9c0-6.33-5.13-11.46-11.46-11.46H251.16c-6.33,0-11.46,5.13-11.46,11.46s5.13,11.46,11.46,11.46
		H563C569.33,912.35,574.46,907.22,574.46,900.9z"/>
</g>
<g>
	<g>
		<path class="st0" d="M2228.75,603.49l-44.28-56.1c-4.57-5.8-10.8-9.86-17.54-11.43c-7.58-1.77-15.2-0.21-20.91,4.3l-26.47,20.89
			c-19.42-15.62-40.8-28.47-63.68-38.25c-23.3-9.96-47.8-16.56-72.97-19.69v-18.38h19.73c6.33,0,11.46-5.13,11.46-11.46v-49.19
			c0-7.28-3.49-14.23-9.58-19.08c-5.41-4.31-12.46-6.69-19.84-6.69h-71.47c-7.38,0-14.43,2.37-19.84,6.69
			c-6.09,4.85-9.58,11.8-9.58,19.08v49.19c0,6.33,5.13,11.46,11.46,11.46h19.73v18.38c-24.37,3.03-48.14,9.33-70.79,18.77
			c-22.3,9.3-43.23,21.52-62.33,36.38l-22.94-18.1c-5.71-4.51-13.33-6.08-20.91-4.3c-6.74,1.58-12.97,5.64-17.54,11.43l-44.28,56.1
			c-4.57,5.79-7.07,12.8-7.04,19.72c0.04,7.78,3.33,14.83,9.04,19.34l22.81,18c-7.29,15.97-13.01,32.62-17.07,49.7h-178.01
			c-6.33,0-11.46,5.13-11.46,11.46s5.13,11.46,11.46,11.46h187.22h61.71h62.91c6.33,0,11.46-5.13,11.46-11.46
			s-5.13-11.46-11.46-11.46h-47.38c25.25-71.4,91.21-121.2,167.12-125.78v151.41c-16.12,4.92-27.89,19.93-27.89,37.64
			c0,21.69,17.65,39.34,39.34,39.34s39.34-17.65,39.34-39.34c0-17.71-11.76-32.72-27.89-37.64V584.47
			c99.12,5.94,177.94,88.47,177.94,189.05c0,104.44-84.96,189.4-189.4,189.4c-16.48,0-32.78-2.14-48.51-6.29h31.69
			c6.33,0,11.46-5.13,11.46-11.46c0-6.33-5.13-11.46-11.46-11.46h-87.53h-92.21h-132.09c-6.33,0-11.46,5.13-11.46,11.46
			c0,6.33,5.13,11.46,11.46,11.46h126.97c11.57,12.74,24.37,24.41,38.11,34.75c15.26,11.47,31.75,21.36,49.01,29.37
			c36.02,16.72,74.56,25.19,114.57,25.19c36.77,0,72.45-7.2,106.04-21.41c32.44-13.72,61.57-33.36,86.59-58.38
			c25.01-25.01,44.66-54.15,58.38-86.59c14.21-33.59,21.41-69.27,21.41-106.04c0-20.59-2.31-41.12-6.86-61.01
			c-3.75-16.37-9.04-32.42-15.77-47.83l28.04-22.13c0,0,0,0,0,0c5.71-4.51,9-11.56,9.04-19.34
			C2235.82,616.29,2233.32,609.29,2228.75,603.49z M1906.68,424.19c0-0.55,2.17-2.86,6.51-2.86h71.47c4.34,0,6.51,2.31,6.51,2.86
			v37.73h-19.73h-45.03h-19.73V424.19z M1959.98,484.83v16.5c-0.43-0.02-0.86-0.03-1.29-0.05c-0.4-0.01-0.8-0.03-1.2-0.04
			c-0.57-0.02-1.14-0.03-1.72-0.05c-0.38-0.01-0.76-0.02-1.15-0.03c-0.63-0.01-1.26-0.02-1.9-0.03c-0.32,0-0.64-0.01-0.96-0.01
			c-0.95-0.01-1.9-0.02-2.85-0.02s-1.9,0.01-2.85,0.02c-0.32,0-0.64,0.01-0.96,0.01c-0.63,0.01-1.26,0.02-1.9,0.03
			c-0.38,0.01-0.76,0.02-1.14,0.03c-0.57,0.01-1.15,0.03-1.72,0.05c-0.4,0.01-0.8,0.03-1.2,0.04c-0.43,0.02-0.86,0.03-1.29,0.05
			v-16.5H1959.98z M1694.15,617.69l44.28-56.1c1.35-1.71,3.09-2.92,4.78-3.32c0.37-0.09,0.68-0.12,0.92-0.12
			c0.33,0,0.52,0.06,0.57,0.1l19.31,15.24c0,0,0,0,0,0c-1.15,1.06-2.29,2.14-3.42,3.22c-0.28,0.27-0.56,0.54-0.84,0.81
			c-1.12,1.08-2.23,2.16-3.32,3.26c-0.01,0.01-0.02,0.02-0.03,0.03c-1.11,1.1-2.2,2.22-3.28,3.35c-0.27,0.28-0.55,0.57-0.82,0.85
			c-1.07,1.12-2.14,2.25-3.2,3.38c-0.01,0.01-0.02,0.02-0.03,0.03c-1.06,1.15-2.11,2.3-3.15,3.47c-0.26,0.29-0.53,0.59-0.79,0.88
			c-1.03,1.16-2.06,2.33-3.07,3.51c-0.01,0.01-0.01,0.01-0.02,0.02c-1.02,1.19-2.02,2.38-3.02,3.59c-0.25,0.3-0.5,0.6-0.75,0.91
			c-0.99,1.21-1.98,2.42-2.95,3.65c-0.66,0.83-1.31,1.67-1.96,2.51c-0.19,0.25-0.38,0.5-0.57,0.75c-0.48,0.62-0.95,1.25-1.43,1.87
			c-0.19,0.25-0.38,0.51-0.57,0.76c-0.62,0.83-1.24,1.66-1.85,2.5c-0.01,0.02-0.03,0.04-0.04,0.06c-0.63,0.86-1.25,1.72-1.86,2.58
			c-0.18,0.26-0.36,0.51-0.55,0.77c-0.45,0.64-0.9,1.28-1.35,1.92c-0.18,0.26-0.37,0.53-0.55,0.79c-0.57,0.83-1.14,1.66-1.7,2.49
			c-0.03,0.05-0.07,0.1-0.1,0.14c-0.59,0.88-1.18,1.76-1.76,2.65c-0.17,0.26-0.34,0.53-0.51,0.79c-0.43,0.66-0.85,1.31-1.27,1.97
			c-0.17,0.27-0.35,0.55-0.52,0.82c-0.53,0.83-1.05,1.66-1.56,2.49c-0.04,0.07-0.09,0.14-0.13,0.21c-0.56,0.9-1.11,1.8-1.65,2.71
			c-0.16,0.27-0.32,0.54-0.48,0.81c-0.4,0.67-0.8,1.34-1.19,2.01c-0.17,0.28-0.33,0.57-0.5,0.85c-0.48,0.82-0.95,1.65-1.42,2.48
			c-0.06,0.1-0.11,0.19-0.17,0.29c-0.01,0.02-0.02,0.03-0.03,0.05l-19.22-15.17C1691.93,624.23,1691.46,621.09,1694.15,617.69z
			 M1965.35,773.53c0,9.06-7.37,16.43-16.43,16.43s-16.43-7.37-16.43-16.43c0-9.06,7.37-16.43,16.43-16.43
			S1965.35,764.47,1965.35,773.53z M1948.92,1023.03c-63.14,0-123.58-23.92-169.48-66.4h61.96c32.49,19.12,69.59,29.2,107.52,29.2
			c28.66,0,56.46-5.62,82.65-16.69c25.28-10.69,47.99-26,67.48-45.5c19.49-19.49,34.8-42.2,45.5-67.48
			c11.07-26.18,16.69-53.99,16.69-82.65c0-28.66-5.61-56.46-16.69-82.65c-10.69-25.28-26-47.99-45.5-67.48
			c-19.49-19.49-42.2-34.8-67.48-45.5c-26.18-11.07-53.99-16.69-82.65-16.69c-24.04,0-47.64,3.99-70.14,11.86
			c-21.75,7.61-42.02,18.68-60.27,32.9c-18.06,14.07-33.65,30.86-46.34,49.89c-11.26,16.88-19.97,35.14-25.97,54.39h-38.69
			c4.32-16.53,10.35-32.6,17.99-47.92c2.42-4.86,4.99-9.62,7.7-14.28c14.64-25.17,33.43-47.4,56.03-66.24
			c39.39-32.85,87.16-52.51,138.15-56.87c7.1-0.61,14.35-0.92,21.54-0.92c1.88,0,3.77,0.02,5.66,0.07
			c5.31,0.12,10.63,0.4,15.88,0.85c52.51,4.49,101.41,25.11,141.4,59.63c0.04,0.03,0.08,0.06,0.11,0.1
			c0.42,0.36,0.83,0.72,1.24,1.09c0.4,0.35,0.8,0.69,1.19,1.04c0.42,0.37,0.83,0.75,1.25,1.12c0.39,0.35,0.79,0.7,1.18,1.06
			c0.41,0.38,0.82,0.76,1.23,1.13c0.39,0.36,0.78,0.71,1.16,1.07c0.41,0.38,0.82,0.77,1.22,1.16c0.38,0.36,0.76,0.71,1.14,1.07
			c0.41,0.39,0.81,0.78,1.21,1.17c0.37,0.36,0.75,0.72,1.12,1.08c0.4,0.4,0.8,0.8,1.21,1.2c0.36,0.36,0.73,0.72,1.09,1.08
			c0.4,0.4,0.8,0.81,1.2,1.22c0.36,0.36,0.71,0.73,1.07,1.09c0.39,0.41,0.78,0.82,1.17,1.23c0.35,0.37,0.71,0.74,1.06,1.11
			c0.39,0.42,0.78,0.84,1.17,1.25c0.34,0.37,0.69,0.74,1.03,1.11c0.39,0.43,0.78,0.86,1.17,1.28c0.33,0.37,0.67,0.73,1,1.1
			c0.39,0.44,0.77,0.88,1.16,1.31c0.32,0.37,0.65,0.73,0.97,1.1c0.39,0.45,0.78,0.9,1.17,1.35c0.31,0.36,0.62,0.72,0.93,1.09
			c0.39,0.46,0.77,0.92,1.16,1.38c0.3,0.36,0.61,0.72,0.91,1.09c0.38,0.46,0.76,0.93,1.14,1.4c0.3,0.36,0.59,0.72,0.89,1.09
			c0.38,0.47,0.75,0.95,1.13,1.42c0.29,0.37,0.58,0.73,0.87,1.1c0.38,0.48,0.75,0.97,1.13,1.45c0.28,0.36,0.56,0.72,0.84,1.09
			c0.38,0.49,0.74,0.99,1.12,1.48c0.27,0.36,0.55,0.72,0.82,1.09c0.37,0.5,0.74,1.01,1.11,1.51c0.26,0.36,0.53,0.72,0.79,1.08
			c0.38,0.53,0.76,1.06,1.14,1.59c0.24,0.34,0.49,0.68,0.73,1.02c0.38,0.54,0.76,1.09,1.13,1.63c0.23,0.34,0.47,0.67,0.7,1.01
			c0.37,0.55,0.74,1.1,1.11,1.65c0.23,0.34,0.46,0.68,0.69,1.02c0.38,0.57,0.75,1.14,1.12,1.71c0.21,0.33,0.43,0.65,0.64,0.98
			c0.38,0.59,0.75,1.18,1.13,1.77c0.2,0.32,0.4,0.63,0.6,0.94c0.36,0.58,0.72,1.16,1.08,1.74c0.21,0.33,0.41,0.66,0.62,1
			c0.36,0.59,0.71,1.18,1.06,1.77c0.2,0.33,0.4,0.66,0.6,0.99c0.37,0.62,0.73,1.25,1.09,1.87c0.18,0.3,0.36,0.61,0.53,0.91
			c0.36,0.63,0.72,1.26,1.07,1.89c0.17,0.31,0.35,0.61,0.52,0.92c0.36,0.65,0.72,1.3,1.08,1.96c0.16,0.29,0.32,0.58,0.48,0.88
			c0.35,0.64,0.69,1.29,1.03,1.93c0.16,0.31,0.33,0.62,0.49,0.93c0.36,0.69,0.71,1.37,1.07,2.06c0.14,0.27,0.28,0.54,0.42,0.81
			c0.41,0.8,0.8,1.6,1.2,2.4c0.08,0.17,0.17,0.34,0.25,0.51c0.48,0.97,0.95,1.95,1.42,2.93c0,0,0,0,0,0
			c16.06,33.64,24.21,69.75,24.21,107.34C2198.43,911.1,2086.5,1023.03,1948.92,1023.03z M2212.55,624.57l-24.13,19.05
			c-0.49-0.9-0.99-1.8-1.49-2.7c-0.15-0.27-0.3-0.54-0.46-0.81c-0.38-0.68-0.77-1.35-1.15-2.03c-0.16-0.29-0.33-0.57-0.49-0.86
			c-0.48-0.82-0.96-1.65-1.45-2.47c-0.06-0.09-0.11-0.19-0.17-0.28c-0.54-0.9-1.08-1.81-1.63-2.7c-0.16-0.27-0.33-0.54-0.49-0.8
			c-0.41-0.66-0.82-1.32-1.23-1.98c-0.17-0.28-0.35-0.55-0.52-0.83c-0.52-0.83-1.05-1.66-1.59-2.48c-0.04-0.07-0.09-0.13-0.13-0.2
			c-0.57-0.89-1.16-1.77-1.74-2.65c-0.17-0.26-0.35-0.52-0.52-0.78c-0.44-0.65-0.88-1.3-1.32-1.95c-0.18-0.26-0.36-0.53-0.54-0.79
			c-0.58-0.85-1.17-1.69-1.76-2.53c-0.02-0.03-0.04-0.05-0.06-0.08c-0.61-0.87-1.23-1.73-1.85-2.59c-0.18-0.25-0.36-0.5-0.54-0.74
			c-0.47-0.64-0.94-1.29-1.41-1.93c-0.18-0.25-0.36-0.49-0.55-0.74c-0.64-0.85-1.28-1.7-1.92-2.55c-0.64-0.84-1.29-1.68-1.95-2.51
			c-0.19-0.24-0.38-0.48-0.57-0.72c-0.49-0.62-0.97-1.23-1.46-1.84c-0.2-0.25-0.4-0.49-0.6-0.74c-0.63-0.78-1.26-1.55-1.89-2.32
			c-0.04-0.05-0.08-0.09-0.12-0.14c-0.67-0.81-1.35-1.62-2.03-2.42c-0.2-0.24-0.41-0.48-0.61-0.71c-0.5-0.59-1.01-1.17-1.51-1.76
			c-0.22-0.25-0.43-0.5-0.65-0.75c-0.61-0.7-1.22-1.39-1.84-2.08c-0.09-0.1-0.18-0.2-0.27-0.3c-0.7-0.78-1.4-1.56-2.11-2.33
			c-0.21-0.23-0.43-0.46-0.64-0.69c-0.52-0.56-1.04-1.12-1.57-1.68c-0.23-0.25-0.47-0.5-0.7-0.75c-0.61-0.64-1.22-1.28-1.84-1.92
			c-0.12-0.13-0.24-0.25-0.36-0.38c-0.73-0.75-1.46-1.5-2.2-2.24c-0.22-0.22-0.44-0.44-0.65-0.65c-0.54-0.55-1.09-1.09-1.64-1.63
			c-0.24-0.24-0.49-0.48-0.73-0.72c-0.61-0.6-1.23-1.2-1.85-1.8c-0.14-0.14-0.29-0.28-0.43-0.42c-0.03-0.03-0.07-0.06-0.1-0.1
			l23.15-18.27c0.09-0.07,0.6-0.19,1.5,0.02c1.68,0.39,3.43,1.6,4.78,3.32l44.28,56.1C2213.45,621.09,2212.98,624.22,2212.55,624.57
			z"/>
		<path class="st0" d="M1780.57,781.44c0-6.33-5.13-11.46-11.46-11.46h-311.84c-6.33,0-11.46,5.13-11.46,11.46
			s5.13,11.46,11.46,11.46h311.84C1775.44,792.9,1780.57,787.77,1780.57,781.44z"/>
		<path class="st0" d="M1511.77,841.17c0,6.33,5.13,11.46,11.46,11.46h311.83c6.33,0,11.46-5.13,11.46-11.46
			s-5.13-11.46-11.46-11.46h-311.83C1516.9,829.71,1511.77,834.84,1511.77,841.17z"/>
		<path class="st0" d="M1808.27,900.9c0-6.33-5.13-11.46-11.46-11.46h-311.83c-6.33,0-11.46,5.13-11.46,11.46
			s5.13,11.46,11.46,11.46h311.83C1803.14,912.35,1808.27,907.22,1808.27,900.9z"/>
	</g>
	<g>
		<path class="st0" d="M1851.98,1289.5c-73.3,0-144.41-14.36-211.36-42.68c-64.66-27.35-122.73-66.5-172.6-116.36
			s-89.02-107.93-116.36-172.6c-28.32-66.95-42.68-138.07-42.68-211.36s14.36-144.41,42.68-211.36
			c27.35-64.66,66.5-122.73,116.36-172.6s107.93-89.01,172.6-116.36c66.95-28.32,138.07-42.68,211.36-42.68
			c73.3,0,144.41,14.36,211.36,42.68c64.66,27.35,122.73,66.5,172.6,116.36c49.86,49.86,89.01,107.93,116.36,172.6
			c28.32,66.95,42.68,138.07,42.68,211.36s-14.36,144.41-42.68,211.36c-27.35,64.66-66.5,122.73-116.36,172.6
			c-49.86,49.86-107.93,89.02-172.6,116.36C1996.4,1275.14,1925.28,1289.5,1851.98,1289.5z M1851.98,229.67
			c-284.98,0-516.83,231.85-516.83,516.83s231.85,516.83,516.83,516.83s516.83-231.85,516.83-516.83S2136.97,229.67,1851.98,229.67z
			"/>
	</g>
	<path class="st1" d="M1845.71,722.18c0,0-2.2,0-4.91,0c-2.71,0-4.91,0-4.91,0s2.2,0,4.91,0
		C1843.52,722.18,1845.71,722.18,1845.71,722.18z"/>
</g>
<g>
	<g>
		<path class="st0" d="M3787.99,746.5c0,73.29-14.36,144.41-42.68,211.37c-27.35,64.66-66.5,122.73-116.36,172.59
			c-49.86,49.86-107.94,89.02-172.59,116.36c-66.96,28.32-138.07,42.68-211.37,42.68c-73.29,0-144.41-14.36-211.37-42.68
			c-64.66-27.35-122.73-66.5-172.59-116.36c-49.86-49.86-89.02-107.94-116.36-172.59c-28.32-66.96-42.68-138.07-42.68-211.37
			s14.36-144.41,42.68-211.37c27.35-64.66,66.5-122.73,116.36-172.59c49.86-49.86,107.94-89.02,172.59-116.36
			c66.96-28.32,138.07-42.68,211.37-42.68c73.29,0,144.41,14.36,211.37,42.68c64.66,27.35,122.73,66.5,172.59,116.36
			c49.86,49.86,89.02,107.94,116.36,172.59C3773.63,602.09,3787.99,673.21,3787.99,746.5z"/>
	</g>
	<path class="st1" d="M3238.72,722.18c0,0-2.2,0-4.91,0c-2.71,0-4.91,0-4.91,0s2.2,0,4.91,0
		C3236.52,722.18,3238.72,722.18,3238.72,722.18z"/>
	<g>
		<path class="st2" d="M3621.75,603.49l-44.28-56.1c-4.57-5.8-10.8-9.86-17.54-11.43c-7.58-1.77-15.2-0.21-20.91,4.3l-26.47,20.89
			c-19.42-15.62-40.8-28.47-63.68-38.25c-23.3-9.96-47.8-16.56-72.97-19.69v-18.38h19.73c6.33,0,11.46-5.13,11.46-11.46v-49.19
			c0-7.28-3.49-14.23-9.58-19.08c-5.41-4.31-12.46-6.69-19.84-6.69h-71.47c-7.38,0-14.43,2.37-19.84,6.69
			c-6.09,4.85-9.58,11.8-9.58,19.08v49.19c0,6.33,5.13,11.46,11.46,11.46h19.73v18.38c-24.37,3.03-48.14,9.33-70.79,18.77
			c-22.3,9.3-43.23,21.52-62.33,36.38l-22.94-18.1c-5.71-4.51-13.33-6.08-20.91-4.3c-6.74,1.58-12.97,5.64-17.54,11.43l-44.28,56.1
			c-4.57,5.79-7.07,12.8-7.04,19.72c0.04,7.78,3.33,14.83,9.04,19.34l22.81,18c-7.29,15.97-13.01,32.62-17.07,49.7h-178.01
			c-6.33,0-11.46,5.13-11.46,11.46s5.13,11.46,11.46,11.46h187.22h61.71h62.91c6.33,0,11.46-5.13,11.46-11.46
			s-5.13-11.46-11.46-11.46h-47.38c25.25-71.4,91.21-121.2,167.12-125.78v151.41c-16.12,4.92-27.89,19.93-27.89,37.64
			c0,21.69,17.65,39.34,39.34,39.34c21.69,0,39.34-17.65,39.34-39.34c0-17.71-11.76-32.72-27.89-37.64V584.47
			c99.12,5.94,177.94,88.47,177.94,189.05c0,104.44-84.96,189.4-189.4,189.4c-16.48,0-32.78-2.14-48.51-6.29h31.69
			c6.33,0,11.46-5.13,11.46-11.46c0-6.33-5.13-11.46-11.46-11.46h-87.53h-92.21h-132.09c-6.33,0-11.46,5.13-11.46,11.46
			c0,6.33,5.13,11.46,11.46,11.46h126.97c11.57,12.74,24.37,24.41,38.11,34.75c15.26,11.47,31.75,21.36,49.01,29.37
			c36.02,16.72,74.56,25.19,114.57,25.19c36.77,0,72.45-7.2,106.04-21.41c32.44-13.72,61.57-33.36,86.59-58.38
			c25.01-25.01,44.66-54.15,58.38-86.59c14.21-33.59,21.41-69.27,21.41-106.04c0-20.59-2.31-41.12-6.86-61.01
			c-3.75-16.37-9.04-32.42-15.77-47.83l28.04-22.13c0,0,0,0,0,0c5.71-4.51,9-11.56,9.04-19.34
			C3628.83,616.29,3626.33,609.29,3621.75,603.49z M3299.68,424.19c0-0.55,2.17-2.86,6.51-2.86h71.47c4.34,0,6.51,2.31,6.51,2.86
			v37.73h-19.73h-45.03h-19.73V424.19z M3352.99,484.83v16.5c-0.43-0.02-0.86-0.03-1.29-0.05c-0.4-0.01-0.8-0.03-1.2-0.04
			c-0.57-0.02-1.14-0.03-1.72-0.05c-0.38-0.01-0.76-0.02-1.15-0.03c-0.63-0.01-1.26-0.02-1.9-0.03c-0.32,0-0.64-0.01-0.96-0.01
			c-0.95-0.01-1.9-0.02-2.85-0.02s-1.9,0.01-2.85,0.02c-0.32,0-0.64,0.01-0.96,0.01c-0.63,0.01-1.26,0.02-1.9,0.03
			c-0.38,0.01-0.76,0.02-1.14,0.03c-0.57,0.01-1.15,0.03-1.72,0.05c-0.4,0.01-0.8,0.03-1.2,0.04c-0.43,0.02-0.86,0.03-1.29,0.05
			v-16.5H3352.99z M3087.15,617.69l44.28-56.1c1.35-1.71,3.09-2.92,4.78-3.32c0.37-0.09,0.68-0.12,0.92-0.12
			c0.33,0,0.52,0.06,0.57,0.1l19.31,15.24c0,0,0,0,0,0c-1.15,1.06-2.29,2.14-3.42,3.22c-0.28,0.27-0.56,0.54-0.84,0.81
			c-1.12,1.08-2.23,2.16-3.32,3.26c-0.01,0.01-0.02,0.02-0.03,0.03c-1.11,1.1-2.2,2.22-3.28,3.35c-0.27,0.28-0.55,0.57-0.82,0.85
			c-1.07,1.12-2.14,2.25-3.2,3.38c-0.01,0.01-0.02,0.02-0.03,0.03c-1.06,1.15-2.11,2.3-3.15,3.47c-0.26,0.29-0.53,0.59-0.79,0.88
			c-1.03,1.16-2.06,2.33-3.07,3.51c-0.01,0.01-0.01,0.01-0.02,0.02c-1.02,1.19-2.02,2.38-3.02,3.59c-0.25,0.3-0.5,0.6-0.75,0.91
			c-0.99,1.21-1.98,2.42-2.95,3.65c-0.66,0.83-1.31,1.67-1.96,2.51c-0.19,0.25-0.38,0.5-0.57,0.75c-0.48,0.62-0.95,1.25-1.43,1.87
			c-0.19,0.25-0.38,0.51-0.57,0.76c-0.62,0.83-1.24,1.66-1.85,2.5c-0.01,0.02-0.03,0.04-0.04,0.06c-0.63,0.86-1.25,1.72-1.86,2.58
			c-0.18,0.26-0.36,0.51-0.55,0.77c-0.45,0.64-0.9,1.28-1.35,1.92c-0.18,0.26-0.37,0.53-0.55,0.79c-0.57,0.83-1.14,1.66-1.7,2.49
			c-0.03,0.05-0.07,0.1-0.1,0.14c-0.59,0.88-1.18,1.76-1.76,2.65c-0.17,0.26-0.34,0.53-0.51,0.79c-0.43,0.66-0.85,1.31-1.27,1.97
			c-0.17,0.27-0.35,0.55-0.52,0.82c-0.53,0.83-1.05,1.66-1.56,2.49c-0.04,0.07-0.09,0.14-0.13,0.21c-0.56,0.9-1.1,1.8-1.65,2.71
			c-0.16,0.27-0.32,0.54-0.48,0.81c-0.4,0.67-0.8,1.34-1.19,2.01c-0.17,0.28-0.33,0.57-0.5,0.85c-0.48,0.82-0.95,1.65-1.42,2.48
			c-0.06,0.1-0.11,0.19-0.17,0.29c-0.01,0.02-0.02,0.03-0.03,0.05l-19.22-15.17C3084.93,624.23,3084.46,621.09,3087.15,617.69z
			 M3358.36,773.53c0,9.06-7.37,16.43-16.43,16.43s-16.43-7.37-16.43-16.43c0-9.06,7.37-16.43,16.43-16.43
			S3358.36,764.47,3358.36,773.53z M3341.93,1023.03c-63.14,0-123.58-23.92-169.48-66.4h61.96c32.49,19.12,69.59,29.2,107.52,29.2
			c28.66,0,56.46-5.62,82.65-16.69c25.28-10.69,47.99-26,67.48-45.5c19.49-19.49,34.8-42.2,45.5-67.48
			c11.07-26.18,16.69-53.99,16.69-82.65c0-28.66-5.61-56.46-16.69-82.65c-10.69-25.28-26-47.99-45.5-67.48
			c-19.49-19.49-42.2-34.8-67.48-45.5c-26.18-11.07-53.99-16.69-82.65-16.69c-24.04,0-47.64,3.99-70.14,11.86
			c-21.75,7.61-42.02,18.68-60.27,32.9c-18.06,14.07-33.65,30.86-46.34,49.89c-11.26,16.88-19.97,35.14-25.97,54.39h-38.69
			c4.32-16.53,10.35-32.6,17.99-47.92c2.42-4.86,4.99-9.62,7.7-14.28c14.64-25.17,33.43-47.4,56.03-66.24
			c39.39-32.85,87.16-52.51,138.15-56.87c7.1-0.61,14.35-0.92,21.54-0.92c1.88,0,3.77,0.02,5.66,0.07
			c5.31,0.12,10.63,0.4,15.88,0.85c52.51,4.49,101.41,25.11,141.4,59.63c0.04,0.03,0.08,0.06,0.11,0.1
			c0.42,0.36,0.83,0.72,1.24,1.09c0.4,0.35,0.8,0.69,1.19,1.04c0.42,0.37,0.83,0.75,1.25,1.12c0.39,0.35,0.79,0.7,1.18,1.06
			c0.41,0.38,0.82,0.76,1.23,1.13c0.39,0.36,0.78,0.71,1.16,1.07c0.41,0.38,0.82,0.77,1.22,1.16c0.38,0.36,0.76,0.71,1.14,1.07
			c0.41,0.39,0.81,0.78,1.21,1.17c0.37,0.36,0.75,0.72,1.12,1.08c0.4,0.4,0.8,0.8,1.21,1.2c0.36,0.36,0.73,0.72,1.09,1.08
			c0.4,0.4,0.8,0.81,1.2,1.22c0.36,0.36,0.71,0.73,1.07,1.09c0.39,0.41,0.78,0.82,1.17,1.23c0.35,0.37,0.71,0.74,1.06,1.11
			c0.39,0.42,0.78,0.84,1.17,1.25c0.34,0.37,0.69,0.74,1.03,1.11c0.39,0.43,0.78,0.86,1.17,1.28c0.33,0.37,0.67,0.73,1,1.1
			c0.39,0.44,0.77,0.88,1.16,1.31c0.32,0.37,0.65,0.73,0.97,1.1c0.39,0.45,0.78,0.9,1.17,1.35c0.31,0.36,0.62,0.72,0.93,1.09
			c0.39,0.46,0.77,0.92,1.16,1.38c0.3,0.36,0.61,0.72,0.91,1.09c0.38,0.46,0.76,0.93,1.14,1.4c0.3,0.36,0.59,0.72,0.89,1.09
			c0.38,0.47,0.75,0.95,1.13,1.42c0.29,0.37,0.58,0.73,0.87,1.1c0.38,0.48,0.75,0.97,1.13,1.45c0.28,0.36,0.56,0.72,0.84,1.09
			c0.38,0.49,0.74,0.99,1.12,1.48c0.27,0.36,0.55,0.72,0.82,1.09c0.37,0.5,0.74,1.01,1.11,1.51c0.26,0.36,0.53,0.72,0.79,1.08
			c0.38,0.53,0.76,1.06,1.14,1.59c0.24,0.34,0.49,0.68,0.73,1.02c0.38,0.54,0.76,1.09,1.13,1.63c0.23,0.34,0.47,0.67,0.7,1.01
			c0.37,0.55,0.74,1.1,1.11,1.65c0.23,0.34,0.46,0.68,0.69,1.02c0.38,0.57,0.75,1.14,1.12,1.71c0.21,0.33,0.43,0.65,0.64,0.98
			c0.38,0.59,0.75,1.18,1.13,1.77c0.2,0.32,0.4,0.63,0.6,0.94c0.36,0.58,0.72,1.16,1.08,1.74c0.21,0.33,0.41,0.66,0.62,1
			c0.36,0.59,0.71,1.18,1.06,1.77c0.2,0.33,0.4,0.66,0.6,0.99c0.37,0.62,0.73,1.25,1.09,1.87c0.18,0.3,0.36,0.61,0.53,0.91
			c0.36,0.63,0.72,1.26,1.07,1.89c0.17,0.31,0.35,0.61,0.52,0.92c0.36,0.65,0.72,1.3,1.08,1.96c0.16,0.29,0.32,0.58,0.48,0.88
			c0.35,0.64,0.69,1.29,1.03,1.93c0.16,0.31,0.33,0.62,0.49,0.93c0.36,0.69,0.71,1.37,1.07,2.06c0.14,0.27,0.28,0.54,0.42,0.81
			c0.41,0.8,0.8,1.6,1.2,2.4c0.08,0.17,0.17,0.34,0.25,0.51c0.48,0.97,0.95,1.95,1.42,2.93c0,0,0,0,0,0
			c16.06,33.64,24.21,69.75,24.21,107.34C3591.43,911.1,3479.5,1023.03,3341.93,1023.03z M3605.56,624.57l-24.13,19.05
			c-0.49-0.9-0.99-1.8-1.49-2.7c-0.15-0.27-0.3-0.54-0.46-0.81c-0.38-0.68-0.77-1.35-1.15-2.03c-0.16-0.29-0.33-0.57-0.5-0.86
			c-0.48-0.82-0.96-1.65-1.44-2.47c-0.06-0.09-0.11-0.19-0.17-0.28c-0.54-0.9-1.08-1.81-1.63-2.7c-0.16-0.27-0.33-0.54-0.49-0.8
			c-0.41-0.66-0.82-1.32-1.23-1.98c-0.17-0.28-0.35-0.55-0.52-0.83c-0.52-0.83-1.05-1.66-1.59-2.48c-0.04-0.07-0.09-0.13-0.13-0.2
			c-0.57-0.89-1.16-1.77-1.74-2.65c-0.17-0.26-0.35-0.52-0.52-0.78c-0.44-0.65-0.88-1.3-1.32-1.95c-0.18-0.26-0.36-0.53-0.54-0.79
			c-0.58-0.85-1.17-1.69-1.76-2.53c-0.02-0.03-0.04-0.05-0.06-0.08c-0.61-0.87-1.23-1.73-1.85-2.59c-0.18-0.25-0.36-0.5-0.54-0.74
			c-0.47-0.64-0.94-1.29-1.41-1.93c-0.18-0.25-0.36-0.49-0.55-0.74c-0.64-0.85-1.28-1.7-1.92-2.55c-0.64-0.84-1.29-1.68-1.95-2.51
			c-0.19-0.24-0.38-0.48-0.57-0.72c-0.49-0.62-0.97-1.23-1.46-1.84c-0.2-0.25-0.4-0.49-0.6-0.74c-0.63-0.78-1.26-1.55-1.89-2.32
			c-0.04-0.05-0.08-0.09-0.12-0.14c-0.67-0.81-1.35-1.62-2.03-2.42c-0.2-0.24-0.41-0.48-0.61-0.71c-0.5-0.59-1.01-1.17-1.51-1.76
			c-0.22-0.25-0.43-0.5-0.65-0.75c-0.61-0.7-1.22-1.39-1.84-2.08c-0.09-0.1-0.18-0.2-0.27-0.3c-0.7-0.78-1.4-1.56-2.11-2.33
			c-0.21-0.23-0.43-0.46-0.64-0.69c-0.52-0.56-1.04-1.12-1.57-1.68c-0.23-0.25-0.47-0.5-0.7-0.75c-0.61-0.64-1.22-1.28-1.84-1.92
			c-0.12-0.13-0.24-0.25-0.36-0.38c-0.73-0.75-1.46-1.5-2.2-2.24c-0.22-0.22-0.44-0.44-0.65-0.65c-0.54-0.55-1.09-1.09-1.64-1.63
			c-0.24-0.24-0.49-0.48-0.73-0.72c-0.61-0.6-1.23-1.2-1.85-1.8c-0.15-0.14-0.29-0.28-0.43-0.42c-0.03-0.03-0.07-0.06-0.1-0.1
			l23.15-18.27c0.09-0.07,0.6-0.19,1.5,0.02c1.68,0.39,3.43,1.6,4.78,3.32l44.28,56.1C3606.45,621.09,3605.99,624.22,3605.56,624.57
			z"/>
		<path class="st2" d="M3173.57,781.44c0-6.33-5.13-11.46-11.46-11.46h-311.83c-6.33,0-11.46,5.13-11.46,11.46
			s5.13,11.46,11.46,11.46h311.83C3168.44,792.9,3173.57,787.77,3173.57,781.44z"/>
		<path class="st2" d="M2904.77,841.17c0,6.33,5.13,11.46,11.46,11.46h311.83c6.33,0,11.46-5.13,11.46-11.46
			s-5.13-11.46-11.46-11.46h-311.83C2909.9,829.71,2904.77,834.84,2904.77,841.17z"/>
		<path class="st2" d="M3201.27,900.9c0-6.33-5.13-11.46-11.46-11.46h-311.83c-6.33,0-11.46,5.13-11.46,11.46
			s5.13,11.46,11.46,11.46h311.83C3196.14,912.35,3201.27,907.22,3201.27,900.9z"/>
	</g>
</g>
</svg>
