<?xml version="1.0" encoding="UTF-8"?>
<svg xmlns="http://www.w3.org/2000/svg" version="1.1" viewBox="0 0 4000 1226.67">
  <defs>
    <style>
      .cls-1 {
        fill: #403c3d;
      }

      .cls-2 {
        fill: #fff;
      }

      .cls-3 {
        stroke: #fff;
        stroke-miterlimit: 10;
        stroke-width: 13.33px;
      }

      .cls-3, .cls-4 {
        fill: none;
      }

      .cls-4 {
        stroke: #403c3d;
        stroke-linecap: round;
        stroke-linejoin: round;
        stroke-width: 10.67px;
      }

      .cls-5 {
        fill: #ef4236;
      }
    </style>
  </defs>
  <!-- Generator: Adobe Illustrator 28.7.0, SVG Export Plug-In . SVG Version: 1.2.0 Build 136)  -->
  <g>
    <g id="Layer_1">
      <polygon class="cls-5" points="848.16 1226.67 .16 1226.67 .16 0 848.16 0 848.16 1226.67 848.16 1226.67"/>
      <polygon class="cls-2" points="848 1226.67 4000 1226.67 4000 0 848 0 848 1226.67 848 1226.67"/>
      <g>
        <polygon class="cls-2" points="312.72 151.22 275.09 161.67 267.32 131.8 323.47 113.89 349.16 113.89 349.16 324.44 312.72 324.44 312.72 151.22 312.72 151.22"/>
        <path class="cls-2" d="M539.11,220.51v-.6c0-41.22-21.21-74.96-53.46-74.96s-52.86,32.85-52.86,74.37v.6c0,41.22,20.91,74.97,53.46,74.97s52.86-33.15,52.86-74.37h0ZM394.85,220.51v-.6c0-59.73,36.44-108.12,91.39-108.12s90.79,47.79,90.79,107.52v.6c0,59.73-36.44,108.12-91.39,108.12s-90.79-47.79-90.79-107.52h0Z"/>
        <polygon class="cls-2" points="266.29 491.38 247.54 491.38 247.54 400.38 266.29 400.38 266.29 491.38 266.29 491.38"/>
        <path class="cls-2" d="M355.1,461.06c-.71,9.79-4.33,17.5-10.85,23.13-6.52,5.63-15.11,8.44-25.78,8.44-11.67,0-20.84-3.93-27.53-11.78-6.69-7.85-10.03-18.63-10.03-32.34v-5.57c0-8.75,1.54-16.46,4.63-23.12,3.08-6.67,7.49-11.78,13.22-15.34,5.73-3.56,12.38-5.34,19.97-5.34,10.5,0,18.96,2.81,25.38,8.44,6.42,5.62,10.12,13.52,11.12,23.69h-18.75c-.46-5.87-2.09-10.14-4.91-12.78-2.81-2.65-7.09-3.97-12.84-3.97-6.25,0-10.93,2.24-14.03,6.72-3.1,4.48-4.7,11.43-4.78,20.84v6.87c0,9.83,1.49,17.02,4.47,21.57,2.98,4.54,7.68,6.81,14.09,6.81,5.79,0,10.11-1.32,12.97-3.97,2.86-2.65,4.49-6.74,4.91-12.28h18.75Z"/>
        <path class="cls-2" d="M423.16,443.82c0-9.54-1.71-16.79-5.13-21.75-3.42-4.96-8.29-7.44-14.62-7.44s-11.15,2.45-14.56,7.34c-3.42,4.9-5.15,12.07-5.19,21.53v4.43c0,9.29,1.71,16.5,5.12,21.63,3.42,5.13,8.33,7.69,14.75,7.69s11.13-2.47,14.5-7.41c3.38-4.94,5.08-12.13,5.13-21.59v-4.44h0ZM442.16,447.94c0,8.96-1.58,16.81-4.75,23.57-3.17,6.75-7.7,11.96-13.59,15.62-5.9,3.67-12.66,5.5-20.28,5.5s-14.27-1.81-20.19-5.44c-5.91-3.62-10.5-8.8-13.75-15.53-3.25-6.73-4.9-14.47-4.94-23.22v-4.5c0-8.96,1.61-16.84,4.84-23.66,3.23-6.81,7.79-12.04,13.69-15.69,5.9-3.65,12.63-5.47,20.22-5.47s14.32,1.82,20.22,5.47c5.9,3.65,10.46,8.87,13.69,15.69,3.23,6.81,4.84,14.68,4.84,23.59v4.06h0Z"/>
        <polygon class="cls-2" points="529.78 491.38 511.03 491.38 474.54 431.5 474.54 491.38 455.78 491.38 455.78 400.38 474.54 400.38 511.1 460.38 511.1 400.38 529.78 400.38 529.78 491.38 529.78 491.38"/>
        <path class="cls-2" d="M593.35,467.5c0-3.54-1.25-6.26-3.75-8.16-2.5-1.9-7-3.9-13.5-6-6.5-2.1-11.65-4.18-15.44-6.22-10.33-5.58-15.5-13.1-15.5-22.56,0-4.92,1.39-9.3,4.16-13.16,2.77-3.85,6.75-6.86,11.94-9.03,5.19-2.17,11.01-3.25,17.47-3.25s12.29,1.18,17.38,3.53c5.08,2.35,9.03,5.68,11.84,9.97,2.81,4.29,4.22,9.17,4.22,14.63h-18.75c0-4.17-1.31-7.41-3.94-9.72-2.62-2.31-6.31-3.47-11.06-3.47s-8.15.97-10.69,2.91c-2.54,1.94-3.81,4.49-3.81,7.66,0,2.96,1.49,5.44,4.47,7.44s7.37,3.87,13.16,5.63c10.67,3.21,18.44,7.19,23.31,11.94,4.87,4.75,7.31,10.67,7.31,17.75,0,7.87-2.98,14.05-8.94,18.53-5.96,4.48-13.98,6.72-24.06,6.72-7,0-13.38-1.28-19.13-3.84-5.75-2.56-10.14-6.07-13.15-10.53-3.02-4.46-4.53-9.63-4.53-15.5h18.81c0,10.04,6,15.06,18,15.06,4.46,0,7.94-.91,10.44-2.72,2.5-1.81,3.75-4.34,3.75-7.59h0Z"/>
        <path class="cls-3" d="M125.33,449.33h74.67M648,452h74.67"/>
      </g>
      <g>
        <path class="cls-2" d="M90.55,827.52v69.48h-15.02v-69.48h15.02Z"/>
        <path class="cls-2" d="M107.17,897.01v-69.48h18.62c8.68,15.6,24.72,43.74,27.91,51.31h.19c-.78-7.25-.77-19.32-.77-30.72v-20.59h13.62v69.48h-17.66c-7.46-13.58-25.24-45.9-28.68-53.93h-.19c.5,6.08.67,20.35.67,32.8v21.13h-13.71Z"/>
        <path class="cls-2" d="M199.98,897.01l-24.52-69.48h16.14l10.33,32.1c3.13,9.71,5.53,17.95,7.13,25.05h.2c1.42-6.48,4.13-14.98,7.44-24.82l10.84-32.32h15.33l-25.17,69.48h-17.72Z"/>
        <path class="cls-2" d="M299.09,867.04h-33.23v17.65h36.66l-1.78,12.31h-49.46v-69.48h49.27v12.31h-34.69v14.89h33.23v12.31Z"/>
        <path class="cls-2" d="M324.64,876.64c1.58,6.98,6.59,10.04,14.63,10.04s11.45-3.17,11.45-8.25c0-5.66-3.35-8.11-15.23-10.87-18.91-4.44-23.58-11.32-23.58-20.7,0-12.11,9.06-20.33,25.51-20.33,18.45,0,25.8,9.92,26.79,20.08h-15.14c-.73-4.28-3.09-8.92-12.05-8.92-6.1,0-9.78,2.52-9.78,7.45s2.95,6.79,14.18,9.4c20.21,4.76,24.64,12.28,24.64,22.08,0,12.69-9.6,21.39-27.97,21.39s-26.93-8.68-28.59-21.35h15.14Z"/>
        <path class="cls-2" d="M391.74,839.84h-21.11v-12.31h57.18v12.31h-21.03v57.17h-15.04v-57.17Z"/>
        <path class="cls-2" d="M495.86,870.94c0-11.86.19-25.15.49-33h-.48c-3.26,14.18-10.21,37.32-16.88,59.06h-12.79c-5.07-19.01-12.25-45.38-15.3-59.25h-.47c.59,8.15.88,22.45.88,34.37v24.89h-13.69v-69.48h22.36c5.42,18.16,11.49,40.93,13.58,51.29h.11c1.7-9.13,9.33-33.48,15.13-51.29h21.55v69.48h-14.49v-26.06Z"/>
        <path class="cls-2" d="M574.82,867.04h-33.23v17.65h36.66l-1.78,12.31h-49.46v-69.48h49.27v12.31h-34.69v14.89h33.23v12.31Z"/>
        <path class="cls-2" d="M588.99,897.01v-69.48h18.62c8.68,15.6,24.72,43.74,27.91,51.31h.19c-.78-7.25-.77-19.32-.77-30.72v-20.59h13.62v69.48h-17.66c-7.46-13.58-25.24-45.9-28.68-53.93h-.19c.5,6.08.67,20.35.67,32.8v21.13h-13.71Z"/>
        <path class="cls-2" d="M679.96,839.84h-21.11v-12.31h57.18v12.31h-21.04v57.17h-15.04v-57.17Z"/>
        <path class="cls-2" d="M757.8,897.01v-49.59c-3.07,1.43-8.68,2.59-11.99,2.88v-10.77c6.29-1.16,12.65-4.73,16.44-8.9h10.19v66.38h-14.65Z"/>
      </g>
      <g>
        <path class="cls-1" d="M1081.64,564.25h14.05c7.22,0,12.11,4.06,12.11,10.52,0,7.38-5.59,10.76-12.28,10.76h-6.53v12.68h-7.35v-33.96ZM1088.99,579.68h5.6c3.4,0,5.8-1.31,5.8-4.77s-2.53-4.81-5.65-4.81h-5.76v9.59Z"/>
        <path class="cls-1" d="M1145.11,581.11c0,9.45-5.67,17.59-16.7,17.59s-16.23-7.75-16.23-17.47,6.16-17.47,16.71-17.47c9.93,0,16.23,6.96,16.23,17.36ZM1119.76,581.08c0,6.63,2.91,11.65,8.93,11.65,6.53,0,8.84-5.47,8.84-11.52,0-6.42-2.63-11.47-8.96-11.47s-8.81,4.74-8.81,11.35Z"/>
        <path class="cls-1" d="M1158.71,584.62v13.59h-7.18v-33.96h14.92c7.4,0,11.39,4.08,11.39,9.32,0,4.56-2.48,7.02-4.93,8.03,1.68.62,4.22,2.37,4.22,8.45v1.68c0,2.28.02,4.88.49,6.47h-6.96c-.6-1.48-.71-4.02-.71-7.62v-.5c0-3.71-.94-5.47-6.41-5.47h-4.83ZM1158.71,578.77h6.16c4.02,0,5.57-1.53,5.57-4.37s-1.8-4.31-5.4-4.31h-6.33v8.68Z"/>
        <path class="cls-1" d="M1191.51,570.27h-10.32v-6.02h27.95v6.02h-10.28v27.94h-7.35v-27.94Z"/>
        <path class="cls-1" d="M1213.69,564.25h23.7v6.02h-16.53v8.32h15.49v6.02h-15.49v13.6h-7.17v-33.96Z"/>
        <path class="cls-1" d="M1274.56,581.11c0,9.45-5.67,17.59-16.7,17.59s-16.23-7.75-16.23-17.47,6.16-17.47,16.71-17.47c9.93,0,16.23,6.96,16.23,17.36ZM1249.2,581.08c0,6.63,2.91,11.65,8.93,11.65,6.53,0,8.84-5.47,8.84-11.52,0-6.42-2.63-11.47-8.96-11.47s-8.81,4.74-8.81,11.35Z"/>
        <path class="cls-1" d="M1280.98,564.25h7.34v27.94h16.92l-.84,6.02h-23.42v-33.96Z"/>
        <path class="cls-1" d="M1316.94,564.25v33.96h-7.34v-33.96h7.34Z"/>
        <path class="cls-1" d="M1356.27,581.11c0,9.45-5.67,17.59-16.7,17.59s-16.23-7.75-16.23-17.47,6.16-17.47,16.71-17.47c9.93,0,16.23,6.96,16.23,17.36ZM1330.92,581.08c0,6.63,2.91,11.65,8.93,11.65,6.53,0,8.84-5.47,8.84-11.52,0-6.42-2.63-11.47-8.96-11.47s-8.81,4.74-8.81,11.35Z"/>
      </g>
      <g>
        <g>
          <polyline class="cls-4" points="1145.65 313.52 1027.72 283.57 1019.73 281.54 1019.73 218.22 1096.98 218.22 1216.31 218.22 1258.77 218.22"/>
          <polyline class="cls-4" points="1167.62 313.52 1167.63 313.52 1281.13 284.69"/>
          <polyline class="cls-4" points="1285.57 288.39 1285.57 414.63 1027.72 414.63 1027.72 283.58"/>
          <path class="cls-4" d="M1096.98,218.21v-31.92c0-6.2,4.17-11.22,9.31-11.22h100.7c5.14,0,9.31,5.02,9.31,11.22v31.92"/>
          <path class="cls-4" d="M1145.66,299.49h21.97v21.4c0,5.91-4.8,10.71-10.71,10.71h-.56c-5.91,0-10.71-4.8-10.71-10.71v-21.4h0Z"/>
        </g>
        <g>
          <path class="cls-4" d="M1411.62,217.42l-60.84,1.66-35.52-62.56c7.12-4.81,15.9-6.55,25.08-6.55,38.1,0,69.24,29.85,71.28,67.45Z"/>
          <path class="cls-4" d="M1416.5,236.18c0,36.2-26.95,66.11-61.89,70.76v-74.7s61.78,0,61.78,0c.07,1.3.11,2.62.11,3.94Z"/>
          <path class="cls-4" d="M1338.4,227.71v74.7c-3.11.42-6.28.63-9.5.63-39.42,0-71.39-31.96-71.39-71.39,0-30.25,18.81-56.1,45.37-66.5l35.52,62.56Z"/>
        </g>
      </g>
      <g>
        <path class="cls-1" d="M1740.48,588.25c.77,3.41,3.22,4.9,7.15,4.9s5.6-1.55,5.6-4.03c0-2.76-1.64-3.96-7.44-5.32-9.24-2.17-11.53-5.53-11.53-10.12,0-5.92,4.43-9.94,12.47-9.94,9.02,0,12.61,4.85,13.09,9.81h-7.4c-.35-2.09-1.51-4.36-5.89-4.36-2.98,0-4.78,1.23-4.78,3.64s1.44,3.32,6.93,4.59c9.88,2.33,12.04,6,12.04,10.79,0,6.2-4.69,10.46-13.67,10.46s-13.16-4.24-13.97-10.43h7.4Z"/>
        <path class="cls-1" d="M1773.27,570.27h-10.32v-6.02h27.95v6.02h-10.28v27.94h-7.35v-27.94Z"/>
        <path class="cls-1" d="M1825.63,581.11c0,9.45-5.67,17.59-16.7,17.59s-16.23-7.75-16.23-17.47,6.16-17.47,16.71-17.47c9.93,0,16.23,6.96,16.23,17.36ZM1800.27,581.08c0,6.63,2.91,11.64,8.93,11.64,6.53,0,8.84-5.47,8.84-11.52,0-6.42-2.63-11.47-8.96-11.47s-8.81,4.74-8.81,11.35Z"/>
        <path class="cls-1" d="M1860.87,587.74c-1.37,6.33-6.14,10.95-14.64,10.95-10.77,0-15.86-7.62-15.86-17.28s5.25-17.65,16.21-17.65c9.04,0,13.43,5.31,14.25,10.98h-7.34c-.71-2.62-2.53-5.23-7.15-5.23-6.06,0-8.39,5.45-8.39,11.63,0,5.74,2.03,11.79,8.59,11.79,4.79,0,6.3-3.21,6.94-5.19h7.39Z"/>
        <path class="cls-1" d="M1866.53,564.25h7.26v15.15c2.24-2.62,9.23-10.27,13.52-15.15h8.79l-13.64,14.11,14.14,19.84h-8.81l-10.42-15.08-3.58,3.42v11.66h-7.26v-33.96Z"/>
      </g>
      <g>
        <g>
          <polyline class="cls-4" points="1934.67 447.95 1934.67 227.93 1986.38 227.93 1986.38 447.95"/>
          <polyline class="cls-4" points="1837 447.95 1837 293.66 1888.72 293.66 1888.72 447.95"/>
          <polyline class="cls-4" points="1739.33 447.95 1739.33 270.59 1791.05 270.59 1791.05 447.95"/>
          <polyline class="cls-4" points="1641.67 447.95 1641.67 343.33 1693.38 343.33 1693.38 447.95"/>
          <g>
            <polyline class="cls-4" points="1655.49 304.03 1765.19 218.21 1862.86 252.25 1958.19 151.83"/>
            <polyline class="cls-4" points="1952.55 180.91 1958.19 151.83 1929.16 157.75"/>
          </g>
        </g>
        <circle class="cls-4" cx="1825.56" cy="166.37" r="49.72"/>
        <path class="cls-1" d="M1826.17,137.21c1.98,0,3.56,1.57,3.56,3.56v.96c3.69.55,6.98,1.64,9.92,3.28,1.3.75,2.46,2.05,2.46,4.1,0,2.6-2.05,4.58-4.65,4.58-.82,0-1.64-.21-2.39-.62-1.92-1.03-3.83-1.85-5.68-2.33v10.4c10.4,2.8,14.84,7.05,14.84,14.71s-5.88,12.59-14.5,13.54v3.63c0,1.98-1.57,3.56-3.56,3.56s-3.56-1.57-3.56-3.56v-3.69c-4.86-.62-9.44-2.33-13.48-4.79-1.44-.89-2.33-2.26-2.33-4.1,0-2.67,2.05-4.65,4.72-4.65.89,0,1.85.34,2.67.89,2.87,1.85,5.61,3.15,8.76,3.83v-10.88c-9.85-2.67-14.71-6.43-14.71-14.57,0-7.52,5.75-12.59,14.37-13.48v-.82c0-1.98,1.57-3.56,3.56-3.56ZM1822.96,159.37v-9.23c-3.28.48-4.72,2.12-4.72,4.31s.96,3.56,4.72,4.93ZM1829.39,171.35v9.51c3.21-.48,4.86-1.98,4.86-4.45,0-2.26-1.16-3.76-4.86-5.06Z"/>
        <line class="cls-4" x1="1610.45" y1="447.94" x2="2017.61" y2="447.94"/>
      </g>
      <g>
        <path class="cls-1" d="M2341.77,564.25h14.84c8.21,0,11.32,4.28,11.32,8.69,0,3.83-2.03,6.31-4.32,7.36,2.29.86,5.29,3.28,5.29,7.74,0,5.81-4.57,10.17-11.79,10.17h-15.34v-33.96ZM2355.77,577.64c3.49,0,4.93-1.57,4.93-3.95s-1.89-3.77-4.72-3.77h-7v7.72h6.79ZM2348.98,592.54h6.62c3.97,0,5.77-1.66,5.77-4.74,0-2.74-1.77-4.48-5.81-4.48h-6.58v9.22Z"/>
        <path class="cls-1" d="M2406.28,581.11c0,9.45-5.67,17.59-16.7,17.59s-16.23-7.75-16.23-17.47,6.16-17.47,16.71-17.47c9.93,0,16.23,6.96,16.23,17.36ZM2380.92,581.08c0,6.63,2.91,11.64,8.93,11.64,6.53,0,8.84-5.47,8.84-11.52,0-6.42-2.63-11.47-8.96-11.47s-8.81,4.74-8.81,11.35Z"/>
        <path class="cls-1" d="M2412.7,598.21v-33.96h9.1c4.24,7.62,12.08,21.38,13.64,25.08h.09c-.38-3.54-.38-9.44-.38-15.01v-10.06h6.66v33.96h-8.63c-3.65-6.63-12.33-22.43-14.02-26.36h-.09c.25,2.97.33,9.95.33,16.03v10.33h-6.7Z"/>
        <path class="cls-1" d="M2449.94,564.25h13.46c9.89,0,16.36,6.51,16.36,16.55s-6.27,17.4-16.67,17.4h-13.16v-33.96ZM2457.28,592.28h5.51c6.51,0,9.39-4.84,9.39-11.46,0-5.55-2.7-10.64-9.35-10.64h-5.55v22.09Z"/>
      </g>
      <g>
        <g>
          <circle class="cls-4" cx="2385.57" cy="180.46" r="35.68"/>
          <path class="cls-1" d="M2386.09,155.01c1.67,0,3,1.33,3,3v.81c3.11.46,5.88,1.38,8.35,2.77,1.09.63,2.07,1.73,2.07,3.46,0,2.19-1.73,3.86-3.92,3.86-.69,0-1.38-.17-2.02-.52-1.61-.86-3.23-1.56-4.78-1.96v8.76c8.76,2.36,12.5,5.93,12.5,12.39s-4.96,10.6-12.21,11.41v3.05c0,1.67-1.33,3-3,3s-3-1.33-3-3v-3.11c-4.09-.52-7.95-1.96-11.35-4.03-1.21-.75-1.96-1.9-1.96-3.46,0-2.25,1.73-3.92,3.98-3.92.75,0,1.56.29,2.25.75,2.42,1.56,4.72,2.65,7.38,3.23v-9.16c-8.3-2.25-12.39-5.42-12.39-12.27,0-6.34,4.84-10.6,12.1-11.35v-.69c0-1.67,1.33-3,3-3ZM2383.38,173.68v-7.78c-2.77.4-3.98,1.79-3.98,3.63s.81,3,3.98,4.15ZM2388.8,183.76v8.01c2.71-.4,4.09-1.67,4.09-3.75,0-1.9-.98-3.17-4.09-4.26Z"/>
        </g>
        <polyline class="cls-4" points="2491.58 343.63 2224.87 343.63 2224.87 125.64 2567.26 125.64 2567.26 297.21"/>
        <g>
          <line class="cls-4" x1="2265.61" y1="242.68" x2="2526.53" y2="242.68"/>
          <line class="cls-4" x1="2265.61" y1="275.57" x2="2526.53" y2="275.57"/>
          <line class="cls-4" x1="2265.61" y1="308.46" x2="2470.05" y2="308.46"/>
        </g>
        <g>
          <path class="cls-4" d="M2595,341.28c0-4.74-2.06-9.01-5.35-12.04,1.25-4.19.81-8.85-1.63-12.92-2.46-4.1-6.45-6.81-10.88-7.85-1.09-4.23-3.89-8.05-8.11-10.41-4.25-2.37-9.12-2.79-13.49-1.55-3.13-3.14-7.54-5.1-12.42-5.1s-9.34,1.98-12.48,5.16c-4.34-1.21-9.17-.78-13.4,1.57-4.25,2.37-7.06,6.22-8.13,10.49-4.39,1.05-8.35,3.75-10.79,7.82-2.46,4.1-2.89,8.8-1.61,13.01-3.26,3.02-5.29,7.27-5.29,11.98s2.06,9.01,5.35,12.04c-1.25,4.19-.81,8.85,1.63,12.92,2.46,4.1,6.45,6.81,10.88,7.85,1.09,4.23,3.89,8.05,8.11,10.41,4.25,2.37,9.12,2.79,13.49,1.55,3.13,3.14,7.54,5.1,12.42,5.1s9.34-1.98,12.48-5.16c4.34,1.21,9.17.78,13.4-1.57,4.25-2.37,7.06-6.22,8.13-10.49,4.39-1.05,8.35-3.75,10.79-7.82,2.46-4.1,2.89-8.8,1.61-13.01,3.26-3.02,5.29-7.27,5.29-11.98Z"/>
          <ellipse class="cls-4" cx="2543.22" cy="341.37" rx="28.93" ry="27.91"/>
          <polyline class="cls-4" points="2561.18 386.81 2561.18 438.96 2543.22 419.75 2524.97 438.87 2524.97 386.88"/>
        </g>
      </g>
      <g>
        <path class="cls-1" d="M2894.27,564.25v33.96h-7.34v-33.96h7.34Z"/>
        <path class="cls-1" d="M2902.39,598.21v-33.96h9.1c4.24,7.62,12.08,21.38,13.64,25.08h.09c-.38-3.54-.38-9.44-.38-15.01v-10.06h6.66v33.96h-8.63c-3.65-6.64-12.33-22.43-14.02-26.36h-.09c.25,2.97.33,9.95.33,16.03v10.33h-6.7Z"/>
        <path class="cls-1" d="M2947.75,598.21l-11.98-33.96h7.89l5.05,15.69c1.53,4.74,2.7,8.77,3.48,12.24h.1c.7-3.17,2.02-7.32,3.64-12.13l5.3-15.8h7.49l-12.3,33.96h-8.66Z"/>
        <path class="cls-1" d="M2996.19,583.56h-16.24v8.63h17.91l-.87,6.02h-24.17v-33.96h24.08v6.02h-16.95v7.28h16.24v6.02Z"/>
        <path class="cls-1" d="M3008.68,588.25c.78,3.41,3.22,4.9,7.15,4.9s5.6-1.55,5.6-4.03c0-2.76-1.64-3.96-7.45-5.31-9.24-2.17-11.53-5.53-11.53-10.12,0-5.92,4.43-9.94,12.47-9.94,9.02,0,12.61,4.85,13.09,9.81h-7.4c-.35-2.09-1.51-4.36-5.89-4.36-2.98,0-4.78,1.23-4.78,3.64s1.44,3.32,6.93,4.59c9.88,2.33,12.04,6,12.04,10.79,0,6.2-4.69,10.46-13.67,10.46s-13.16-4.24-13.97-10.44h7.4Z"/>
        <path class="cls-1" d="M3041.47,570.27h-10.32v-6.02h27.95v6.02h-10.28v27.94h-7.35v-27.94Z"/>
        <path class="cls-1" d="M3093.83,581.11c0,9.45-5.67,17.59-16.7,17.59s-16.23-7.75-16.23-17.47,6.16-17.47,16.71-17.47c9.93,0,16.23,6.96,16.23,17.36ZM3068.47,581.08c0,6.63,2.91,11.64,8.93,11.64,6.53,0,8.84-5.47,8.84-11.52,0-6.42-2.63-11.47-8.96-11.47s-8.81,4.74-8.81,11.35Z"/>
        <path class="cls-1" d="M3107.42,584.62v13.59h-7.17v-33.96h14.92c7.4,0,11.39,4.08,11.39,9.32,0,4.56-2.48,7.02-4.93,8.03,1.68.62,4.22,2.37,4.22,8.45v1.68c0,2.28.02,4.88.49,6.47h-6.96c-.6-1.48-.71-4.02-.71-7.62v-.5c0-3.71-.94-5.47-6.41-5.47h-4.83ZM3107.42,578.77h6.16c4.02,0,5.57-1.53,5.57-4.37s-1.8-4.31-5.4-4.31h-6.33v8.68Z"/>
      </g>
      <g>
        <g>
          <circle class="cls-4" cx="3118.62" cy="308.43" r="57.46"/>
          <path class="cls-1" d="M3119.45,267.46c2.69,0,4.82,2.13,4.82,4.82v1.3c5.01.74,9.46,2.23,13.45,4.45,1.76,1.02,3.34,2.78,3.34,5.57,0,3.53-2.78,6.22-6.31,6.22-1.11,0-2.23-.28-3.25-.83-2.6-1.39-5.2-2.5-7.7-3.15v14.1c14.1,3.8,20.13,9.56,20.13,19.95s-7.98,17.07-19.67,18.37v4.92c0,2.69-2.13,4.82-4.82,4.82s-4.82-2.13-4.82-4.82v-5.01c-6.59-.83-12.8-3.15-18.28-6.49-1.95-1.21-3.15-3.06-3.15-5.57,0-3.62,2.78-6.31,6.4-6.31,1.21,0,2.5.46,3.62,1.21,3.9,2.5,7.61,4.27,11.88,5.2v-14.75c-13.36-3.62-19.95-8.72-19.95-19.76,0-10.21,7.79-17.07,19.48-18.28v-1.11c0-2.69,2.13-4.82,4.82-4.82ZM3115.09,297.51v-12.52c-4.45.65-6.4,2.88-6.4,5.84s1.3,4.82,6.4,6.68ZM3123.81,313.75v12.9c4.36-.65,6.59-2.69,6.59-6.03,0-3.06-1.58-5.1-6.59-6.87Z"/>
        </g>
        <g>
          <path class="cls-4" d="M3061.55,301.76c-15.67-10.93-34.72-17.34-55.27-17.34h-73.94c-53.43,0-96.73,43.31-96.73,96.74v51.75h267.4v-51.75c0-6.12-.57-12.11-1.66-17.91"/>
          <line class="cls-4" x1="3061.16" y1="365.89" x2="3061.16" y2="432.9"/>
          <line class="cls-4" x1="2877.47" y1="432.9" x2="2877.47" y2="365.89"/>
          <polyline class="cls-4" points="2980.22 284.42 2983.8 370.11 2969.31 394.87 2954.82 370.11 2958.41 284.42"/>
          <circle class="cls-4" cx="2969.31" cy="197.71" r="66.01"/>
        </g>
      </g>
      <g>
        <path class="cls-1" d="M3346.85,584.62v13.59h-7.17v-33.96h14.92c7.4,0,11.39,4.08,11.39,9.32,0,4.56-2.48,7.02-4.93,8.04,1.68.62,4.22,2.37,4.22,8.45v1.68c0,2.28.02,4.88.49,6.47h-6.96c-.6-1.48-.71-4.02-.71-7.62v-.5c0-3.71-.94-5.47-6.41-5.47h-4.83ZM3346.85,578.77h6.16c4.02,0,5.57-1.53,5.57-4.37s-1.8-4.31-5.39-4.31h-6.33v8.68Z"/>
        <path class="cls-1" d="M3379.87,564.25v33.96h-7.34v-33.96h7.34Z"/>
        <path class="cls-1" d="M3392.72,588.25c.77,3.41,3.22,4.91,7.15,4.91s5.6-1.55,5.6-4.03c0-2.76-1.64-3.96-7.45-5.31-9.24-2.17-11.53-5.53-11.53-10.12,0-5.92,4.43-9.94,12.47-9.94,9.02,0,12.61,4.85,13.09,9.81h-7.4c-.35-2.09-1.51-4.36-5.89-4.36-2.98,0-4.78,1.23-4.78,3.64s1.44,3.32,6.93,4.59c9.88,2.33,12.04,6,12.04,10.79,0,6.2-4.69,10.45-13.67,10.45s-13.16-4.24-13.97-10.43h7.4Z"/>
        <path class="cls-1" d="M3418.38,564.25h7.26v15.15c2.24-2.62,9.23-10.27,13.52-15.15h8.79l-13.64,14.11,14.14,19.84h-8.81l-10.42-15.08-3.58,3.42v11.66h-7.26v-33.96Z"/>
        <path class="cls-1" d="M3492.06,585.47c0-5.79.09-12.29.24-16.13h-.23c-1.6,6.93-4.99,18.24-8.25,28.87h-6.25c-2.48-9.29-5.99-22.18-7.48-28.96h-.23c.29,3.98.43,10.97.43,16.8v12.16h-6.69v-33.96h10.93c2.65,8.87,5.62,20,6.63,25.07h.06c.83-4.46,4.56-16.36,7.39-25.07h10.53v33.96h-7.08v-12.74Z"/>
        <path class="cls-1" d="M3513.61,590.36l-2.65,7.84h-7.22l11.53-33.96h9.22l12.03,33.96h-7.72l-2.79-7.84h-12.41ZM3524.43,584.35c-2.41-7.17-3.95-11.75-4.77-14.8h-.05c-.84,3.35-2.53,8.67-4.47,14.8h9.28Z"/>
        <path class="cls-1" d="M3540.88,598.21v-33.96h9.1c4.24,7.62,12.08,21.38,13.64,25.08h.09c-.38-3.54-.38-9.44-.38-15.01v-10.06h6.65v33.96h-8.63c-3.65-6.64-12.34-22.43-14.02-26.36h-.09c.25,2.97.33,9.95.33,16.03v10.33h-6.7Z"/>
        <path class="cls-1" d="M3584.43,590.36l-2.65,7.84h-7.22l11.53-33.96h9.22l12.03,33.96h-7.72l-2.79-7.84h-12.41ZM3595.26,584.35c-2.41-7.17-3.95-11.75-4.77-14.8h-.05c-.84,3.35-2.53,8.67-4.47,14.8h9.28Z"/>
        <path class="cls-1" d="M3640.77,598.21h-5.38c-.28-1.04-.47-2.21-.56-3.35-1.88,2.54-5.2,3.92-9.92,3.92-9.86,0-15.36-7.45-15.36-17.12,0-10.21,5.94-17.9,16.64-17.9,8.74,0,13.88,4.93,14.7,10.72h-7.34c-.7-2.27-2.49-4.96-7.46-4.96-6.97,0-8.96,5.83-8.96,11.82s2.27,11.6,9.01,11.6c6.28,0,7.43-4.36,7.43-7.4v-.31h-7.45v-6.02h14.65v19Z"/>
        <path class="cls-1" d="M3671.62,583.56h-16.24v8.63h17.91l-.87,6.02h-24.17v-33.96h24.08v6.02h-16.95v7.28h16.24v6.02Z"/>
        <path class="cls-1" d="M3707.16,585.47c0-5.79.09-12.29.24-16.13h-.23c-1.6,6.93-4.99,18.24-8.25,28.87h-6.25c-2.48-9.29-5.99-22.18-7.48-28.96h-.23c.29,3.98.43,10.97.43,16.8v12.16h-6.69v-33.96h10.93c2.65,8.87,5.62,20,6.64,25.07h.05c.83-4.46,4.56-16.36,7.39-25.07h10.53v33.96h-7.08v-12.74Z"/>
        <path class="cls-1" d="M3745.75,583.56h-16.24v8.63h17.91l-.87,6.02h-24.17v-33.96h24.08v6.02h-16.95v7.28h16.24v6.02Z"/>
        <path class="cls-1" d="M3752.68,598.21v-33.96h9.1c4.24,7.62,12.08,21.38,13.64,25.08h.09c-.38-3.54-.38-9.44-.38-15.01v-10.06h6.66v33.96h-8.63c-3.65-6.64-12.33-22.43-14.02-26.36h-.09c.25,2.97.33,9.95.33,16.03v10.33h-6.7Z"/>
        <path class="cls-1" d="M3797.14,570.27h-10.32v-6.02h27.95v6.02h-10.28v27.94h-7.35v-27.94Z"/>
      </g>
      <g>
        <g>
          <path class="cls-4" d="M3411.92,282.62c9.34-92.87,78.99-165.01,163.52-165.01s154.36,72.33,163.55,165.39"/>
          <path class="cls-4" d="M3499.13,288.67c3.19-95.77,36.14-171.06,76.31-171.06s73.12,75.3,76.3,171.07"/>
          <path class="cls-4" d="M3411.92,282.62c26.05-18.59,54.61-20.04,87.21,6.05.1.08.2.16.29.24,46.3-34.03,96.22-39.84,152.03,0l.29-.22c29.08-22.08,58.16-25.27,87.24-5.69"/>
          <path class="cls-4" d="M3575.44,261.17v182.68c0,10.62-9.07,19.23-20.25,19.23-5.59,0-10.65-2.15-14.32-5.63-3.66-3.48-5.93-8.29-5.93-13.6v-17.95"/>
          <line class="cls-4" x1="3575.44" y1="117.61" x2="3575.44" y2="101.52"/>
        </g>
        <path class="cls-4" d="M3540.18,399.4h-74.15c-11.4,0-18.52-12.33-12.82-22.2l37.08-64.21c5.7-9.87,19.94-9.87,25.63,0l37.08,64.21c5.7,9.87-1.42,22.2-12.81,22.2Z"/>
        <path class="cls-1" d="M3495.54,329.78c-.25-2.46,1.11-4.33,3.4-4.33h8.33c2.29,0,3.65,1.87,3.4,4.33l-3.66,31.96c-.25,2.29-1.78,3.74-3.91,3.74s-3.65-1.44-3.91-3.74l-3.66-31.96ZM3503.1,371.09c4.25,0,7.39,3.14,7.39,7.22v.17c0,4.08-3.14,7.22-7.39,7.22s-7.39-3.14-7.39-7.22v-.17c0-4.08,3.15-7.22,7.39-7.22Z"/>
      </g>
      <g>
        <path class="cls-1" d="M1098.23,1152.92h7.34v27.94h16.92l-.84,6.02h-23.42v-33.96Z"/>
        <path class="cls-1" d="M1134.2,1152.92v33.96h-7.34v-33.96h7.34Z"/>
        <path class="cls-1" d="M1173.53,1169.78c0,9.45-5.67,17.59-16.7,17.59s-16.23-7.75-16.23-17.47,6.16-17.47,16.71-17.47c9.93,0,16.23,6.96,16.23,17.36ZM1148.17,1169.75c0,6.63,2.91,11.64,8.93,11.64,6.53,0,8.84-5.47,8.84-11.52,0-6.42-2.63-11.47-8.96-11.47s-8.81,4.74-8.81,11.35ZM1166.38,1181.67l9.66,6.62-4.24,4.88-11.97-8.29,6.56-3.21Z"/>
        <path class="cls-1" d="M1186.95,1152.92v20.23c0,6.52,3.35,8.45,7.01,8.45,4.2,0,6.84-2.28,6.84-8.45v-20.23h7.35v19.87c0,11.61-6.8,14.57-14.29,14.57s-14.27-3.09-14.27-14.43v-20.01h7.35Z"/>
        <path class="cls-1" d="M1223.25,1152.92v33.96h-7.34v-33.96h7.34Z"/>
        <path class="cls-1" d="M1231.37,1152.92h13.47c9.89,0,16.35,6.51,16.35,16.55s-6.27,17.4-16.66,17.4h-13.16v-33.96ZM1238.71,1180.94h5.51c6.51,0,9.39-4.84,9.39-11.46,0-5.55-2.69-10.64-9.35-10.64h-5.55v22.09Z"/>
        <path class="cls-1" d="M1274.97,1152.92v33.96h-7.34v-33.96h7.34Z"/>
        <path class="cls-1" d="M1290.32,1158.94h-10.32v-6.02h27.95v6.02h-10.28v27.94h-7.35v-27.94Z"/>
        <path class="cls-1" d="M1322.57,1186.88v-12c0-.38-.06-.73-.28-1.09l-11.71-20.87h8.31c2.62,5.12,6.03,11.94,7.73,15.63,1.48-3.56,5.19-10.71,7.76-15.63h7.68l-11.86,20.76c-.14.24-.28.39-.28,1.09v12.11h-7.35Z"/>
      </g>
      <g>
        <path class="cls-1" d="M1220.44,891.02c2.03,0,3.64,1.61,3.64,3.64v.98c3.78.56,7.14,1.68,10.15,3.36,1.33.77,2.52,2.1,2.52,4.2,0,2.66-2.1,4.69-4.76,4.69-.84,0-1.68-.21-2.45-.63-1.96-1.05-3.92-1.89-5.81-2.38v10.64c10.64,2.87,15.18,7.21,15.18,15.04s-6.02,12.88-14.83,13.86v3.71c0,2.03-1.61,3.64-3.64,3.64s-3.64-1.61-3.64-3.64v-3.78c-4.97-.63-9.66-2.38-13.79-4.9-1.47-.91-2.38-2.31-2.38-4.2,0-2.73,2.1-4.76,4.83-4.76.91,0,1.89.35,2.73.91,2.94,1.89,5.74,3.22,8.96,3.92v-11.13c-10.08-2.73-15.04-6.58-15.04-14.9,0-7.7,5.88-12.88,14.7-13.79v-.84c0-2.03,1.61-3.64,3.64-3.64ZM1217.15,913.69v-9.45c-3.36.49-4.83,2.17-4.83,4.41s.98,3.64,4.83,5.04ZM1223.73,925.94v9.73c3.29-.49,4.97-2.03,4.97-4.55,0-2.31-1.19-3.85-4.97-5.18Z"/>
        <circle class="cls-4" cx="1219.81" cy="921.93" r="43.34"/>
        <path class="cls-4" d="M1254.48,814.26c38.75,26.77,66.41,92.18,66.41,129.32,0,47.5-45.25,86.01-101.07,86.01s-101.07-38.51-101.07-86.01c0-37.14,27.67-102.55,66.41-129.32"/>
        <line class="cls-4" x1="1157.9" y1="814.26" x2="1281.73" y2="814.26"/>
        <path class="cls-4" d="M1185.16,814.26l-17.08-49.11c12.96,3.25,25.49,5.28,35.8.95,2.2-.93,4.5-1.64,6.83-2.25,25.78-6.77,49.6-9.15,67.72,1.3l-23.95,49.11"/>
        <g>
          <line class="cls-4" x1="1219.55" y1="729.56" x2="1219.55" y2="669.8"/>
          <polyline class="cls-4" points="1233.65 687.17 1219.55 669.8 1205.45 687.17"/>
        </g>
        <g>
          <line class="cls-4" x1="1150.62" y1="745.38" x2="1108.36" y2="703.13"/>
          <polyline class="cls-4" points="1130.62 705.44 1108.36 703.13 1110.67 725.39"/>
        </g>
        <g>
          <line class="cls-4" x1="1133.42" y1="812.83" x2="1073.66" y2="812.83"/>
          <polyline class="cls-4" points="1091.03 798.73 1073.66 812.83 1091.03 826.93"/>
        </g>
        <g>
          <line class="cls-4" x1="1302.82" y1="815.7" x2="1362.58" y2="815.7"/>
          <polyline class="cls-4" points="1345.21 829.8 1362.58 815.69 1345.21 801.59"/>
        </g>
        <g>
          <line class="cls-4" x1="1289.03" y1="745.38" x2="1331.28" y2="703.13"/>
          <polyline class="cls-4" points="1328.97 725.38 1331.28 703.12 1309.03 705.44"/>
        </g>
      </g>
      <g>
        <path class="cls-1" d="M1660.66,1152.92v33.96h-7.34v-33.96h7.34Z"/>
        <path class="cls-1" d="M1668.78,1186.88v-33.96h9.1c4.24,7.62,12.08,21.38,13.64,25.08h.09c-.38-3.54-.38-9.44-.38-15.01v-10.06h6.66v33.96h-8.63c-3.65-6.63-12.33-22.43-14.02-26.36h-.09c.25,2.97.33,9.95.33,16.03v10.33h-6.7Z"/>
        <path class="cls-1" d="M1714.14,1186.88l-11.98-33.96h7.89l5.05,15.69c1.53,4.74,2.7,8.77,3.48,12.24h.1c.7-3.17,2.02-7.32,3.64-12.13l5.3-15.8h7.49l-12.3,33.96h-8.66Z"/>
        <path class="cls-1" d="M1762.58,1172.23h-16.24v8.63h17.91l-.87,6.02h-24.17v-33.96h24.08v6.02h-16.95v7.28h16.24v6.02Z"/>
        <path class="cls-1" d="M1775.07,1176.92c.77,3.41,3.22,4.91,7.15,4.91s5.6-1.55,5.6-4.03c0-2.76-1.64-3.96-7.44-5.31-9.24-2.17-11.53-5.53-11.53-10.12,0-5.92,4.43-9.94,12.47-9.94,9.02,0,12.61,4.85,13.09,9.81h-7.4c-.35-2.09-1.51-4.36-5.89-4.36-2.98,0-4.78,1.23-4.78,3.64s1.44,3.32,6.93,4.59c9.88,2.33,12.04,6,12.04,10.79,0,6.2-4.69,10.45-13.67,10.45s-13.16-4.24-13.97-10.43h7.4Z"/>
        <path class="cls-1" d="M1807.86,1158.94h-10.32v-6.02h27.95v6.02h-10.28v27.94h-7.35v-27.94Z"/>
        <path class="cls-1" d="M1858.75,1174.14c0-5.79.09-12.29.24-16.13h-.23c-1.6,6.93-4.99,18.24-8.25,28.87h-6.25c-2.48-9.29-5.99-22.18-7.48-28.96h-.23c.29,3.98.43,10.97.43,16.8v12.16h-6.69v-33.96h10.93c2.65,8.87,5.62,20,6.64,25.06h.05c.83-4.46,4.56-16.36,7.39-25.06h10.53v33.96h-7.08v-12.74Z"/>
        <path class="cls-1" d="M1897.34,1172.23h-16.24v8.63h17.92l-.87,6.02h-24.17v-33.96h24.08v6.02h-16.95v7.28h16.24v6.02Z"/>
        <path class="cls-1" d="M1904.27,1186.88v-33.96h9.1c4.24,7.62,12.08,21.38,13.64,25.08h.09c-.38-3.54-.38-9.44-.38-15.01v-10.06h6.66v33.96h-8.63c-3.65-6.63-12.33-22.43-14.02-26.36h-.09c.25,2.97.33,9.95.33,16.03v10.33h-6.7Z"/>
        <path class="cls-1" d="M1948.73,1158.94h-10.32v-6.02h27.95v6.02h-10.28v27.94h-7.35v-27.94Z"/>
      </g>
      <g>
        <g>
          <path class="cls-1" d="M1916.73,700.64c1.75,0,3.14,1.39,3.14,3.14v.85c3.26.48,6.16,1.45,8.75,2.9,1.15.66,2.17,1.81,2.17,3.62,0,2.29-1.81,4.05-4.11,4.05-.72,0-1.45-.18-2.11-.54-1.69-.91-3.38-1.63-5.01-2.05v9.18c9.18,2.48,13.1,6.22,13.1,12.98s-5.19,11.11-12.8,11.96v3.2c0,1.75-1.39,3.14-3.14,3.14s-3.14-1.39-3.14-3.14v-3.26c-4.29-.54-8.33-2.05-11.9-4.23-1.27-.78-2.05-1.99-2.05-3.62,0-2.36,1.81-4.11,4.17-4.11.79,0,1.63.3,2.35.79,2.54,1.63,4.95,2.78,7.73,3.38v-9.6c-8.69-2.35-12.98-5.68-12.98-12.86,0-6.64,5.07-11.11,12.68-11.89v-.72c0-1.75,1.39-3.14,3.14-3.14ZM1913.89,720.2v-8.15c-2.9.42-4.17,1.87-4.17,3.8s.85,3.14,4.17,4.35ZM1919.56,730.76v8.39c2.84-.42,4.29-1.75,4.29-3.92,0-1.99-1.03-3.32-4.29-4.47Z"/>
          <g>
            <path class="cls-4" d="M1895.18,875.66v-48.66c.48-9.9,1.89-21.34,5.01-33.86,1.87-7.46,4.13-14.41,6.58-20.83"/>
            <path class="cls-4" d="M1880.56,848.31c3.71,5.38,8.04,12.9,11.17,22.51.49,1.51.93,3.01,1.32,4.47"/>
            <path class="cls-4" d="M1898.35,876.28c.47-1.77,1.02-3.57,1.63-5.41,5.77-17.18,14.98-28.85,20.69-35.1"/>
            <path class="cls-4" d="M1970.08,833.38c-23.34,14.65-47.96,3.11-49.4,2.4.05-1.77.46-10.28,4.63-20.1,3.1-7.28,8.26-15.29,16.88-21.78,12.97-9.77,27.11-11.11,37.28-10.31,7.78.61,13.24,2.48,14.11,2.79,1.42,18.91-7.64,37.05-23.5,47Z"/>
            <path class="cls-4" d="M1880.56,848.31c.24-2.59,2.52-33.74-22.66-54.42-26.24-21.53-57.84-11.63-59.85-10.97-.25,1.8-4.12,34.57,21.93,55.77,16.94,13.79,40.09,17.45,60.58,9.61Z"/>
            <path class="cls-4" d="M1880.56,848.31c-5.97-5.76-31.61-31.89-41.15-38.12-8.11-5.3-15.82-9.25-22.56-12.22"/>
            <path class="cls-4" d="M1920.67,835.78c3.74-3.33,15.72-12.34,21.83-15.87,5.12-2.96,9.95-5.07,14.1-6.58"/>
          </g>
          <circle class="cls-4" cx="1916.18" cy="729.07" r="44.25"/>
        </g>
        <path class="cls-4" d="M1697.75,900.41l47.75-14.3c14.51-4.35,29.87-5.12,44.75-2.25l96.73,18.63c3.11.6,4.97,3.81,3.94,6.81-6.02,17.46-22.43,28.99-40.61,28.99-1.3,0-2.59-.06-3.9-.18l-65.89-5.92,52.49,27.12c5.93,3.07,12.6,4.41,19.25,3.88l42.64-3.37c6.48-.51,12.68-2.78,17.96-6.55l27.68-19.76c15.3-10.93,36.37-8.58,48.9,5.44h0c1.55,1.74,1.34,4.42-.46,5.89l-44.08,36.02c-22.29,18.21-49.35,29.59-77.95,32.8-5.52.62-11.07.92-16.61.92-12.54,0-25.07-1.57-37.26-4.72l-93.22-23.98-22.12,1.6"/>
        <rect class="cls-4" x="1634.33" y="880.44" width="63.41" height="129.89"/>
        <path class="cls-4" d="M1819.65,889.53h.01c14.78-9.74,34.25-15.64,55.59-15.64,42.13,0,76.98,23.01,82.8,52.95"/>
      </g>
      <g>
        <path class="cls-1" d="M2304.2,1176.41c-1.37,6.33-6.14,10.95-14.65,10.95-10.77,0-15.86-7.62-15.86-17.28s5.25-17.65,16.21-17.65c9.04,0,13.43,5.31,14.26,10.98h-7.34c-.71-2.62-2.53-5.23-7.15-5.23-6.05,0-8.39,5.45-8.39,11.63,0,5.74,2.03,11.79,8.59,11.79,4.79,0,6.3-3.21,6.94-5.19h7.39Z"/>
        <path class="cls-1" d="M2316.22,1179.03l-2.65,7.84h-7.22l11.53-33.96h9.22l12.03,33.96h-7.72l-2.79-7.84h-12.41ZM2327.04,1173.01c-2.41-7.17-3.95-11.75-4.77-14.8h-.05c-.84,3.35-2.53,8.67-4.47,14.8h9.28Z"/>
        <path class="cls-1" d="M2349.01,1176.92c.78,3.41,3.22,4.91,7.15,4.91s5.6-1.55,5.6-4.03c0-2.76-1.64-3.96-7.45-5.31-9.24-2.17-11.53-5.53-11.53-10.12,0-5.92,4.43-9.94,12.47-9.94,9.02,0,12.61,4.85,13.09,9.81h-7.4c-.35-2.09-1.51-4.36-5.89-4.36-2.98,0-4.78,1.23-4.78,3.64s1.44,3.32,6.93,4.59c9.88,2.33,12.04,6,12.04,10.79,0,6.2-4.69,10.45-13.67,10.45s-13.16-4.24-13.97-10.43h7.4Z"/>
        <path class="cls-1" d="M2374.68,1152.92h7.34v13.25h13.66v-13.25h7.34v33.96h-7.34v-14.7h-13.66v14.7h-7.34v-33.96Z"/>
        <path class="cls-1" d="M2411.17,1152.92h23.7v6.02h-16.53v8.32h15.49v6.02h-15.49v13.6h-7.17v-33.96Z"/>
        <path class="cls-1" d="M2440.33,1152.92h7.34v27.94h16.92l-.84,6.02h-23.42v-33.96Z"/>
        <path class="cls-1" d="M2499.67,1169.78c0,9.45-5.67,17.59-16.7,17.59s-16.23-7.75-16.23-17.47,6.16-17.47,16.71-17.47c9.93,0,16.23,6.96,16.23,17.36ZM2474.31,1169.75c0,6.63,2.91,11.64,8.93,11.64,6.53,0,8.84-5.47,8.84-11.52,0-6.42-2.63-11.47-8.96-11.47s-8.81,4.74-8.81,11.35Z"/>
        <path class="cls-1" d="M2511.19,1186.88l-8.65-33.96h7.83c3.18,15.6,4.63,22.52,5.03,26.26h.05c1.29-6.24,4.57-18.06,6.55-26.26h6.6c1.75,6.51,5.18,19.69,6.29,25.91h.05c1.13-7.48,4.46-20.63,5.65-25.91h7.13l-9.2,33.96h-7.61c-1.79-7.52-4.77-18.49-5.97-24.31h-.05c-1.23,6.04-4.3,17.47-6.11,24.31h-7.6Z"/>
      </g>
      <g>
        <path class="cls-1" d="M2410.96,793.79c3.33,0,5.96,2.64,5.96,5.96v1.61c6.19.92,11.7,2.75,16.63,5.5,2.18,1.26,4.13,3.44,4.13,6.88,0,4.36-3.44,7.68-7.8,7.68-1.38,0-2.75-.34-4.01-1.03-3.21-1.72-6.42-3.1-9.52-3.9v17.43c17.43,4.7,24.89,11.81,24.89,24.66s-9.86,21.1-24.31,22.71v6.08c0,3.33-2.64,5.96-5.96,5.96s-5.96-2.64-5.96-5.96v-6.19c-8.14-1.03-15.83-3.9-22.59-8.03-2.41-1.49-3.9-3.78-3.9-6.88,0-4.47,3.44-7.8,7.91-7.8,1.49,0,3.1.57,4.47,1.49,4.82,3.1,9.4,5.28,14.68,6.42v-18.24c-16.51-4.47-24.66-10.78-24.66-24.43,0-12.62,9.63-21.1,24.08-22.59v-1.38c0-3.33,2.64-5.96,5.96-5.96ZM2405.58,830.94v-15.48c-5.5.8-7.91,3.56-7.91,7.23s1.61,5.96,7.91,8.26ZM2416.36,851.01v15.94c5.39-.8,8.14-3.33,8.14-7.46,0-3.78-1.95-6.31-8.14-8.49Z"/>
        <g>
          <path class="cls-4" d="M2245.06,822.59c11.51-70.56,67.22-126.27,137.78-137.77"/>
          <path class="cls-4" d="M2437.04,1014.57c70.55-11.51,126.26-67.22,137.77-137.77"/>
          <path class="cls-4" d="M2245.06,876.8c11.51,70.56,67.22,126.27,137.78,137.77"/>
          <path class="cls-4" d="M2437.04,684.82c70.55,11.51,126.26,67.22,137.77,137.77"/>
        </g>
        <polyline class="cls-4" points="2355.77 716.98 2382.84 684.54 2344.16 667.52"/>
        <polyline class="cls-4" points="2277.22 903.86 2244.78 876.79 2227.76 915.47"/>
        <polyline class="cls-4" points="2464.1 982.41 2437.03 1014.85 2475.71 1031.87"/>
        <polyline class="cls-4" points="2542.65 795.53 2575.09 822.6 2592.11 783.92"/>
        <circle class="cls-4" cx="2409.93" cy="849.7" r="97.49"/>
      </g>
      <g>
        <path class="cls-1" d="M2798.46,1152.92h13.47c9.89,0,16.35,6.51,16.35,16.55s-6.27,17.4-16.66,17.4h-13.16v-33.96ZM2805.8,1180.94h5.51c6.51,0,9.39-4.84,9.39-11.46,0-5.55-2.69-10.64-9.34-10.64h-5.55v22.09Z"/>
        <path class="cls-1" d="M2842.05,1152.92v33.96h-7.34v-33.96h7.34Z"/>
        <path class="cls-1" d="M2858.3,1186.88l-11.98-33.96h7.89l5.05,15.69c1.53,4.74,2.7,8.77,3.48,12.24h.1c.7-3.17,2.02-7.32,3.64-12.13l5.3-15.8h7.49l-12.3,33.96h-8.66Z"/>
        <path class="cls-1" d="M2906.74,1172.23h-16.24v8.63h17.91l-.87,6.02h-24.17v-33.96h24.08v6.02h-16.95v7.28h16.24v6.02Z"/>
        <path class="cls-1" d="M2920.84,1173.28v13.59h-7.17v-33.96h14.92c7.4,0,11.39,4.08,11.39,9.32,0,4.56-2.48,7.02-4.93,8.03,1.68.62,4.22,2.37,4.22,8.45v1.68c0,2.28.02,4.88.49,6.47h-6.96c-.6-1.48-.71-4.02-.71-7.62v-.5c0-3.71-.94-5.47-6.41-5.47h-4.83ZM2920.84,1167.44h6.16c4.02,0,5.57-1.53,5.57-4.37s-1.8-4.31-5.39-4.31h-6.33v8.68Z"/>
        <path class="cls-1" d="M2951.79,1176.92c.77,3.41,3.22,4.9,7.15,4.9s5.6-1.55,5.6-4.03c0-2.76-1.64-3.96-7.44-5.31-9.24-2.17-11.53-5.53-11.53-10.12,0-5.92,4.43-9.94,12.47-9.94,9.02,0,12.61,4.85,13.09,9.81h-7.4c-.35-2.09-1.51-4.36-5.89-4.36-2.98,0-4.78,1.23-4.78,3.64s1.44,3.32,6.93,4.59c9.88,2.33,12.04,6,12.04,10.79,0,6.2-4.69,10.46-13.67,10.46s-13.16-4.24-13.97-10.43h7.4Z"/>
        <path class="cls-1" d="M2984.8,1152.92v33.96h-7.34v-33.96h7.34Z"/>
        <path class="cls-1" d="M2992.92,1152.92h23.7v6.02h-16.53v8.32h15.49v6.02h-15.49v13.6h-7.17v-33.96Z"/>
        <path class="cls-1" d="M3029.42,1152.92v33.96h-7.34v-33.96h7.34Z"/>
        <path class="cls-1" d="M3066.32,1176.41c-1.37,6.33-6.14,10.95-14.64,10.95-10.77,0-15.86-7.62-15.86-17.28s5.25-17.65,16.21-17.65c9.04,0,13.43,5.31,14.25,10.98h-7.34c-.71-2.62-2.53-5.23-7.15-5.23-6.06,0-8.39,5.45-8.39,11.63,0,5.74,2.03,11.79,8.59,11.79,4.79,0,6.3-3.21,6.94-5.19h7.39Z"/>
        <path class="cls-1" d="M3078.34,1179.03l-2.65,7.84h-7.22l11.53-33.96h9.22l12.03,33.96h-7.72l-2.79-7.84h-12.41ZM3089.17,1173.01c-2.41-7.17-3.95-11.75-4.77-14.8h-.05c-.84,3.35-2.53,8.67-4.47,14.8h9.28Z"/>
        <path class="cls-1" d="M3108.85,1158.94h-10.32v-6.02h27.95v6.02h-10.28v27.94h-7.35v-27.94Z"/>
        <path class="cls-1" d="M3138.38,1152.92v33.96h-7.34v-33.96h7.34Z"/>
        <path class="cls-1" d="M3177.71,1169.78c0,9.45-5.67,17.59-16.7,17.59s-16.23-7.75-16.23-17.47,6.16-17.47,16.71-17.47c9.93,0,16.23,6.96,16.23,17.36ZM3152.35,1169.75c0,6.63,2.91,11.64,8.93,11.64,6.53,0,8.84-5.47,8.84-11.52,0-6.42-2.63-11.47-8.96-11.47s-8.81,4.74-8.81,11.35Z"/>
        <path class="cls-1" d="M3184.13,1186.88v-33.96h9.1c4.24,7.62,12.08,21.38,13.64,25.08h.09c-.38-3.54-.38-9.44-.38-15.01v-10.06h6.65v33.96h-8.63c-3.65-6.63-12.34-22.43-14.02-26.36h-.09c.25,2.97.33,9.95.33,16.03v10.33h-6.7Z"/>
      </g>
      <g>
        <path class="cls-1" d="M3063.05,846.76c2.89,0,5.18,2.29,5.18,5.18v1.39c5.38.8,10.16,2.39,14.45,4.78,1.89,1.1,3.59,2.99,3.59,5.98,0,3.79-2.99,6.68-6.78,6.68-1.2,0-2.39-.3-3.49-.9-2.79-1.49-5.58-2.69-8.27-3.39v15.15c15.15,4.08,21.62,10.26,21.62,21.42s-8.57,18.33-21.12,19.73v5.28c0,2.89-2.29,5.18-5.18,5.18s-5.18-2.29-5.18-5.18v-5.38c-7.07-.9-13.75-3.39-19.63-6.97-2.09-1.3-3.39-3.29-3.39-5.98,0-3.89,2.99-6.78,6.88-6.78,1.29,0,2.69.5,3.89,1.29,4.18,2.69,8.17,4.58,12.75,5.58v-15.84c-14.35-3.89-21.42-9.37-21.42-21.22,0-10.96,8.37-18.33,20.92-19.63v-1.2c0-2.89,2.29-5.18,5.18-5.18ZM3058.37,879.05v-13.45c-4.78.7-6.88,3.09-6.88,6.28s1.39,5.18,6.88,7.17ZM3067.74,896.49v13.85c4.68-.7,7.07-2.89,7.07-6.48,0-3.29-1.69-5.48-7.07-7.37Z"/>
        <g>
          <path class="cls-4" d="M3008.33,834.44c-8.5-8.26-18.6-14.88-29.78-19.36-.73-.29-1.46-.58-2.2-.85l-.77,1.25-34.82,56.63-3.63,5.91-11,17.9-3.05,4.96-13.5-20.41h0s-42.78-64.71-42.78-64.71c-32.86,13.92-55.92,46.48-55.92,84.41v20.37h183.48"/>
          <polyline class="cls-4" points="2937.17 878.32 2931.51 831.57 2947.11 814.23 2899.9 814.23 2915.51 831.57 2909.58 880.47"/>
          <line class="cls-4" x1="2855.04" y1="920.55" x2="2855.04" y2="887.34"/>
          <ellipse class="cls-4" cx="2923.51" cy="735.19" rx="56.42" ry="61.79"/>
        </g>
        <circle class="cls-4" cx="3062.16" cy="887.34" r="75.48"/>
        <g>
          <line class="cls-4" x1="3062.15" y1="811.86" x2="3062.15" y2="779.39"/>
          <circle class="cls-4" cx="3062.16" cy="764.04" r="15.35"/>
        </g>
        <g>
          <line class="cls-4" x1="3008.79" y1="940.71" x2="2985.83" y2="963.67"/>
          <circle class="cls-4" cx="2974.97" cy="974.53" r="15.35"/>
        </g>
        <g>
          <line class="cls-4" x1="3062.16" y1="962.82" x2="3062.16" y2="995.29"/>
          <circle class="cls-4" cx="3062.16" cy="1010.64" r="15.35"/>
        </g>
        <g>
          <line class="cls-4" x1="3115.53" y1="940.71" x2="3138.49" y2="963.67"/>
          <circle class="cls-4" cx="3149.34" cy="974.53" r="15.35"/>
        </g>
        <g>
          <line class="cls-4" x1="3137.63" y1="887.34" x2="3170.1" y2="887.34"/>
          <circle class="cls-4" cx="3185.46" cy="887.34" r="15.35"/>
        </g>
        <g>
          <line class="cls-4" x1="3115.52" y1="833.97" x2="3138.48" y2="811.01"/>
          <circle class="cls-4" cx="3149.34" cy="800.15" r="15.35"/>
        </g>
      </g>
      <g>
        <g>
          <path class="cls-1" d="M3443.1,1122.83v13.59h-7.17v-33.96h14.92c7.4,0,11.39,4.08,11.39,9.32,0,4.56-2.48,7.02-4.94,8.04,1.68.62,4.22,2.37,4.22,8.45v1.68c0,2.28.02,4.88.49,6.47h-6.96c-.6-1.48-.71-4.02-.71-7.62v-.5c0-3.71-.94-5.47-6.41-5.47h-4.83ZM3443.1,1116.99h6.16c4.02,0,5.57-1.53,5.57-4.37s-1.8-4.31-5.4-4.31h-6.33v8.68Z"/>
          <path class="cls-1" d="M3492.14,1121.78h-16.24v8.63h17.91l-.87,6.02h-24.17v-33.96h24.08v6.02h-16.95v7.28h16.24v6.02Z"/>
          <path class="cls-1" d="M3507.18,1108.48h-10.32v-6.02h27.95v6.02h-10.28v27.94h-7.35v-27.94Z"/>
          <path class="cls-1" d="M3537.29,1102.47v20.23c0,6.52,3.35,8.45,7.01,8.45,4.2,0,6.84-2.28,6.84-8.45v-20.23h7.35v19.87c0,11.61-6.8,14.57-14.29,14.57s-14.27-3.09-14.27-14.43v-20.01h7.36Z"/>
          <path class="cls-1" d="M3573.42,1122.83v13.59h-7.17v-33.96h14.92c7.4,0,11.39,4.08,11.39,9.32,0,4.56-2.48,7.02-4.94,8.04,1.68.62,4.22,2.37,4.22,8.45v1.68c0,2.28.02,4.88.49,6.47h-6.96c-.6-1.48-.71-4.02-.71-7.62v-.5c0-3.71-.94-5.47-6.41-5.47h-4.83ZM3573.42,1116.99h6.16c4.02,0,5.57-1.53,5.57-4.37s-1.8-4.31-5.4-4.31h-6.33v8.68Z"/>
          <path class="cls-1" d="M3599.1,1136.43v-33.96h9.1c4.24,7.62,12.08,21.38,13.64,25.08h.09c-.38-3.54-.38-9.44-.38-15.01v-10.06h6.65v33.96h-8.63c-3.65-6.64-12.34-22.43-14.02-26.36h-.09c.25,2.97.33,9.95.33,16.03v10.33h-6.7Z"/>
          <path class="cls-1" d="M3679.47,1119.33c0,9.45-5.67,17.59-16.7,17.59s-16.23-7.75-16.23-17.47,6.16-17.47,16.71-17.47c9.93,0,16.23,6.96,16.23,17.36ZM3654.11,1119.3c0,6.63,2.91,11.64,8.93,11.64,6.53,0,8.84-5.47,8.84-11.52,0-6.42-2.63-11.47-8.96-11.47s-8.81,4.74-8.81,11.35Z"/>
          <path class="cls-1" d="M3685.89,1136.43v-33.96h9.1c4.24,7.62,12.08,21.38,13.64,25.08h.09c-.38-3.54-.38-9.44-.38-15.01v-10.06h6.65v33.96h-8.63c-3.65-6.64-12.34-22.43-14.02-26.36h-.09c.25,2.97.33,9.95.33,16.03v10.33h-6.7Z"/>
        </g>
        <g>
          <path class="cls-1" d="M3434,1152.92v33.96h-7.34v-33.96h7.34Z"/>
          <path class="cls-1" d="M3442.13,1186.88v-33.96h9.1c4.24,7.62,12.08,21.38,13.64,25.08h.09c-.38-3.54-.38-9.44-.38-15.01v-10.06h6.65v33.96h-8.63c-3.65-6.63-12.34-22.43-14.02-26.36h-.09c.25,2.97.33,9.95.33,16.03v10.33h-6.7Z"/>
          <path class="cls-1" d="M3487.49,1186.88l-11.98-33.96h7.89l5.05,15.69c1.53,4.74,2.7,8.77,3.48,12.24h.1c.7-3.17,2.02-7.32,3.64-12.13l5.3-15.8h7.49l-12.3,33.96h-8.66Z"/>
          <path class="cls-1" d="M3535.93,1172.23h-16.24v8.63h17.91l-.87,6.02h-24.17v-33.96h24.08v6.02h-16.95v7.28h16.24v6.02Z"/>
          <path class="cls-1" d="M3548.42,1176.92c.77,3.41,3.22,4.9,7.15,4.9s5.6-1.55,5.6-4.03c0-2.76-1.64-3.96-7.45-5.31-9.24-2.17-11.53-5.53-11.53-10.12,0-5.92,4.43-9.94,12.47-9.94,9.02,0,12.61,4.85,13.09,9.81h-7.4c-.35-2.09-1.51-4.36-5.89-4.36-2.98,0-4.78,1.23-4.78,3.64s1.44,3.32,6.93,4.59c9.88,2.33,12.04,6,12.04,10.79,0,6.2-4.69,10.46-13.67,10.46s-13.16-4.24-13.97-10.43h7.4Z"/>
          <path class="cls-1" d="M3581.21,1158.94h-10.32v-6.02h27.95v6.02h-10.28v27.94h-7.35v-27.94Z"/>
          <path class="cls-1" d="M3632.09,1174.14c0-5.79.09-12.29.24-16.13h-.23c-1.6,6.93-4.99,18.24-8.25,28.87h-6.25c-2.48-9.29-5.99-22.18-7.48-28.96h-.23c.29,3.98.43,10.97.43,16.8v12.16h-6.69v-33.96h10.93c2.65,8.87,5.62,20,6.64,25.06h.06c.83-4.46,4.56-16.36,7.39-25.06h10.53v33.96h-7.08v-12.74Z"/>
          <path class="cls-1" d="M3670.69,1172.23h-16.24v8.63h17.91l-.87,6.02h-24.17v-33.96h24.08v6.02h-16.95v7.28h16.24v6.02Z"/>
          <path class="cls-1" d="M3677.62,1186.88v-33.96h9.1c4.24,7.62,12.08,21.38,13.64,25.08h.09c-.38-3.54-.38-9.44-.38-15.01v-10.06h6.65v33.96h-8.63c-3.65-6.63-12.34-22.43-14.02-26.36h-.09c.25,2.97.33,9.95.33,16.03v10.33h-6.7Z"/>
          <path class="cls-1" d="M3722.08,1158.94h-10.32v-6.02h27.95v6.02h-10.28v27.94h-7.35v-27.94Z"/>
        </g>
      </g>
      <g>
        <path class="cls-1" d="M3629.97,736.03c2.52,0,4.52,2,4.52,4.52v1.22c4.69.69,8.86,2.08,12.59,4.17,1.65.96,3.13,2.61,3.13,5.21,0,3.3-2.61,5.82-5.91,5.82-1.04,0-2.09-.26-3.04-.78-2.43-1.3-4.86-2.34-7.21-2.95v13.2c13.2,3.56,18.85,8.95,18.85,18.67s-7.47,15.98-18.41,17.2v4.6c0,2.52-2,4.52-4.52,4.52s-4.52-2-4.52-4.52v-4.69c-6.17-.78-11.99-2.95-17.11-6.08-1.82-1.13-2.95-2.87-2.95-5.21,0-3.39,2.61-5.91,5.99-5.91,1.13,0,2.35.43,3.39,1.13,3.65,2.34,7.12,4,11.12,4.86v-13.81c-12.51-3.39-18.67-8.16-18.67-18.5,0-9.55,7.29-15.98,18.24-17.11v-1.04c0-2.52,2-4.52,4.52-4.52ZM3625.89,764.17v-11.72c-4.17.61-5.99,2.69-5.99,5.47s1.22,4.52,5.99,6.25ZM3634.05,779.37v12.07c4.08-.61,6.17-2.52,6.17-5.65,0-2.87-1.48-4.78-6.17-6.43Z"/>
        <g>
          <rect class="cls-4" x="3417.16" y="875.26" width="66.59" height="143.2" transform="translate(-115.44 1241.11) rotate(-20.06)"/>
          <path class="cls-4" d="M3569.38,936l59.32,7.65c5.57.72,10.9-.89,15.02-4.07,3.52-2.71,6.15-6.58,7.29-11.12.2-.77.35-1.57.45-2.38,1.44-11.14-6.43-21.33-17.56-22.77l-68.09-8.78c-23.71-26.77-56.77-32.23-102.35-9.12"/>
          <path class="cls-4" d="M3651.02,928.47l69.42-57.92c4.78-3.99,10.9-5.66,16.8-4.9,3.07.4,6.08,1.45,8.82,3.17,12.23,7.68,13.78,24.9,3.11,34.64l-96.71,88.31c-2.96,2.7-6.96,3.96-10.93,3.45l-122.78-10.28-16.65,6.25"/>
        </g>
        <g>
          <g>
            <path class="cls-4" d="M3533.21,794.68c10.11,43.67,49.24,76.2,95.97,76.2s88.07-34.39,96.77-79.91"/>
            <path class="cls-4" d="M3725.36,751.01h0c-9.75-44.14-49.1-77.16-96.18-77.16s-88.04,34.4-96.74,79.91"/>
          </g>
          <polyline class="cls-4" points="3734.88 710.63 3724.89 751.14 3690.92 727.47"/>
          <polyline class="cls-4" points="3523.5 834.1 3533.22 794.68 3567.46 817.26"/>
        </g>
        <circle class="cls-4" cx="3629.19" cy="772.37" r="59.99"/>
      </g>
    </g>
  </g>
</svg>