<?xml version="1.0" encoding="utf-8"?>
<!-- Generator: Adobe Illustrator 16.0.0, SVG Export Plug-In . SVG Version: 6.00 Build 0)  -->
<!DOCTYPE svg PUBLIC "-//W3C//DTD SVG 1.1//EN" "http://www.w3.org/Graphics/SVG/1.1/DTD/svg11.dtd">
<svg version="1.1" id="Layer_1" xmlns="http://www.w3.org/2000/svg" xmlns:xlink="http://www.w3.org/1999/xlink" x="0px" y="0px"
	 width="10px" height="10px" viewBox="0 0 10 10" enable-background="new 0 0 10 10" xml:space="preserve">
<g>
	<path d="M2583.599,638.236c-0.261,0-0.473,0.212-0.473,0.473s0.212,0.473,0.473,0.473s0.473-0.212,0.473-0.473
		S2583.859,638.236,2583.599,638.236z M2583.599,638.817c-0.06,0-0.108-0.049-0.108-0.108s0.049-0.108,0.108-0.108
		s0.108,0.049,0.108,0.108S2583.658,638.817,2583.599,638.817z"/>
	<path d="M2580.982,638.294c-1.204,0-2.185,0.98-2.185,2.186s0.98,2.186,2.185,2.186c1.205,0,2.187-0.98,2.187-2.186
		S2582.188,638.294,2580.982,638.294z M2580.982,642.301c-1.004,0-1.82-0.816-1.82-1.821c0-1.004,0.816-1.821,1.82-1.821
		c1.005,0,1.822,0.817,1.822,1.821C2582.805,641.484,2581.987,642.301,2580.982,642.301z"/>
	<path d="M2583.569,637.58h-0.959v-0.28c0-0.356-0.29-0.647-0.646-0.647h-1.96c-0.357,0-0.647,0.291-0.647,0.647v0.28h-0.21v-0.291
		c0-0.229-0.186-0.415-0.414-0.415h-0.57c-0.229,0-0.414,0.186-0.414,0.415l0.002,0.459c-0.428,0.236-0.698,0.686-0.698,1.178v3.108
		c0,0.741,0.604,1.345,1.345,1.345h5.173c0.741,0,1.345-0.604,1.345-1.345v-3.108C2584.914,638.184,2584.311,637.58,2583.569,637.58
		z M2584.55,642.034c0,0.54-0.439,0.98-0.98,0.98h-5.173c-0.541,0-0.98-0.44-0.98-0.98v-3.108c0-0.389,0.231-0.74,0.591-0.898
		l0.105-0.066v-0.672c0-0.027,0.022-0.051,0.05-0.051h0.57c0.027,0,0.051,0.023,0.051,0.051v0.656h0.938V637.3
		c0-0.156,0.127-0.283,0.283-0.283h1.96c0.155,0,0.282,0.127,0.282,0.283v0.646h1.323c0.541,0,0.98,0.439,0.98,0.98V642.034z"/>
	<path d="M2580.983,639.834c-0.321,0-0.583,0.261-0.583,0.582c0,0.32,0.262,0.582,0.583,0.582s0.582-0.262,0.582-0.582
		C2581.565,640.095,2581.305,639.834,2580.983,639.834z M2580.983,640.634c-0.12,0-0.218-0.098-0.218-0.218
		c0-0.121,0.098-0.219,0.218-0.219s0.218,0.098,0.218,0.219C2581.201,640.536,2581.104,640.634,2580.983,640.634z"/>
</g>
<g>
	<path d="M3.777,4.172h2.447c0.351,0,0.635-0.286,0.635-0.637V2.065c0-0.351-0.284-0.636-0.635-0.636H5.771V1.295
		c0-0.169-0.138-0.306-0.307-0.306H4.537c-0.168,0-0.307,0.137-0.307,0.306v0.133H3.777c-0.352,0-0.637,0.285-0.637,0.636v1.471
		C3.141,3.887,3.426,4.172,3.777,4.172z M3.313,2.065c0-0.256,0.208-0.464,0.464-0.464h0.626V1.295c0-0.074,0.061-0.134,0.134-0.134
		h0.927c0.073,0,0.135,0.06,0.135,0.134v0.305h0.626c0.256,0,0.463,0.208,0.463,0.464v1.471C6.688,3.792,6.48,4,6.225,4H3.777
		C3.521,4,3.313,3.792,3.313,3.536V2.065z"/>
	<path d="M5,3.834c0.571,0,1.035-0.464,1.035-1.034S5.571,1.766,5,1.766c-0.57,0-1.033,0.464-1.033,1.034S4.43,3.834,5,3.834z
		 M5,1.939c0.475,0,0.862,0.386,0.862,0.861S5.475,3.662,5,3.662S4.139,3.275,4.139,2.8S4.525,1.939,5,1.939z"/>
	<path d="M5.646,5.112V4.616h0.646c0.522,0,0.947-0.425,0.947-0.948V2.842c0-0.047-0.037-0.086-0.086-0.086
		c-0.048,0-0.086,0.039-0.086,0.086v0.826c0,0.428-0.348,0.776-0.775,0.776H5.561H4.505H3.708c-0.429,0-0.774-0.348-0.774-0.776
		V2.842c0-0.047-0.04-0.086-0.087-0.086c-0.048,0-0.086,0.039-0.086,0.086v0.826c0,0.523,0.425,0.948,0.947,0.948h0.711v0.496
		c0,0.048,0.038,0.086,0.086,0.086h0.357L3.054,8.887C3.032,8.93,3.05,8.981,3.093,9.002c0.012,0.007,0.025,0.009,0.038,0.009
		c0.031,0,0.063-0.018,0.077-0.048l1.738-3.545v2.925c0,0.048,0.038,0.086,0.087,0.086c0.047,0,0.086-0.038,0.086-0.086V5.408
		l1.742,3.555c0.016,0.03,0.047,0.048,0.078,0.048c0.013,0,0.026-0.002,0.037-0.009C7.02,8.981,7.037,8.93,7.017,8.887L5.208,5.198
		h0.353C5.607,5.198,5.646,5.16,5.646,5.112z M5.475,5.026H4.591v-0.41h0.884V5.026z"/>
</g>
</svg>
