<?xml version="1.0" encoding="UTF-8"?>
<svg id="Layer_1" xmlns="http://www.w3.org/2000/svg" version="1.1" viewBox="0 0 242 216">
  <!-- Generator: Adobe Illustrator 29.4.0, SVG Export Plug-In . SVG Version: 2.1.0 Build 29)  -->
  <defs>
    <style>
      .st0 {
        fill: #705043;
      }

      .st1 {
        fill: #cca060;
      }
    </style>
  </defs>
  <path class="st1" d="M146.17,53c-1.03,1.46-2.68,2.59-4.79,3l-19.71,3.76c-.42.08-.83-.2-.91-.62,0-.02,0-.03,0-.05l-.56.11c-.42.08-.83-.2-.91-.62-.08-.42.2-.83.62-.91l19.71-3.76c1.72-.33,3-1.23,3.81-2.37.8-1.13,1.11-2.49.87-3.72-.12-.62-.37-1.2-.77-1.73-.4-.53-.95-1-1.68-1.38h0c-.12-.06-.25-.13-.39-.18-.14-.06-.26-.16-.34-.28-.14-.21-.18-.49-.07-.74.17-.39.63-.58,1.02-.41.16.07.33.15.48.23h0s0,0,0,0c.18.09.34.19.51.3.16-.04.33-.03.49.04.17.07.33.15.48.23.36.18.69.39.99.61.48.36.89.77,1.23,1.21.54.72.9,1.54,1.06,2.38.32,1.68-.1,3.46-1.13,4.91M146.43,43.15c-2.59-2.39-7.16-4.5-13.85-6.31l1.24,6.51c.14.76-.03,1.48-.42,2.07-.4.58-1.01,1.02-1.77,1.16-.37.07-.74.06-1.09-.01,0,0,0,0,0,0-.75.14-1.48-.03-2.07-.43-.58-.4-1.01-1.01-1.16-1.77l-1.74-9.15c-1.45-.26-2.97-.43-4.54-.53-.16-.02-.32-.02-.48-.03-.34-.02-.67-.01-1.01-.02-.54,0-1.08.02-1.62.06h-.1s2.15,11.28,2.15,11.28c.14.76-.03,1.48-.43,2.07-.4.58-1.01,1.02-1.77,1.16-.37.07-.74.06-1.08-.01,0,0,0,0,0,0-.75.14-1.48-.03-2.07-.43-.58-.4-1.01-1.01-1.16-1.77l-2.14-11.22c-1.02.28-2.03.62-3.02,1.01-.83.33-1.64.7-2.44,1.11-.55.29-1.1.58-1.62.89l1.87,9.82c.14.76-.03,1.48-.43,2.07-.21.31-.48.58-.81.78-.28.18-.6.31-.96.38-.37.07-.74.06-1.08-.01,0,0,0,0,0,0-.75.14-1.48-.03-2.07-.43-.58-.4-1.01-1.01-1.16-1.77l-1.3-6.82c-5.59,4.24-9.01,8.32-10.5,11.61-.03.07-.07.15-.1.21-.7,1.6-.88,3.37-.55,5.08l.03.18c.76,3.97,4.09,6.78,7.94,7.06.39-.02.78-.06,1.17-.13l45.82-8.74c4.74-.9,7.84-5.47,6.94-10.2-.17-.91-.49-1.8-.94-2.6-.44-.8-1.01-1.54-1.7-2.16"/>
  <path class="st0" d="M104.6,50.7c.4-.59.57-1.31.43-2.07l-1.87-9.82c.52-.31,1.07-.6,1.62-.89.8-.41,1.61-.78,2.44-1.11,1.29-.52,2.61-.94,3.96-1.26l.1-.02.05.28,2.14,11.22c.14.75.57,1.37,1.16,1.77.59.4,1.32.57,2.07.43,0,0,0,0,0,0,.75-.15,1.36-.57,1.76-1.16.4-.59.57-1.31.43-2.07l-2.15-11.27h.1s-.02-.01-.02-.01h.02c.9-.06,1.81-.07,2.71-.05.34,0,.67,0,1.01.02.16,0,.32.01.48.03,1.57.09,3.09.27,4.54.53l1.74,9.15c.14.75.57,1.37,1.16,1.77.59.4,1.32.57,2.07.43,0,0,0,0,.01,0,.76-.15,1.36-.57,1.76-1.16.39-.59.57-1.31.42-2.07l-1.3-6.81c.39.1.77.2,1.15.3,6.69,1.81,11.25,3.93,13.85,6.31.69.63,1.25,1.36,1.7,2.16.44.8.76,1.69.93,2.6.9,4.73-2.2,9.3-6.94,10.2l-45.82,8.74c-.39.07-.78.11-1.17.13-4.29.23-8.2-2.73-9.03-7.06l-.03-.18c-.33-1.72-.14-3.48.55-5.08,1.52-3.52,5.26-7.95,11.55-12.54l.14.72,1.3,6.82c.14.75.57,1.37,1.16,1.77.59.4,1.32.57,2.07.43,0,0,0,0,0,0,.76-.15,1.36-.57,1.76-1.16M98.75,40.67c-.28-.11-.58-.14-.87-.08-.22.04-.43.14-.62.27-6,4.38-10.28,9.05-12.07,13.18-.81,1.89-1.04,3.96-.65,6l.03.18c1.06,5.57,6.45,9.23,12.03,8.17l45.82-8.74c5.57-1.06,9.24-6.45,8.18-12.02-.21-1.08-.58-2.11-1.1-3.06-.53-.97-1.21-1.83-2.01-2.56-3-2.76-8.12-5.04-15.66-6.97-.22-.06-.46-.07-.68-.02-.29.06-.56.19-.78.4-.39.37-.56.9-.46,1.43l1.3,6.81c.08.4-.06.71-.19.91-.12.18-.36.42-.77.5-.4.08-.7-.06-.89-.19-.19-.13-.43-.37-.51-.77l-1.74-9.15c-.12-.64-.62-1.13-1.26-1.25-1.52-.27-3.1-.45-4.7-.54-.18-.01-.36-.03-.54-.04-1.32-.06-2.62-.05-3.87.03-.07,0-.18.01-.3.04-.85.16-1.4.98-1.24,1.82l2.15,11.27c.08.4-.06.71-.19.91-.12.18-.36.42-.77.5-.4.08-.71-.06-.9-.19-.18-.13-.42-.37-.5-.77l-2.19-11.5c-.16-.85-.98-1.4-1.82-1.24l-.14.03h-.04c-1.43.36-2.83.8-4.16,1.34-.88.35-1.75.75-2.58,1.17-.65.34-1.21.64-1.69.94-.57.33-.87.99-.74,1.63l1.87,9.82c.08.4-.06.71-.19.91-.12.18-.36.42-.77.5-.4.08-.71-.06-.9-.19-.18-.13-.42-.37-.5-.77l-1.44-7.54c-.1-.53-.46-.96-.96-1.16"/>
  <path class="st0" d="M120.19,59.19l19.71-3.76c2.11-.4,3.76-1.54,4.79-3,.14-.2.27-.41.39-.63.31-.55.54-1.13.68-1.73.2-.84.22-1.71.06-2.55-.16-.84-.51-1.66-1.06-2.38-.44-.58-1.02-1.1-1.71-1.53-.16-.1-.33-.2-.51-.3h0s0,0,0,0c-.16-.08-.32-.16-.48-.23-.4-.17-.85.01-1.02.41-.11.25-.07.53.07.74.08.12.19.22.34.28.13.06.26.12.39.18h0c.73.38,1.28.85,1.68,1.38.4.53.65,1.11.77,1.73.24,1.23-.07,2.59-.87,3.72-.8,1.13-2.08,2.04-3.81,2.37l-17.92,3.42-1.79.34c-.42.08-.7.49-.62.91.08.42.49.7.91.62"/>
  <path class="st0" d="M31.56,100.27s-.1.39-.2,1.14c-.1.75-.25,1.75-.45,2.99-.2,1.25-.41,2.66-.63,4.25-.22,1.59-.46,3.23-.7,4.93-.25,1.7-.49,3.38-.73,5.04-.24,1.66-.46,3.18-.66,4.56-.2,1.38-.37,2.55-.51,3.51-.14.96-.23,1.58-.27,1.86.21-.42.61-1.26,1.19-2.52.58-1.26,1.28-2.78,2.11-4.56.82-1.77,1.72-3.73,2.71-5.86.98-2.13,1.98-4.27,2.99-6.43,1.01-2.15,1.98-4.24,2.92-6.26.94-2.02,1.78-3.81,2.53-5.39.75-1.57,1.36-2.84,1.82-3.81.46-.97.71-1.45.74-1.46.11-.09.22-.16.31-.2.09-.04.2-.07.33-.1.51-.15,1.17-.34,1.98-.59.81-.25,1.66-.51,2.56-.8.9-.29,1.81-.56,2.71-.81.91-.25,1.72-.47,2.45-.65.72-.18,1.31-.29,1.75-.34.45-.05.65,0,.62.14-.04.14-.17.95-.4,2.42-.23,1.47-.54,3.35-.93,5.64-.39,2.29-.81,4.86-1.27,7.72-.46,2.86-.94,5.75-1.42,8.67-.48,2.92-.95,5.75-1.41,8.49-.46,2.74-.85,5.11-1.18,7.12,1.02-.73,2.04-1.71,3.05-2.94,1.01-1.22,1.98-2.51,2.9-3.87.92-1.35,1.77-2.69,2.56-4.02.79-1.33,1.47-2.44,2.05-3.35.59.68,1.11,1.4,1.54,2.14.38.63.67,1.32.89,2.06.22.75.22,1.48,0,2.21-.15.54-.51,1.23-1.06,2.06-.56.84-1.23,1.72-2.02,2.66-.79.94-1.66,1.88-2.6,2.81-.94.94-1.87,1.79-2.78,2.55-.91.76-1.78,1.39-2.6,1.9-.82.5-1.49.8-2.01.88-.57.16-1.37.13-2.38-.1-1.02-.23-2.02-.59-3.01-1.08-.99-.49-1.85-1.11-2.6-1.86-.74-.75-1.14-1.56-1.2-2.42-.04-.47-.02-1.26.06-2.37.07-1.12.17-2.48.28-4.1l1.22-15.04-17.03,32.02c.03.3-.08.47-.34.53l-.63.14c-.71.02-1.53-.11-2.47-.39-.94-.28-1.84-.68-2.7-1.2-.86-.52-1.6-1.12-2.23-1.81-.63-.69-.96-1.44-1.01-2.24-.03-1.04.02-2.32.14-3.84.12-1.52.29-3.17.52-4.96.23-1.79.49-3.66.78-5.61.29-1.94.6-3.86.91-5.74.31-1.88.61-3.68.9-5.4.29-1.72.56-3.25.8-4.6l-6.41,5.64,3.73-.37-5.73,4.12c-.53-.69-1.15-1.5-1.86-2.4-.71-.91-1.28-1.85-1.72-2.82-.44-.97-.61-1.93-.52-2.88.09-.95.66-1.83,1.7-2.64,1.13-.86,2.32-1.63,3.57-2.32,1.25-.68,2.45-1.27,3.59-1.77,1.14-.49,2.15-.85,3.01-1.08.86-.23,1.47-.33,1.81-.3.58.04,1.43.17,2.53.4,1.1.23,2.19.5,3.28.82,1.09.32,2.04.65,2.86.99.82.34,1.26.63,1.31.85"/>
  <path class="st0" d="M78.22,109.63c-.17-.74-.53-1.42-1.09-2.04-.56-.62-1.16-.99-1.8-1.12-.87.19-1.61.78-2.22,1.76-.61.98-1.09,2.15-1.43,3.49-.34,1.35-.57,2.77-.67,4.26-.11,1.5-.11,2.85,0,4.06.1,1.21.29,2.19.57,2.92.28.73.65,1,1.12.79.8-.35,1.51-1.12,2.12-2.33.61-1.2,1.13-2.54,1.57-4.01.43-1.47.8-2.92,1.11-4.36.31-1.44.55-2.58.73-3.44M80.13,100.21l6.57-1.72c1.4-.38,2.4-.59,2.98-.64.58-.04.91.14.99.57.08.42-.04,1.12-.35,2.08-.31.97-.65,2.27-1.03,3.91-.41,1.82-.84,3.79-1.3,5.92-.45,2.13-.85,4.13-1.2,6-.34,1.87-.6,3.46-.76,4.76-.17,1.31-.17,2.03,0,2.16.12.08.34-.1.67-.53.33-.43.74-1.02,1.23-1.77.49-.75,1.04-1.62,1.63-2.6.6-.98,1.2-1.98,1.82-2.99,1.42-2.42,3.01-5.17,4.76-8.27.47.74.88,1.51,1.23,2.32.32.67.59,1.41.8,2.21.21.8.26,1.55.14,2.25-.1.46-.38,1.06-.84,1.79-.46.73-1.03,1.52-1.71,2.36-.67.84-1.4,1.69-2.17,2.54-.78.85-1.53,1.64-2.26,2.38-.73.74-1.39,1.37-1.97,1.88-.58.52-.99.84-1.23.96-.47.17-1.26.27-2.37.3-1.11.03-2.26-.05-3.45-.22-1.19-.17-2.28-.45-3.28-.82-1-.37-1.63-.88-1.91-1.53l-.28-1.26c-.3,1.25-.72,2.37-1.28,3.36-.56.99-1.05,1.66-1.48,2.03-.29.23-.77.42-1.45.55-.68.14-1.46.19-2.35.17-.89-.02-1.83-.11-2.82-.26-1-.15-1.97-.4-2.91-.75-.94-.35-1.79-.79-2.53-1.34-.75-.54-1.31-1.21-1.69-2.01-.4-.89-.6-2.02-.6-3.39,0-1.37.15-2.83.44-4.39.26-1.41.61-2.83,1.05-4.27.44-1.44.91-2.74,1.41-3.92.5-1.18,1-2.18,1.51-3,.51-.82.96-1.35,1.35-1.57.54-.32,1.25-.6,2.15-.83.9-.23,1.82-.42,2.77-.57.95-.14,1.84-.24,2.68-.29.83-.05,1.48-.03,1.95.07.39.08.81.34,1.27.78.45.44.87.91,1.25,1.4.47.57.93,1.2,1.38,1.87l1.22-5.7h0Z"/>
  <path class="st0" d="M98.92,79.73c.51-.15,1.17-.34,1.98-.57.81-.23,1.68-.48,2.6-.76.92-.27,1.84-.54,2.77-.79.92-.26,1.76-.47,2.49-.66.74-.18,1.33-.29,1.78-.32.45-.03.66.02.62.17-.04.14-.17.83-.41,2.05-.24,1.22-.58,3.25-1.03,6.09.16-.04.69-.2,1.59-.48.9-.29,2.05-.64,3.44-1.07,1.39-.43,2.95-.92,4.67-1.47,1.72-.55,3.48-1.1,5.27-1.66,1.79-.55,3.54-1.1,5.27-1.65,1.72-.55,3.27-1.04,4.65-1.47,1.38-.43,2.5-.78,3.37-1.06.87-.28,1.37-.43,1.5-.46.06-.01.06.18-.02.59-.08.41-.24.92-.47,1.53-.24.61-.54,1.28-.92,2.01-.38.73-.82,1.43-1.31,2.09-.49.67-1.05,1.26-1.66,1.77-.61.51-1.29.85-2.03,1.01-.1.02-.69.16-1.78.42-1.09.26-2.45.57-4.08.93-1.63.36-3.42.76-5.37,1.2-1.95.43-3.81.85-5.59,1.24-1.77.39-3.36.74-4.77,1.04-1.41.3-2.38.47-2.9.52-.34,2.11-.71,4.42-1.09,6.94-.39,2.52-.77,5.02-1.15,7.49-.38,2.47-.74,4.82-1.07,7.04-.33,2.22-.64,4.09-.91,5.61.87-.63,1.73-1.43,2.57-2.37.84-.95,1.65-1.96,2.45-3.03.79-1.07,1.55-2.17,2.26-3.3.71-1.12,1.37-2.17,1.96-3.15.14-1.49.34-3.26.59-5.33.25-2.07.57-4.52.95-7.35.04-.14.1-.26.2-.35.1-.09.28-.16.54-.22l6.43-1.43c1.42-.32,2.43-.5,3.03-.55.6-.05.94.09,1.04.43.09.34,0,.89-.29,1.66-.28.77-.6,1.84-.94,3.2-.21,1.03-.43,2.15-.67,3.37-.24,1.22-.46,2.45-.68,3.68-.22,1.23-.41,2.43-.6,3.59-.18,1.16-.33,2.19-.45,3.1-.12.91-.19,1.65-.21,2.23-.02.58,0,.9.08.95.12.08.35-.2.71-.82.35-.62.76-1.47,1.21-2.55.45-1.08.95-2.33,1.48-3.73.53-1.4,1.07-2.84,1.6-4.32.53-1.47,1.04-2.91,1.52-4.33.48-1.41.89-2.66,1.22-3.75l.51-3.62c.03-.18.12-.31.26-.41.15-.1.3-.17.46-.2l6.58-1.47c1.39-.31,2.37-.49,2.95-.53.58-.04.9.14.96.55.06.41-.06,1.08-.36,2.01-.3.93-.62,2.21-.97,3.85-.43,1.86-.88,3.85-1.36,5.99-.47,2.14-.89,4.13-1.25,5.99-.37,1.86-.63,3.43-.8,4.72-.17,1.29-.17,2,0,2.13.09.08.3-.08.66-.48.35-.4.77-.98,1.27-1.73.49-.75,1.04-1.61,1.63-2.57.6-.96,1.2-1.97,1.82-3.02,1.42-2.42,3.02-5.19,4.79-8.33.66.67,1.22,1.37,1.69,2.11.41.62.75,1.31,1.02,2.06.27.75.33,1.48.18,2.19-.09.5-.39,1.12-.9,1.88-.51.76-1.12,1.58-1.84,2.47-.72.89-1.5,1.78-2.35,2.68-.85.9-1.67,1.72-2.47,2.45-.8.74-1.51,1.36-2.12,1.87-.61.51-1.06.81-1.35.91-.28.1-.73.18-1.34.25-.61.07-1.29.09-2.04.07-.75-.02-1.53-.07-2.35-.16-.82-.09-1.57-.23-2.28-.43-.7-.2-1.31-.44-1.81-.74-.51-.29-.84-.66-1.01-1.1-.14-.31-.22-.8-.25-1.47-.03-.67-.02-1.48.04-2.44-.39.97-.78,1.91-1.15,2.82-.37.91-.71,1.73-1.03,2.44-.32.71-.61,1.3-.88,1.77-.27.47-.5.74-.68.81-.35.11-.9.1-1.66-.04-.76-.14-1.6-.35-2.53-.65-.93-.3-1.86-.65-2.8-1.05-.94-.4-1.74-.81-2.41-1.24-.8.99-1.7,2-2.7,3.04-1.01,1.04-2,1.99-2.99,2.87-.99.88-1.93,1.62-2.83,2.2-.9.59-1.64.93-2.23,1.03-.61.17-1.42.14-2.46-.09-1.03-.23-2.04-.59-3.04-1.1-.99-.51-1.87-1.13-2.63-1.88-.76-.75-1.17-1.55-1.22-2.42-.01-.51.02-1.45.1-2.84.08-1.39.2-3.03.35-4.93l1.42-16.66c-.1.02-.33.07-.7.16-.37.08-.8.17-1.29.26-.49.09-1,.21-1.55.34-.55.14-1.05.25-1.52.34-.47.09-1.03.2-1.67.35-.44,0-.68-.19-.71-.55-.03-.37.04-.78.21-1.24.17-.46.38-.9.65-1.31.26-.41.47-.66.63-.72.28-.13.68-.29,1.21-.47.53-.19,1.11-.38,1.72-.59.61-.2,1.22-.4,1.82-.58.6-.18,1.12-.34,1.57-.48.08-.86.14-1.58.18-2.15.04-.57.08-1.07.12-1.5.04-.43.06-.82.07-1.16,0-.34.02-.7.04-1.08.06-.32.1-.6.12-.84.01-.24.05-.44.12-.61.06-.17.17-.3.32-.4.15-.1.36-.2.64-.3"/>
  <path class="st0" d="M155.87,83.09c1.74-.39,2.88-.56,3.42-.51.54.05.73.43.58,1.14.57-.5,1.12-.92,1.65-1.26.53-.34,1.03-.54,1.49-.61.49-.08,1.26-.26,2.31-.57,1.05-.3,2.13-.56,3.25-.78,1.12-.22,2.13-.31,3.03-.3.9.02,1.44.3,1.63.83.11.35.16.9.14,1.67-.02.76-.07,1.62-.16,2.57-.09.95-.21,1.95-.35,3-.14,1.05-.3,2.05-.47,3.02-.17.97-.34,1.85-.51,2.63-.16.78-.3,1.39-.41,1.82-.35.42-.89.77-1.61,1.07-.73.3-1.53.54-2.4.74-.87.19-1.76.36-2.66.49-.9.13-1.73.25-2.49.35-.76.1-1.37.19-1.85.26-.47.07-.72.14-.74.22.44-1.22.92-2.58,1.45-4.1.52-1.52.98-2.96,1.37-4.32.39-1.36.67-2.51.83-3.46.16-.95.1-1.46-.19-1.53-.14-.03-.41.2-.81.71-.39.51-.86,1.22-1.41,2.12-.54.9-1.14,1.95-1.79,3.14-.65,1.19-1.31,2.48-1.99,3.84-.27,1.38-.5,2.79-.7,4.24-.2,1.45-.37,2.86-.51,4.22-.14,1.37-.24,2.63-.33,3.78-.08,1.15-.12,2.1-.13,2.85,0,.27-.14.43-.4.47-.26.04-.48.06-.64.07-.47,0-1.13-.03-1.98-.09-.84-.07-1.69-.19-2.54-.37-.85-.18-1.63-.43-2.33-.75-.7-.32-1.13-.73-1.31-1.23-.15-.37-.23-1.01-.25-1.9-.01-.89.03-1.95.13-3.18.1-1.22.24-2.54.41-3.95.18-1.41.38-2.83.6-4.27l1.44-9.97c.03-.17.12-.32.28-.44.16-.12.34-.2.53-.25l6.38-1.42h0Z"/>
  <path class="st0" d="M190.55,80.39c-.71.16-1.36.65-1.96,1.48-.6.83-1.11,1.82-1.54,2.98-.43,1.16-.79,2.42-1.06,3.77-.28,1.35-.43,2.62-.47,3.81.2-.18.51-.6.93-1.27.43-.67.87-1.45,1.33-2.35.46-.9.92-1.84,1.37-2.84.45-1,.83-1.91,1.14-2.74.31-.83.5-1.52.58-2.06.08-.54-.02-.8-.32-.77M176.17,99.48c-.68-.93-1.14-2.07-1.37-3.43-.23-1.35-.32-2.78-.24-4.29.07-1.51.28-3.02.63-4.56.35-1.53.77-2.94,1.27-4.22s1.04-2.36,1.63-3.26c.6-.89,1.19-1.47,1.77-1.74.83-.39,1.7-.7,2.63-.94.93-.24,1.83-.42,2.7-.55.87-.13,1.67-.2,2.41-.23.74-.03,1.34,0,1.8.11.38.05.77.24,1.15.58.38.34.8.71,1.26,1.11.76-.1,1.45-.12,2.07-.06.55.05,1.1.17,1.66.37.55.2.97.54,1.24,1.02.29.54.4,1.26.32,2.14-.07.88-.28,1.84-.6,2.88-.33,1.04-.77,2.1-1.32,3.19-.55,1.09-1.17,2.09-1.84,3-.68.91-1.4,1.69-2.17,2.34-.77.65-1.53,1.05-2.27,1.22l-3.39.5.1.43c.07,1.07.22,1.88.44,2.44.23.56.53.95.92,1.17.39.22.83.28,1.31.19.49-.09,1.01-.25,1.57-.48,1.14-.49,2.28-1.37,3.42-2.64,1.14-1.27,2.24-2.65,3.32-4.14,1.07-1.49,2.06-2.97,2.97-4.44.91-1.47,1.69-2.69,2.36-3.65.62.81,1.16,1.62,1.61,2.43.39.69.71,1.45.96,2.27.25.83.27,1.6.06,2.32-.18.58-.55,1.27-1.11,2.07-.57.8-1.26,1.63-2.08,2.5-.82.86-1.71,1.73-2.65,2.59-.94.87-1.87,1.66-2.8,2.37-.92.71-1.79,1.31-2.59,1.8-.81.48-1.47.78-1.98.9-1.15.46-2.43.74-3.85.83-1.42.1-2.83.01-4.24-.25-1.41-.26-2.75-.72-4.01-1.37-1.26-.65-2.28-1.5-3.05-2.54"/>
  <path class="st0" d="M203.91,59.9c-.24,1.34-.49,2.69-.75,4.05-.26,1.36-.52,2.71-.8,4.06-.04.14-.12.21-.26.21-.2.01-.46,0-.77-.06-.32-.05-.62-.12-.91-.2-.29-.09-.55-.21-.77-.36-.22-.15-.34-.33-.35-.53.03-2.14.12-4.24.27-6.3-.01-.2.06-.32.23-.36.06-.01.3-.07.7-.16.4-.09.83-.17,1.29-.24.56-.09,1.17-.21,1.85-.36l.14-.03c.08.05.12.14.11.28"/>
  <path class="st0" d="M215.94,70.41c.35-.55.74-.9,1.16-1.05.42-.15.94-.29,1.56-.42l14.74-3.34c-.22,1.27-.5,2.46-.83,3.59-.27.94-.59,1.89-.99,2.86-.39.97-.84,1.69-1.34,2.18-.33.34-.9.62-1.72.84-.82.22-1.73.41-2.74.58-1.01.17-2.05.33-3.12.47-1.07.14-2.04.28-2.9.42-.87.14-1.56.3-2.08.46-.52.17-.74.38-.65.63.15.2.66.37,1.53.5.87.13,1.92.24,3.15.34,1.22.1,2.53.22,3.91.35,1.38.13,2.65.33,3.81.6,1.16.27,2.12.61,2.87,1.04.75.43,1.12.98,1.11,1.66-.02.68-.16,1.46-.42,2.33-.26.87-.59,1.78-.99,2.73-.4.95-.85,1.89-1.35,2.81-.51.92-1.03,1.76-1.57,2.51-.54.75-1.08,1.38-1.61,1.91-.53.52-1.01.85-1.46.98-.35.11-.8.2-1.36.28-.56.07-1.17.12-1.82.15-.65.03-1.32,0-2-.09-.68-.08-1.3-.24-1.85-.45-.52-.19-.81-.53-.89-1.02-.08-.49-.03-.99.12-1.5.17-.61.43-1.25.8-1.9.88.31,1.73.49,2.56.55.69.05,1.38-.02,2.09-.21.7-.19,1.26-.65,1.67-1.39.36-.66.4-1.17.11-1.55-.29-.38-.8-.67-1.54-.87-.74-.21-1.63-.38-2.66-.53-1.03-.14-2.09-.31-3.19-.51-1.09-.2-2.16-.46-3.2-.79-1.04-.33-1.91-.8-2.63-1.42-.62-.5-1-1.12-1.15-1.85-.14-.73-.13-1.51.04-2.34.17-.83.45-1.7.84-2.6.39-.9.83-1.78,1.32-2.63.49-.85.97-1.65,1.44-2.4.48-.75.88-1.38,1.2-1.89"/>
  <path class="st0" d="M100.78,143.76c-.22.27-.66.75-1.29,1.42-.64.67-1.4,1.44-2.28,2.29-.88.85-1.85,1.77-2.91,2.74-1.05.97-2.09,1.92-3.12,2.84-1.03.92-2.01,1.74-2.94,2.48-.93.74-1.74,1.31-2.41,1.72.31-1.93.67-4.2,1.11-6.8.43-2.6.88-5.29,1.33-8.08.45-2.78.91-5.54,1.36-8.28.33-2,.63-3.85.92-5.55-.06.04-.11.09-.18.13-.18.11-.36.24-.63.36l-.18.09-.19.07c-.3.11-.58.19-.85.25-.87.19-1.7.24-2.69.27-1.33.03-2.69-.06-4.07-.26-.92-.13-1.8-.32-2.65-.57-.15,1.55-.31,3.25-.49,5.1-.2,2.23-.41,4.56-.63,7-.21,2.44-.38,4.74-.54,6.89-.15,2.15-.26,4.04-.35,5.67-.09,1.62-.11,2.74-.08,3.34.03.83.4,1.59,1.11,2.28.71.69,1.54,1.27,2.49,1.76.94.48,1.9.84,2.88,1.06.98.24,1.76.29,2.3.16,1.67-.28,3.34-.71,5.01-1.31,1.66-.59,3.18-1.28,4.55-2.05,1.37-.77,2.52-1.58,3.44-2.41.93-.83,1.49-1.64,1.7-2.42.34-1.04.59-2.2.74-3.49.15-1.28.22-2.46.22-3.54,0-1.07-.06-1.93-.19-2.58-.13-.64-.29-.85-.5-.61"/>
  <path class="st0" d="M111.54,136.88c-.41.77-.8,1.7-1.18,2.81-.38,1.11-.71,2.27-1.01,3.48-.29,1.21-.54,2.42-.73,3.63-.19,1.22-.31,2.31-.35,3.28-.04.97.02,1.77.17,2.39.15.62.41.96.78,1.01.56-.06,1.09-.31,1.59-.74.5-.43.94-.96,1.33-1.57.39-.62.74-1.27,1.03-1.96.3-.69.52-1.33.68-1.91.16-.58.25-1.07.28-1.46.03-.39-.03-.59-.16-.59-.16,0-.39-.03-.7-.11-.31-.08-.62-.23-.95-.46-.32-.23-.61-.56-.85-.99-.24-.43-.36-1-.35-1.7-.05-.66-.08-1.21-.08-1.64,0-.43.03-.82.08-1.15.05-.33.11-.68.18-1.03.07-.35.14-.78.22-1.28M100.39,152.8c-.77-.99-1.23-2.23-1.41-3.73-.17-1.5-.17-3.09,0-4.77.16-1.32.41-2.63.76-3.95.35-1.31.75-2.52,1.19-3.61.45-1.09.92-2.02,1.43-2.77.51-.75.99-1.25,1.45-1.48.79-.34,1.65-.62,2.58-.84.93-.22,1.82-.41,2.67-.55.85-.14,1.63-.23,2.32-.28.7-.04,1.19-.05,1.49-.02.68.17,1.12.35,1.32.52.33.18.53.34.59.47.06.13.05.27-.03.42-.08.15-.22.31-.42.5-.2.19-.41.42-.64.7,1.01-.22,2.12-.12,3.34.31.53.23.9.93,1.09,2.09.19,1.16.29,2.54.3,4.15,1.08-.18,2.06-.55,2.93-1.11.87-.56,1.57-1.32,2.09-2.27.04.06.17.27.38.64.21.37.38.82.52,1.35.13.53.19,1.12.15,1.77-.03.65-.26,1.26-.67,1.84-.42.57-1.08,1.08-2,1.53-.91.44-2.17.75-3.77.91-.12.93-.3,2.02-.55,3.28-.25,1.26-.63,2.49-1.15,3.7-.52,1.21-1.19,2.28-2.01,3.22-.82.94-1.86,1.55-3.11,1.82-1,.13-2.02.14-3.05.05-1.03-.09-2.03-.3-3.01-.63-.97-.33-1.88-.76-2.72-1.3-.84-.54-1.54-1.19-2.1-1.96"/>
  <path class="st0" d="M140.06,132.6c-.16-.7-.5-1.35-1.03-1.94-.53-.59-1.1-.94-1.71-1.06-.83.18-1.53.74-2.11,1.67-.58.93-1.03,2.04-1.36,3.31-.33,1.28-.54,2.62-.64,4.04-.1,1.42-.1,2.7,0,3.85.1,1.15.28,2.07.54,2.77.27.7.62.95,1.06.75.76-.33,1.43-1.07,2.01-2.21.58-1.14,1.08-2.41,1.49-3.8.41-1.39.76-2.77,1.05-4.14.29-1.36.52-2.45.69-3.26M141.87,123.67l6.23-1.63c1.33-.36,2.28-.56,2.83-.61.55-.04.87.14.94.54.07.4-.04,1.06-.33,1.98-.29.92-.62,2.15-.98,3.71-.39,1.72-.8,3.6-1.23,5.62-.43,2.02-.81,3.92-1.14,5.7-.33,1.78-.57,3.28-.73,4.52-.16,1.24-.16,1.92,0,2.05.11.07.32-.1.63-.5.31-.41.7-.97,1.17-1.68.47-.71.98-1.54,1.55-2.46.56-.93,1.14-1.87,1.73-2.84,1.35-2.29,2.86-4.91,4.51-7.84.45.7.83,1.44,1.16,2.2.3.64.56,1.34.76,2.1.2.76.25,1.47.14,2.14-.09.44-.36,1-.8,1.7-.44.69-.98,1.44-1.62,2.24-.64.8-1.33,1.6-2.06,2.41-.74.81-1.45,1.56-2.14,2.26-.7.7-1.32,1.3-1.87,1.79-.55.49-.94.8-1.17.91-.45.16-1.2.26-2.25.28-1.05.03-2.15-.04-3.27-.21-1.13-.17-2.17-.42-3.11-.78-.95-.35-1.55-.83-1.82-1.45l-.27-1.19c-.28,1.19-.69,2.25-1.22,3.19-.53.94-1,1.58-1.4,1.93-.27.22-.73.4-1.38.52-.65.13-1.39.18-2.23.16-.84-.02-1.73-.1-2.68-.25-.95-.14-1.87-.38-2.76-.71-.89-.33-1.69-.76-2.4-1.27-.71-.52-1.24-1.15-1.6-1.91-.38-.85-.57-1.92-.57-3.22,0-1.3.14-2.69.42-4.16.25-1.34.58-2.69,1-4.05.42-1.36.87-2.6,1.34-3.72.47-1.12.95-2.07,1.44-2.85.48-.78.91-1.28,1.28-1.49.51-.31,1.19-.57,2.04-.79.85-.22,1.72-.4,2.63-.54.9-.14,1.75-.23,2.54-.28.79-.05,1.41-.02,1.85.07.37.08.77.33,1.2.74.43.42.83.86,1.19,1.32.44.54.88,1.14,1.31,1.78l1.15-5.41h0Z"/>
  <path class="st0" d="M157.12,124.66c.09-.89.2-1.87.33-2.94.13-1.07.27-2.19.43-3.35.16-1.16.34-2.34.54-3.54s.44-2.36.74-3.49c.29-1.15.63-2.05,1.02-2.68.39-.63.91-1.13,1.57-1.48.66-.35,1.5-.62,2.52-.8,1.02-.18,2.31-.43,3.88-.74.43-.06.82-.03,1.15.1.34.13.62.3.86.51.28.26.53.56.73.9,2.16-.67,3.75-.86,4.76-.56,1.01.3,1.69.96,2.03,1.96.34,1,.43,2.28.3,3.83-.14,1.56-.25,3.26-.35,5.11l-8.07,1.61c.22-1.17.39-2.29.51-3.34.12-.89.21-1.8.26-2.73.05-.93,0-1.68-.17-2.25-.08-.34-.2-.56-.39-.66-.18-.1-.38-.1-.58,0-.2.11-.41.3-.62.57-.21.27-.38.62-.52,1.03-.3.81-.56,1.8-.78,2.99-.22,1.19-.39,2.35-.52,3.49-.13,1.14-.23,2.14-.29,3-.07.86-.1,5.13-.1,5.26l26.67-5.77c-.06,1.17-.15,2.27-.28,3.29-.13.86-.3,1.7-.52,2.52-.22.82-.54,1.36-.97,1.61-.14.1-.56.24-1.25.42-.7.19-23.47,5.82-24.06,5.89-.13,1.28-1.69,14.29-1.96,17.4-.27,3.11-.51,6.09-.71,8.92-.02.33-.1.51-.21.55-.12.04-.37.07-.75.1-.67.02-1.45-.11-2.35-.39-.9-.28-1.76-.66-2.59-1.13-.83-.47-1.53-1.04-2.11-1.7-.58-.66-.89-1.35-.92-2.08-.03-.57.02-1.71.15-3.43.13-1.72.3-3.76.51-6.13.21-2.37.44-4.94.69-7.69.25-2.75.52-5.45.8-8.08-.21.05-.39.08-.53.1-.14.02-.26.03-.35.05-.12.03-.23.04-.33.03-.14-.03-.26-.1-.38-.2-.09-.11-.18-.25-.26-.42-.09-.17-.13-.4-.13-.69,0-.26.03-.61.06-1.05.03-.44.07-.89.13-1.35.04-.52.11-1.08.2-1.68-.02-.09,0-.17.04-.25.05-.07.11-.14.18-.18.07-.05.2-.08.39-.09l1.61-.36h0Z"/>
  <path class="st0" d="M213.72,107.24c0,.52.02,1.03.02,1.55,0,24.08-9.76,45.86-25.53,61.64-15.78,15.78-37.57,25.53-61.64,25.53-24.08,0-45.86-9.76-61.64-25.53-6.73-6.74-12.37-14.57-16.62-23.2-.84-.06-1.71-.18-2.6-.36,14.3,30.31,45.12,51.28,80.86,51.28,49.35,0,89.36-40.01,89.36-89.36,0-.26,0-.51,0-.77-.53-.15-1.05-.32-1.56-.51-.22-.08-.42-.18-.64-.27"/>
  <path class="st0" d="M126.56,19.44c-38.97,0-72.1,24.94-84.32,59.73.29-.09.6-.18.95-.29.53-.16,1.09-.34,1.66-.52,4.41-11.83,11.31-22.45,20.07-31.21,15.78-15.78,37.57-25.53,61.64-25.53,24.08,0,45.86,9.76,61.64,25.53,1.06,1.06,2.09,2.15,3.09,3.26.56-.47,1.16-.89,1.8-1.26-16.36-18.24-40.1-29.71-66.53-29.71"/>
  <path class="st1" d="M31.05,85.86c.57.16,1.11.34,1.65.51.68-1.26,1.45-2.3,2.27-3.16,4.45-15.97,12.96-30.24,24.36-41.65,17.21-17.21,40.97-27.85,67.23-27.85,26.26,0,50.02,10.64,67.23,27.85,1.81,1.81,3.54,3.69,5.2,5.64.26-.05.51-.09.78-.13.21-.03.55-.1,1.04-.21l.14-.03c.94-.21,1.9-.31,2.85-.31.1,0,.2,0,.3.01-2.26-2.81-4.67-5.5-7.22-8.05-17.99-17.99-42.86-29.13-70.31-29.13-27.45,0-52.33,11.13-70.31,29.13-12.74,12.74-22.04,28.94-26.38,47.06.4.11.8.21,1.19.32"/>
  <path class="st1" d="M223.39,108.89c-.34.01-.68.02-1.02.02-.24,0-.49-.02-.74-.02-.03,26.22-10.66,49.94-27.85,67.14-17.21,17.21-40.97,27.85-67.23,27.85-26.26,0-50.02-10.64-67.23-27.85-9.02-9.02-16.23-19.84-21.05-31.88-.09-.05-.19-.1-.29-.15l-.06.1c-.61,1.57-1.5,3.02-2.63,4.25,5.02,11.56,12.16,21.98,20.94,30.76,17.99,17.99,42.86,29.13,70.31,29.13,27.45,0,52.33-11.13,70.31-29.13,17.99-17.99,29.13-42.86,29.13-70.31,0-.04,0-.08,0-.12-.84.1-1.71.17-2.61.21"/>
  <path class="st1" d="M115.77,167.44l12.35-1.53-21.44,4.39s-.87-2.14.62-2.85c6.48-2.12,28.66-4.33,28.66-4.33l-20.2,4.32h0ZM145.77,162.24c-.9.14-7.2,2.21-7.2,2.21l-.08-.56c-.24-1.6-1.73-2.69-3.33-2.45l-28.89,4.35c-1.59.24-2.69,1.73-2.45,3.32l.08.56s-6.63-.13-7.53,0c-1.53.23-2.57,1.65-2.34,3.17.23,1.52,1.65,2.57,3.17,2.34.9-.13,7.2-2.21,7.2-2.21l.08.56c.24,1.6,1.73,2.7,3.32,2.46l28.89-4.35c1.59-.24,2.7-1.73,2.46-3.33l-.08-.56s6.63.13,7.53,0c1.52-.23,2.57-1.65,2.34-3.17-.23-1.52-1.64-2.57-3.17-2.34"/>
</svg>