<?xml version="1.0" encoding="UTF-8"?>
<svg id="Layer_1" xmlns="http://www.w3.org/2000/svg" version="1.1" viewBox="0 0 1000 324.89">
  <!-- Generator: Adobe Illustrator 29.4.0, SVG Export Plug-In . SVG Version: 2.1.0 Build 29)  -->
  <defs>
    <style>
      .st0 {
        fill: #ba9a67;
      }
    </style>
  </defs>
  <path class="st0" d="M323.42,68.66c3-9.03,4.51-16.55,4.51-22.57,0-15.98-11.57-23.97-34.73-23.97-16.91,7.64-36.53,25.07-58.87,52.27-22.34,27.21-41.5,54.93-57.47,83.18,8.1-27.55,17.47-57.19,28.12-88.91,3.01-9.03,4.52-16.55,4.52-22.57,0-15.98-11.46-23.97-34.38-23.97-20.84,14.12-42.84,43.19-65.99,87.18l20.84-64.25c.92-3.24,1.38-5.56,1.38-6.95,0-10.64-7.99-15.97-23.96-15.97-31.96,20.38-55.69,30.57-71.19,30.57-5.1,0-9.03-.92-11.81-2.78-.93,1.86-1.39,4.05-1.39,6.6,0,5.1,1.67,9.72,5.03,13.9,3.36,4.17,7.7,6.25,13.03,6.25,2.31,0,4.98-.58,7.99-1.73,11.57-5.79,26.27-15.52,44.1-29.17,1.86-1.62,3.48-2.43,4.87-2.43,1.85,0,2.78,1.51,2.78,4.51,0,4.64-2.21,13.44-6.61,26.4L25.78,279.82c-.93,3.24-1.39,5.55-1.39,6.94,0,4.86,2.02,8.86,6.07,11.98,4.05,3.12,10.13,4.68,18.23,4.68v-3.48c0-4.16,1.39-10.19,4.17-18.06l13.54-40.98h-.35c15.29-46.77,32.88-87.93,52.8-123.47,19.91-35.54,40.28-58.52,61.12-68.94-.7,8.11-3.6,19.8-8.68,35.08-20.61,65.76-35.31,112.06-44.1,138.92-2.31,7.64-3.48,13.78-3.48,18.41,0,16.44,11.92,25.82,35.77,28.13-3.47-4.63-5.21-10.89-5.21-18.75,0-3.71.35-7.64,1.04-11.81,10.42-38.2,30.78-76.34,61.12-114.44,30.34-38.08,57.65-63.26,81.97-75.54-1.16,9.27-4.06,20.96-8.69,35.08-3.7,11.8-9.5,30.45-17.36,55.92-7.87,25.47-14.99,48.33-21.35,68.59-6.38,20.26-11.53,36.53-15.46,48.8-2.31,7.64-3.47,13.78-3.47,18.41,0,16.44,11.92,25.82,35.77,28.13-3.48-4.63-5.21-11-5.21-19.1,0-7.18,2.78-21.07,8.33-41.67,17.6-64.6,35.08-122.6,52.45-174Z"/>
  <path class="st0" d="M351.89,86.72c3.48,1.39,6.6,2.09,9.38,2.09,1.85,0,2.89-.35,3.13-1.04l7.29-13.54c.23-.23.35-.69.35-1.39,0-2.54-2.2-5.15-6.6-7.81-4.4-2.66-8.11-4-11.12-4-1.63,0-2.55.47-2.78,1.39l-5.21,19.8c.23,1.62,2.08,3.12,5.55,4.51Z"/>
  <path class="st0" d="M974.94,167.12c-.92-.81-1.62-1.22-2.09-1.22-1.39,2.55-4.11,7.93-8.16,16.15-4.05,8.22-7.36,14.71-9.9,19.45-2.55,4.75-6.25,10.77-11.12,18.06-4.86,7.29-9.38,12.97-13.54,17.02-4.17,4.05-9.27,7.64-15.29,10.77-6.02,3.13-12.15,4.69-18.41,4.69-13.43,0-20.83-6.72-22.22-20.15h.35c23.84-7.17,42.54-19.1,56.09-35.77,13.54-16.68,20.32-32.88,20.32-48.62,0-9.03-2.43-16.32-7.3-21.88-4.86-5.55-11.92-8.33-21.18-8.33-15.06,0-30.8,11.06-47.23,33.16-3.7,4.97-6.95,10.02-9.82,15.15-.09-.01-.17-.04-.26-.04-2.55,4.63-6.2,11.41-10.94,20.32-4.75,8.91-8.97,16.84-12.68,23.79-3.71,6.94-6.94,13.08-9.72,18.41-5.1,8.57-9.5,12.85-13.19,12.85-2.09,0-3.13-1.85-3.13-5.56,0-2.54.69-5.9,2.09-10.07h.35l32.29-98.63h3.13c8.1,0,12.84,2.43,14.23,7.29,1.39-3.7,2.09-6.48,2.09-8.33,0-5.55-3.71-8.33-11.12-8.33h-5.9c0-.23.06-.58.17-1.04.11-.46.17-.81.17-1.04,0-4.63-2.03-8.44-6.07-11.46-4.06-3-10.14-4.51-18.24-4.51.23,1.16.35,2.66.35,4.51,0,3.71-.69,8.22-2.08,13.55h-6.61c-8.1,0-12.84-2.43-14.23-7.29-1.39,3.7-2.09,6.49-2.09,8.33,0,5.55,3.71,8.33,11.12,8.33h8.68c-.47,1.62-1.62,5.1-3.48,10.42-1.86,5.32-3.47,9.95-4.86,13.89l-5.16,15.69c-.75-.73-1.36-1.1-1.79-1.1h-.35c-3.48,6.49-9.15,16.96-17.02,31.42-7.88,14.47-13.43,24.84-16.67,31.09-4.4,8.33-8.33,12.51-11.81,12.51-2.09,0-3.13-1.5-3.13-4.52,0-2.31.92-6.02,2.78-11.12,4.39-12.27,9.14-25.29,14.24-39.06,5.1-13.78,9.08-24.6,11.98-32.48,2.89-7.87,4.57-12.38,5.04-13.54,1.15-3.01,1.73-5.91,1.73-8.68,0-9.5-7.29-14.24-21.87-14.24v1.39c0,5.32-3.01,16.44-9.03,33.34,1.39-4.63,2.09-8.79,2.09-12.5,0-6.95-1.98-12.39-5.91-16.33-3.93-3.93-8.45-5.9-13.54-5.9-12.74,0-25.41,7.36-38.03,22.06-10.54,12.27-19.65,26.76-27.36,43.46-2.32,4.29-4.95,9.13-7.89,14.53-7.88,14.47-13.44,24.84-16.68,31.09-4.86,8.33-8.8,12.51-11.8,12.51-1.86,0-2.78-1.5-2.78-4.52,0-2.77.81-6.48,2.43-11.12l25.7-77.09c2.31-6.95,3.48-12.51,3.48-16.67,0-9.5-4.87-14.24-14.59-14.24s-20.49,7.41-30.91,22.23c-10.65,15.05-19.92,29.64-27.78,43.76l14.59-42.71c1.15-3.01,1.74-6.02,1.74-9.03,0-8.34-4.17-12.97-12.51-13.9-.24,0-.69-.05-1.39-.17-.69-.11-1.27-.17-1.74-.17-10.19,0-20.49,7.41-30.9,22.23-9.5,13.43-18.64,28.01-27.44,43.76l14.58-42.71c.7-2.55,1.04-4.87,1.04-6.95,0-4.86-1.97-8.79-5.9-11.8-3.94-3.01-9.96-4.52-18.07-4.52.23,1.16.35,2.78.35,4.87,0,2.54-.35,5.32-1.03,8.33-.69,3.01-1.39,5.67-2.09,7.99-.69,2.31-2.2,6.83-4.52,13.54-2.22,6.45-4.12,12.02-5.7,16.75-3.52,6.54-8.69,16.06-15.49,28.57-7.87,14.47-13.43,24.84-16.67,31.09-6.02,10.66-10.65,15.97-13.89,15.97-4.4,0-9.84-8.79-16.33-26.39l-12.84-35.77,28.13-31.26c9.95-11.11,19.8-16.67,29.52-16.67,2.54,0,4.39.24,5.55.69.46-2.78.69-4.74.69-5.9,0-7.64-3.36-11.46-10.07-11.46-7.64,0-15.63,4.64-23.96,13.9l-34.39,38.19-3.81-10.76c-10.19-27.55-19.92-41.33-29.17-41.33-5.1,0-10.25,3.48-15.46,10.42-5.21,6.94-11.17,17.25-17.88,30.91l-3.46,7.01c-.13-.04-.25-.07-.36-.07-2.55,4.63-6.19,11.41-10.94,20.32-4.75,8.91-8.97,16.84-12.68,23.79-3.7,6.94-6.94,13.08-9.72,18.41-5.1,8.57-9.38,12.85-12.85,12.85-2.31,0-3.48-1.85-3.48-5.56,0-2.54.69-5.9,2.09-10.07l.35-.35,27.78-85.08c.92-2.78,1.39-4.98,1.39-6.61,0-4.63-2.03-8.51-6.07-11.63-4.06-3.13-10.14-4.69-18.24-4.69.23,1.16.35,2.78.35,4.87,0,1.62-.12,3.36-.35,5.21-.23,1.86-.51,3.53-.86,5.03-.35,1.51-.99,3.77-1.91,6.78-.93,3.01-1.74,5.5-2.43,7.47-.69,1.97-1.86,5.44-3.48,10.42s-3.01,9.08-4.16,12.32l-18.06,53.84c-3.01,8.56-4.52,16.9-4.52,25,0,13.9,5.21,20.84,15.63,20.84s22.22-12.85,35.42-38.55c6.41-12.53,12.82-24.95,19.24-37.28l.2.82c.7-1.39,2.26-4.63,4.69-9.72,1.11-2.33,2.21-4.58,3.29-6.79.81-1.56,1.63-3.12,2.44-4.67.04-.13.06-.29.1-.42.43-.85.86-1.7,1.28-2.53,2.31-4.51,4.8-9.26,7.47-14.24,2.66-4.98,5.32-8.91,8-11.81,2.65-2.89,4.91-4.34,6.77-4.34,3.47,0,7.06,5.55,10.77,16.67l12.84,35.77-39.59,43.76c-9.96,11.12-19.8,16.68-29.52,16.68-2.55,0-4.4-.23-5.56-.69-.46,2.77-.7,4.75-.7,5.9,0,7.64,3.37,11.46,10.07,11.46,7.64,0,15.63-4.63,23.97-13.9l45.84-50.7,3.12,9.38c.47,1.62,1.27,3.93,2.43,6.94,3.7,10.42,6.71,18.47,9.03,24.13,2.31,5.68,5.39,11.12,9.2,16.33,3.82,5.21,7.69,7.81,11.64,7.81s8.39-2.49,13.37-7.47c4.98-4.98,10.01-11.76,15.1-20.32,5.09-8.56,9.61-16.67,13.55-24.32,1.49-2.9,3.03-5.94,4.6-9.11l-12.59,37.94c-.69,2.32-1.04,4.75-1.04,7.3,0,10.65,7.75,15.97,23.26,15.97v-2.43c0-4.63.92-9.38,2.78-14.24,4.86-20.15,21.65-51.17,50.36-93.08,6.94-10.19,11.8-15.29,14.58-15.29.7,0,1.04.47,1.04,1.39l-1.39,5.55c-3.48,10.42-8.75,26.17-15.8,47.23-7.07,21.08-12.33,36.94-15.81,47.58-.92,3.25-1.38,5.68-1.38,7.3,0,10.88,7.87,16.32,23.61,16.32v-3.13c0-3.7.7-8.33,2.09-13.89,4.86-19.68,21.65-50.59,50.35-92.73,7.18-10.42,12.04-15.63,14.59-15.63.69,0,1.04.59,1.04,1.74,0,1.86-.35,3.71-1.04,5.55l-23.97,71.9c-3.01,9.03-4.51,17.94-4.51,26.74,0,12.97,4.28,19.45,12.84,19.45,10.19,0,22-12.96,35.43-38.9,1.26-2.52,2.77-5.51,4.54-8.97-2.1,8.73-3.16,16.58-3.16,23.56,0,15.98,6.14,23.97,18.41,23.97,9.26,0,19.57-5.96,30.91-17.88,11.34-11.92,21.99-26.69,31.96-44.29-8.33,16.68-12.51,31.61-12.51,44.81,0,11.57,4.05,17.36,12.16,17.36,10.42,0,22.22-12.85,35.42-38.55,3.24-6.48,8.22-16.09,14.93-28.83,2.93-5.55,5.52-10.5,7.79-14.86l-11.96,36.4c-3.01,8.56-4.51,16.9-4.51,25,0,14.12,5.09,21.19,15.28,21.19h.35c10.19,0,21.99-12.96,35.42-38.9,3.04-5.86,7.56-14.62,13.55-26.28-.92,5.78-1.39,11.64-1.39,17.6,0,14.35,3.41,25.82,10.25,34.38,6.82,8.57,15.57,12.96,26.22,13.2h1.39c25.7,0,48.28-19.33,67.73-58,5.55-11.57,12.04-24.31,19.45-38.2.46-1.39.7-2.2.7-2.43,0-1.39-.47-2.48-1.39-3.29ZM885.86,181.53c5.91-13.89,12.51-25.58,19.8-35.08,7.3-9.5,13.37-14.24,18.23-14.24,3.01,0,4.52,2.09,4.52,6.26,0,11.12-5.21,25.87-15.62,44.28-10.42,18.41-23.05,30.62-37.86,36.64,1.39-11.34,5.03-23.96,10.93-37.86ZM734.44,201.5c-13.32,18.87-23.79,28.31-31.43,28.31l-.69-.35c-3.93,0-5.9-2.89-5.9-8.68,0-7.17,2.78-17.24,8.33-30.22,14.13-34.26,27.09-51.4,38.9-51.4,7.17,0,10.77,4.4,10.77,13.19,0,13.9-6.66,30.28-19.97,49.15Z"/>
</svg>