<?xml version="1.0" encoding="UTF-8"?>
<svg xmlns="http://www.w3.org/2000/svg" version="1.1" viewBox="0 0 720 720">
  <defs>
    <style>
      .cls-1 {
        fill: #00b4d8;
      }
    </style>
  </defs>
  <!-- Generator: Adobe Illustrator 28.6.0, SVG Export Plug-In . SVG Version: 1.1.0 Build 552)  -->
  <g>
    <g id="Layer_1">
      <g>
        <path class="cls-1" d="M489.51,192.83c38.9-36.29,70.14-41.32,70.14-41.32-73.25-32.52-142.96-10.33-160.57-3.7,26.55,8.81,51.4,20.17,73.19,33.55,6.01,3.69,11.76,7.51,17.24,11.46Z"/>
        <path class="cls-1" d="M695.45,353.53c-54.63-66.65-138.29-94.47-160.2-100.85h0C469.95,146.26,215.39,70.82,24.55,216.97c0,0,49.77,76.69,153.84,93.93,0,0,67.72-60.28,160.92-38.88,0,0-90.64-69.64-209.85-12.78,0,0-21.4-6.11-46.74-31.77,0,0,114.12-53.01,239.59-19.45,0,0,.04,0,.14.03,6.14,1.65,12.31,3.5,18.49,5.58,20.81,7.87,41.84,20.36,57.98,56.28.21-21.6-6.64-45.22-11.81-58.61,0,0,24.89,24.2,30.83,56.64,0,0,12.94-29.17-5.76-58.9,0,0,27.44,18.49,30.77,65.1,0,0,8.66-10.05,5.59-28.63,0,0,8.1,8.31,7.62,23.06-.15,3.55-.99,10.42-4.93,16.37,3-1.39,4.83-3.21,5.9-5.16,89.02,72.44,80.62,176.26,34.62,265.11,0,0,107.24-57.76,79.95-210.47,51.08,2.06,123.76,19.11,123.76,19.11Z"/>
        <path class="cls-1" d="M401.17,373.87c-137.9-11.72-175.86-56.79-175.86-56.79,0,0,.5,19.92,34.9,40.73,14.58,23.3,45.38,61.44,97.34,76.74,0,0-5.89-18.92-10.07-45.93,5.86,1.22,11.99,2.39,18.42,3.5,166.9,28.82,50.13,117.24,49.1,118.02-68.06,46.29-144.12,15.44-144.12,15.44,0,0,23.02-88.31-76.09-144.25,29.47,38.06,32.03,88.81,7.57,124.74-27.15,39.88-75.04,43.03-80.92,43.33,3.6,5.06,21.51,29.61,55.27,35.29,18.94,3.19,42.42-.18,69.94-17.95.79-.51,9.21,3.93,10.18,4.3,9.1,3.46,18.46,6.23,27.95,8.41,28.38,6.52,58.19,7.53,86.8,1.9,28.95-5.7,56.29-19.52,77.86-39.67,9.65-9.01,17.63-19.71,24.33-31.07,7.4-12.55,13.31-26.13,16.71-40.33,3.26-13.61,4.22-28.09.6-41.73-3.79-14.25-12.68-26.28-24.69-34.73-17.16-12.09-38.6-17.05-59.15-19.34-2.02-.23-4.05-.42-6.08-.6Z"/>
      </g>
    </g>
  </g>
</svg>